solid OpenSCAD_Model
  facet normal 1 -0 0
    outer loop
      vertex 44 0 9.2
      vertex 44 24 0
      vertex 44 24 9.2
    endloop
  endfacet
  facet normal 1 0 0
    outer loop
      vertex 44 24 0
      vertex 44 0 9.2
      vertex 44 0 0
    endloop
  endfacet
  facet normal -0 0 1
    outer loop
      vertex 8 24 6
      vertex 36 20 6
      vertex 36 24 6
    endloop
  endfacet
  facet normal 0 0 1
    outer loop
      vertex 36 20 6
      vertex 8 24 6
      vertex 8 20 6
    endloop
  endfacet
  facet normal 0 0 1
    outer loop
      vertex 15.1193 2.45395 6
      vertex 13.5691 3.66644 6
      vertex 13.5691 2.45395 6
    endloop
  endfacet
  facet normal 0 0 1
    outer loop
      vertex 15.1193 2.12844 6
      vertex 13.5691 2.12844 6
      vertex 15.1193 0.799999 6
    endloop
  endfacet
  facet normal 0 0 1
    outer loop
      vertex 15.5078 0.799999 6
      vertex 36 4 6
      vertex 15.5078 3.66644 6
    endloop
  endfacet
  facet normal -0 0 1
    outer loop
      vertex 8 4 6
      vertex 15.5078 3.66644 6
      vertex 36 4 6
    endloop
  endfacet
  facet normal 0 0 1
    outer loop
      vertex 15.1193 3.66644 6
      vertex 13.5691 3.66644 6
      vertex 15.1193 2.45395 6
    endloop
  endfacet
  facet normal 0 0 1
    outer loop
      vertex 15.5078 3.66644 6
      vertex 8 4 6
      vertex 15.1193 3.66644 6
    endloop
  endfacet
  facet normal 0 0 1
    outer loop
      vertex 15.1193 3.66644 6
      vertex 8 4 6
      vertex 13.5691 3.66644 6
    endloop
  endfacet
  facet normal 0 0 1
    outer loop
      vertex 12.6734 2.64776 6
      vertex 13.1805 3.66644 6
      vertex 12.684 2.80384 6
    endloop
  endfacet
  facet normal 0 0 1
    outer loop
      vertex 13.1805 3.66644 6
      vertex 12.6734 2.96081 6
      vertex 12.684 2.80384 6
    endloop
  endfacet
  facet normal 0 0 1
    outer loop
      vertex 13.1805 3.66644 6
      vertex 12.6416 3.10298 6
      vertex 12.6734 2.96081 6
    endloop
  endfacet
  facet normal 0 0 1
    outer loop
      vertex 13.1805 3.66644 6
      vertex 12.5888 3.23033 6
      vertex 12.6416 3.10298 6
    endloop
  endfacet
  facet normal 0 0 1
    outer loop
      vertex 13.1805 3.66644 6
      vertex 12.5147 3.34286 6
      vertex 12.5888 3.23033 6
    endloop
  endfacet
  facet normal 0 0 1
    outer loop
      vertex 13.1805 3.66644 6
      vertex 12.4195 3.44059 6
      vertex 12.5147 3.34286 6
    endloop
  endfacet
  facet normal 0 0 1
    outer loop
      vertex 13.1805 3.66644 6
      vertex 12.305 3.52189 6
      vertex 12.4195 3.44059 6
    endloop
  endfacet
  facet normal 0 0 1
    outer loop
      vertex 13.1805 3.66644 6
      vertex 12.1731 3.58512 6
      vertex 12.305 3.52189 6
    endloop
  endfacet
  facet normal 0 0 1
    outer loop
      vertex 13.1805 3.66644 6
      vertex 12.0238 3.63029 6
      vertex 12.1731 3.58512 6
    endloop
  endfacet
  facet normal 0 0 1
    outer loop
      vertex 13.1805 3.66644 6
      vertex 11.857 3.65739 6
      vertex 12.0238 3.63029 6
    endloop
  endfacet
  facet normal 0 0 1
    outer loop
      vertex 13.5691 3.66644 6
      vertex 8 4 6
      vertex 13.1805 3.66644 6
    endloop
  endfacet
  facet normal 0 -0 1
    outer loop
      vertex 11.6729 3.66644 6
      vertex 13.1805 3.66644 6
      vertex 8 4 6
    endloop
  endfacet
  facet normal 0 0 1
    outer loop
      vertex 13.1805 3.66644 6
      vertex 11.6729 3.66644 6
      vertex 11.857 3.65739 6
    endloop
  endfacet
  facet normal 0 0 1
    outer loop
      vertex 10.4665 3.66644 6
      vertex 8.84563 2.33392 6
      vertex 10.4665 0.799999 6
    endloop
  endfacet
  facet normal 0 0 1
    outer loop
      vertex 11.6729 3.66644 6
      vertex 8 4 6
      vertex 10.4665 3.66644 6
    endloop
  endfacet
  facet normal 0 0 1
    outer loop
      vertex 8 4 6
      vertex 8.84563 2.33392 6
      vertex 10.4665 3.66644 6
    endloop
  endfacet
  facet normal 0 0 1
    outer loop
      vertex 8.84563 2.33392 6
      vertex 8 4 6
      vertex 8 2.33392 6
    endloop
  endfacet
  facet normal 0 0 1
    outer loop
      vertex 36 4 6
      vertex 15.5078 0.799999 6
      vertex 36 0 6
    endloop
  endfacet
  facet normal 0 0 1
    outer loop
      vertex 8 0 6
      vertex 15.5078 0.799999 6
      vertex 15.1193 0.799999 6
    endloop
  endfacet
  facet normal 0 0 1
    outer loop
      vertex 13.5691 0.799999 6
      vertex 15.1193 0.799999 6
      vertex 13.5691 2.12844 6
    endloop
  endfacet
  facet normal 0 0 1
    outer loop
      vertex 8 0 6
      vertex 15.1193 0.799999 6
      vertex 13.5691 0.799999 6
    endloop
  endfacet
  facet normal 0 0 1
    outer loop
      vertex 8 0 6
      vertex 13.5691 0.799999 6
      vertex 13.1805 0.799999 6
    endloop
  endfacet
  facet normal 0 0 1
    outer loop
      vertex 13.1805 3.66644 6
      vertex 12.6734 2.64776 6
      vertex 13.1805 0.799999 6
    endloop
  endfacet
  facet normal -0 0 1
    outer loop
      vertex 12.6415 2.50505 6
      vertex 13.1805 0.799999 6
      vertex 12.6734 2.64776 6
    endloop
  endfacet
  facet normal -0 0 1
    outer loop
      vertex 12.5884 2.37565 6
      vertex 13.1805 0.799999 6
      vertex 12.6415 2.50505 6
    endloop
  endfacet
  facet normal -0 0 1
    outer loop
      vertex 12.5141 2.25962 6
      vertex 13.1805 0.799999 6
      vertex 12.5884 2.37565 6
    endloop
  endfacet
  facet normal -0 0 1
    outer loop
      vertex 12.4185 2.15692 6
      vertex 13.1805 0.799999 6
      vertex 12.5141 2.25962 6
    endloop
  endfacet
  facet normal -0 0 1
    outer loop
      vertex 12.3047 2.07051 6
      vertex 13.1805 0.799999 6
      vertex 12.4185 2.15692 6
    endloop
  endfacet
  facet normal -0 0 1
    outer loop
      vertex 12.1757 2.00328 6
      vertex 13.1805 0.799999 6
      vertex 12.3047 2.07051 6
    endloop
  endfacet
  facet normal -0 0 1
    outer loop
      vertex 12.0314 1.95527 6
      vertex 13.1805 0.799999 6
      vertex 12.1757 2.00328 6
    endloop
  endfacet
  facet normal -0 0 1
    outer loop
      vertex 11.872 1.92646 6
      vertex 13.1805 0.799999 6
      vertex 12.0314 1.95527 6
    endloop
  endfacet
  facet normal 0 0 1
    outer loop
      vertex 10.8551 0.799999 6
      vertex 11.872 1.92646 6
      vertex 11.6973 1.91687 6
    endloop
  endfacet
  facet normal 0 0 1
    outer loop
      vertex 10.8551 0.799999 6
      vertex 11.6973 1.91687 6
      vertex 10.8551 1.91687 6
    endloop
  endfacet
  facet normal 0 0 1
    outer loop
      vertex 11.872 1.92646 6
      vertex 10.8551 0.799999 6
      vertex 13.1805 0.799999 6
    endloop
  endfacet
  facet normal 0 0 1
    outer loop
      vertex 8 0 6
      vertex 13.1805 0.799999 6
      vertex 10.8551 0.799999 6
    endloop
  endfacet
  facet normal 0 0 1
    outer loop
      vertex 8 0 6
      vertex 10.8551 0.799999 6
      vertex 10.4665 0.799999 6
    endloop
  endfacet
  facet normal -0 0 1
    outer loop
      vertex 8.84563 2.03689 6
      vertex 10.4665 0.799999 6
      vertex 8.84563 2.33392 6
    endloop
  endfacet
  facet normal 0 0 1
    outer loop
      vertex 8 0 6
      vertex 8.84563 2.03689 6
      vertex 8 2.03689 6
    endloop
  endfacet
  facet normal 0 0 1
    outer loop
      vertex 15.5078 0.799999 6
      vertex 8 0 6
      vertex 36 0 6
    endloop
  endfacet
  facet normal 0 0 1
    outer loop
      vertex 8.84563 2.03689 6
      vertex 8 0 6
      vertex 10.4665 0.799999 6
    endloop
  endfacet
  facet normal 0 0 1
    outer loop
      vertex 11.8663 3.33297 6
      vertex 12.2934 2.79979 6
      vertex 12.2667 2.99974 6
    endloop
  endfacet
  facet normal 0 -0 1
    outer loop
      vertex 11.8767 2.2471 6
      vertex 12.2934 2.79979 6
      vertex 11.8663 3.33297 6
    endloop
  endfacet
  facet normal 0 0 1
    outer loop
      vertex 12.0532 3.26632 6
      vertex 12.2667 2.99974 6
      vertex 12.1866 3.15524 6
    endloop
  endfacet
  facet normal 0 0 1
    outer loop
      vertex 12.2667 2.99974 6
      vertex 12.0532 3.26632 6
      vertex 11.8663 3.33297 6
    endloop
  endfacet
  facet normal 0 0 1
    outer loop
      vertex 12.2934 2.79979 6
      vertex 11.8767 2.2471 6
      vertex 12.2673 2.59253 6
    endloop
  endfacet
  facet normal 0 0 1
    outer loop
      vertex 12.2673 2.59253 6
      vertex 12.059 2.31617 6
      vertex 12.1892 2.43133 6
    endloop
  endfacet
  facet normal 0 -0 1
    outer loop
      vertex 12.059 2.31617 6
      vertex 12.2673 2.59253 6
      vertex 11.8767 2.2471 6
    endloop
  endfacet
  facet normal 0 0 1
    outer loop
      vertex 11.8663 3.33297 6
      vertex 11.6424 2.22406 6
      vertex 11.8767 2.2471 6
    endloop
  endfacet
  facet normal 0 0 1
    outer loop
      vertex 11.6261 3.35518 6
      vertex 11.6424 2.22406 6
      vertex 11.8663 3.33297 6
    endloop
  endfacet
  facet normal 0 0 1
    outer loop
      vertex 10.8551 2.22406 6
      vertex 11.6261 3.35518 6
      vertex 10.8551 3.35518 6
    endloop
  endfacet
  facet normal 0 0 1
    outer loop
      vertex 11.6261 3.35518 6
      vertex 10.8551 2.22406 6
      vertex 11.6424 2.22406 6
    endloop
  endfacet
  facet normal 0 0 -1
    outer loop
      vertex 0 0 0
      vertex 44 24 0
      vertex 44 0 0
    endloop
  endfacet
  facet normal -0 0 -1
    outer loop
      vertex 44 24 0
      vertex 0 0 0
      vertex 0 24 0
    endloop
  endfacet
  facet normal -1 0 0
    outer loop
      vertex 0 0 0
      vertex 0 24 9.2
      vertex 0 24 0
    endloop
  endfacet
  facet normal -1 -0 0
    outer loop
      vertex 0 24 9.2
      vertex 0 0 0
      vertex 0 0 9.2
    endloop
  endfacet
  facet normal 0 1 0
    outer loop
      vertex 44 24 9.2
      vertex 36 24 6
      vertex 36 24 9.2
    endloop
  endfacet
  facet normal 0 1 0
    outer loop
      vertex 36 24 6
      vertex 44 24 0
      vertex 8 24 6
    endloop
  endfacet
  facet normal 0 1 -0
    outer loop
      vertex 44 24 0
      vertex 36 24 6
      vertex 44 24 9.2
    endloop
  endfacet
  facet normal 0 1 -0
    outer loop
      vertex 8 24 6
      vertex 0 24 9.2
      vertex 8 24 9.2
    endloop
  endfacet
  facet normal 0 1 0
    outer loop
      vertex 8 24 6
      vertex 0 24 0
      vertex 0 24 9.2
    endloop
  endfacet
  facet normal 0 1 0
    outer loop
      vertex 0 24 0
      vertex 8 24 6
      vertex 44 24 0
    endloop
  endfacet
  facet normal 0 -1 0
    outer loop
      vertex 0 0 9.2
      vertex 8 0 6
      vertex 8 0 9.2
    endloop
  endfacet
  facet normal 0 -1 -0
    outer loop
      vertex 8 0 6
      vertex 0 0 0
      vertex 36 0 6
    endloop
  endfacet
  facet normal 0 -1 0
    outer loop
      vertex 0 0 0
      vertex 8 0 6
      vertex 0 0 9.2
    endloop
  endfacet
  facet normal 0 -1 0
    outer loop
      vertex 36 0 6
      vertex 44 0 9.2
      vertex 36 0 9.2
    endloop
  endfacet
  facet normal 0 -1 0
    outer loop
      vertex 36 0 6
      vertex 44 0 0
      vertex 44 0 9.2
    endloop
  endfacet
  facet normal 0 -1 0
    outer loop
      vertex 44 0 0
      vertex 36 0 6
      vertex 0 0 0
    endloop
  endfacet
  facet normal 1 -0 0
    outer loop
      vertex 36 4 14.75
      vertex 36 20 9.2
      vertex 36 20 14.75
    endloop
  endfacet
  facet normal 1 0 0
    outer loop
      vertex 36 20 9.2
      vertex 36 4 14.75
      vertex 36 4 9.2
    endloop
  endfacet
  facet normal -1 0 0
    outer loop
      vertex 36 20 6
      vertex 36 24 9.2
      vertex 36 24 6
    endloop
  endfacet
  facet normal -1 -0 0
    outer loop
      vertex 36 24 9.2
      vertex 36 20 6
      vertex 36 20 9.2
    endloop
  endfacet
  facet normal -1 0 0
    outer loop
      vertex 36 0 6
      vertex 36 4 9.2
      vertex 36 4 6
    endloop
  endfacet
  facet normal -1 -0 0
    outer loop
      vertex 36 4 9.2
      vertex 36 0 6
      vertex 36 0 9.2
    endloop
  endfacet
  facet normal -0 0 1
    outer loop
      vertex 8 20 14.75
      vertex 36 4 14.75
      vertex 36 20 14.75
    endloop
  endfacet
  facet normal 0 0 1
    outer loop
      vertex 36 4 14.75
      vertex 8 20 14.75
      vertex 8 4 14.75
    endloop
  endfacet
  facet normal -1 0 0
    outer loop
      vertex 8 4 9.2
      vertex 8 20 14.75
      vertex 8 20 9.2
    endloop
  endfacet
  facet normal -1 -0 0
    outer loop
      vertex 8 20 14.75
      vertex 8 4 9.2
      vertex 8 4 14.75
    endloop
  endfacet
  facet normal 1 0 0
    outer loop
      vertex 8 4 9.2
      vertex 8 2.33392 6.8
      vertex 8 4 6
    endloop
  endfacet
  facet normal 1 0 0
    outer loop
      vertex 8 4 9.2
      vertex 8 2.03689 6.8
      vertex 8 2.33392 6.8
    endloop
  endfacet
  facet normal 1 -0 0
    outer loop
      vertex 8 0 9.2
      vertex 8 2.03689 6.8
      vertex 8 4 9.2
    endloop
  endfacet
  facet normal 1 0 0
    outer loop
      vertex 8 0 6
      vertex 8 2.03689 6.8
      vertex 8 0 9.2
    endloop
  endfacet
  facet normal 1 0 0
    outer loop
      vertex 8 2.03689 6.8
      vertex 8 0 6
      vertex 8 2.03689 6
    endloop
  endfacet
  facet normal 1 0 0
    outer loop
      vertex 8 4 6
      vertex 8 2.33392 6.8
      vertex 8 2.33392 6
    endloop
  endfacet
  facet normal 1 -0 0
    outer loop
      vertex 8 20 9.2
      vertex 8 24 6
      vertex 8 24 9.2
    endloop
  endfacet
  facet normal 1 0 0
    outer loop
      vertex 8 24 6
      vertex 8 20 9.2
      vertex 8 20 6
    endloop
  endfacet
  facet normal 0 1 -0
    outer loop
      vertex 36 20 9.2
      vertex 8 20 14.75
      vertex 36 20 14.75
    endloop
  endfacet
  facet normal 0 1 0
    outer loop
      vertex 36 20 9.2
      vertex 8 20 9.2
      vertex 8 20 14.75
    endloop
  endfacet
  facet normal 0 1 -0
    outer loop
      vertex 36 20 6
      vertex 8 20 9.2
      vertex 36 20 9.2
    endloop
  endfacet
  facet normal 0 1 0
    outer loop
      vertex 8 20 9.2
      vertex 36 20 6
      vertex 8 20 6
    endloop
  endfacet
  facet normal 0 -1 0
    outer loop
      vertex 8 4 9.2
      vertex 36 4 14.75
      vertex 8 4 14.75
    endloop
  endfacet
  facet normal 0 -1 0
    outer loop
      vertex 8 4 9.2
      vertex 36 4 9.2
      vertex 36 4 14.75
    endloop
  endfacet
  facet normal 0 -1 0
    outer loop
      vertex 8 4 6
      vertex 36 4 9.2
      vertex 8 4 9.2
    endloop
  endfacet
  facet normal 0 -1 -0
    outer loop
      vertex 36 4 9.2
      vertex 8 4 6
      vertex 36 4 6
    endloop
  endfacet
  facet normal -0 0 1
    outer loop
      vertex 0 24 9.2
      vertex 8 20 9.2
      vertex 8 24 9.2
    endloop
  endfacet
  facet normal 0 0 1
    outer loop
      vertex 8 20 9.2
      vertex 0 24 9.2
      vertex 8 4 9.2
    endloop
  endfacet
  facet normal 0 0 1
    outer loop
      vertex 0 0 9.2
      vertex 8 4 9.2
      vertex 0 24 9.2
    endloop
  endfacet
  facet normal 0 0 1
    outer loop
      vertex 8 4 9.2
      vertex 0 0 9.2
      vertex 8 0 9.2
    endloop
  endfacet
  facet normal 0 0 1
    outer loop
      vertex 36 20 9.2
      vertex 44 24 9.2
      vertex 36 24 9.2
    endloop
  endfacet
  facet normal 0 0 1
    outer loop
      vertex 44 24 9.2
      vertex 36 20 9.2
      vertex 44 0 9.2
    endloop
  endfacet
  facet normal -0 0 1
    outer loop
      vertex 36 4 9.2
      vertex 44 0 9.2
      vertex 36 20 9.2
    endloop
  endfacet
  facet normal 0 0 1
    outer loop
      vertex 44 0 9.2
      vertex 36 4 9.2
      vertex 36 0 9.2
    endloop
  endfacet
  facet normal 0 0 1
    outer loop
      vertex 12.2934 2.79979 6.8
      vertex 12.684 2.80384 6.8
      vertex 12.6734 2.96081 6.8
    endloop
  endfacet
  facet normal -0 0 1
    outer loop
      vertex 12.2667 2.99974 6.8
      vertex 12.6734 2.96081 6.8
      vertex 12.6416 3.10298 6.8
    endloop
  endfacet
  facet normal 0 0 1
    outer loop
      vertex 12.684 2.80384 6.8
      vertex 12.2934 2.79979 6.8
      vertex 12.6734 2.64776 6.8
    endloop
  endfacet
  facet normal 0 0 1
    outer loop
      vertex 12.2667 2.99974 6.8
      vertex 12.6416 3.10298 6.8
      vertex 12.5888 3.23033 6.8
    endloop
  endfacet
  facet normal 0 0 1
    outer loop
      vertex 12.2673 2.59253 6.8
      vertex 12.6734 2.64776 6.8
      vertex 12.2934 2.79979 6.8
    endloop
  endfacet
  facet normal 0 0 1
    outer loop
      vertex 12.1866 3.15524 6.8
      vertex 12.5888 3.23033 6.8
      vertex 12.5147 3.34286 6.8
    endloop
  endfacet
  facet normal 0 0 1
    outer loop
      vertex 12.6734 2.64776 6.8
      vertex 12.2673 2.59253 6.8
      vertex 12.6415 2.50505 6.8
    endloop
  endfacet
  facet normal 0 0 1
    outer loop
      vertex 12.1866 3.15524 6.8
      vertex 12.5147 3.34286 6.8
      vertex 12.4195 3.44059 6.8
    endloop
  endfacet
  facet normal 0 0 1
    outer loop
      vertex 12.6415 2.50505 6.8
      vertex 12.2673 2.59253 6.8
      vertex 12.5884 2.37565 6.8
    endloop
  endfacet
  facet normal 0 0 1
    outer loop
      vertex 12.1866 3.15524 6.8
      vertex 12.4195 3.44059 6.8
      vertex 12.305 3.52189 6.8
    endloop
  endfacet
  facet normal -0 0 1
    outer loop
      vertex 12.1892 2.43133 6.8
      vertex 12.5884 2.37565 6.8
      vertex 12.2673 2.59253 6.8
    endloop
  endfacet
  facet normal 0 0 1
    outer loop
      vertex 12.5884 2.37565 6.8
      vertex 12.1892 2.43133 6.8
      vertex 12.5141 2.25962 6.8
    endloop
  endfacet
  facet normal 0 0 1
    outer loop
      vertex 12.6734 2.96081 6.8
      vertex 12.2667 2.99974 6.8
      vertex 12.2934 2.79979 6.8
    endloop
  endfacet
  facet normal 0 0 1
    outer loop
      vertex 12.5888 3.23033 6.8
      vertex 12.1866 3.15524 6.8
      vertex 12.2667 2.99974 6.8
    endloop
  endfacet
  facet normal 0 0 1
    outer loop
      vertex 12.0532 3.26632 6.8
      vertex 12.305 3.52189 6.8
      vertex 12.1731 3.58512 6.8
    endloop
  endfacet
  facet normal 0 0 1
    outer loop
      vertex 12.305 3.52189 6.8
      vertex 12.0532 3.26632 6.8
      vertex 12.1866 3.15524 6.8
    endloop
  endfacet
  facet normal 0 0 1
    outer loop
      vertex 12.0238 3.63029 6.8
      vertex 12.0532 3.26632 6.8
      vertex 12.1731 3.58512 6.8
    endloop
  endfacet
  facet normal 0 0 1
    outer loop
      vertex 12.0238 3.63029 6.8
      vertex 11.8663 3.33297 6.8
      vertex 12.0532 3.26632 6.8
    endloop
  endfacet
  facet normal 0 0 1
    outer loop
      vertex 11.857 3.65739 6.8
      vertex 11.8663 3.33297 6.8
      vertex 12.0238 3.63029 6.8
    endloop
  endfacet
  facet normal 0 0 1
    outer loop
      vertex 11.6261 3.35518 6.8
      vertex 11.857 3.65739 6.8
      vertex 11.6729 3.66644 6.8
    endloop
  endfacet
  facet normal 0 0 1
    outer loop
      vertex 11.857 3.65739 6.8
      vertex 11.6261 3.35518 6.8
      vertex 11.8663 3.33297 6.8
    endloop
  endfacet
  facet normal 0 0 1
    outer loop
      vertex 11.6729 3.66644 6.8
      vertex 10.8551 3.35518 6.8
      vertex 11.6261 3.35518 6.8
    endloop
  endfacet
  facet normal 0 0 1
    outer loop
      vertex 10.4665 3.66644 6.8
      vertex 10.8551 2.22406 6.8
      vertex 10.8551 3.35518 6.8
    endloop
  endfacet
  facet normal 0 0 1
    outer loop
      vertex 10.4665 0.799999 6.8
      vertex 10.8551 2.22406 6.8
      vertex 10.4665 3.66644 6.8
    endloop
  endfacet
  facet normal -0 0 1
    outer loop
      vertex 10.4665 3.66644 6.8
      vertex 10.8551 3.35518 6.8
      vertex 11.6729 3.66644 6.8
    endloop
  endfacet
  facet normal 0 0 1
    outer loop
      vertex 10.8551 2.22406 6.8
      vertex 10.4665 0.799999 6.8
      vertex 10.8551 1.91687 6.8
    endloop
  endfacet
  facet normal 0 0 1
    outer loop
      vertex 10.8551 1.91687 6.8
      vertex 10.4665 0.799999 6.8
      vertex 10.8551 0.799999 6.8
    endloop
  endfacet
  facet normal 0 0 1
    outer loop
      vertex 12.5141 2.25962 6.8
      vertex 12.1892 2.43133 6.8
      vertex 12.4185 2.15692 6.8
    endloop
  endfacet
  facet normal 0 0 1
    outer loop
      vertex 12.4185 2.15692 6.8
      vertex 12.1892 2.43133 6.8
      vertex 12.3047 2.07051 6.8
    endloop
  endfacet
  facet normal -0 0 1
    outer loop
      vertex 12.059 2.31617 6.8
      vertex 12.3047 2.07051 6.8
      vertex 12.1892 2.43133 6.8
    endloop
  endfacet
  facet normal 0 0 1
    outer loop
      vertex 12.3047 2.07051 6.8
      vertex 12.059 2.31617 6.8
      vertex 12.1757 2.00328 6.8
    endloop
  endfacet
  facet normal 0 0 1
    outer loop
      vertex 12.059 2.31617 6.8
      vertex 12.0314 1.95527 6.8
      vertex 12.1757 2.00328 6.8
    endloop
  endfacet
  facet normal -0 0 1
    outer loop
      vertex 11.8767 2.2471 6.8
      vertex 12.0314 1.95527 6.8
      vertex 12.059 2.31617 6.8
    endloop
  endfacet
  facet normal 0 0 1
    outer loop
      vertex 11.8767 2.2471 6.8
      vertex 11.872 1.92646 6.8
      vertex 12.0314 1.95527 6.8
    endloop
  endfacet
  facet normal 0 0 1
    outer loop
      vertex 11.8767 2.2471 6.8
      vertex 11.6973 1.91687 6.8
      vertex 11.872 1.92646 6.8
    endloop
  endfacet
  facet normal -0 0 1
    outer loop
      vertex 11.6424 2.22406 6.8
      vertex 11.6973 1.91687 6.8
      vertex 11.8767 2.2471 6.8
    endloop
  endfacet
  facet normal 0 0 1
    outer loop
      vertex 10.8551 1.91687 6.8
      vertex 11.6424 2.22406 6.8
      vertex 10.8551 2.22406 6.8
    endloop
  endfacet
  facet normal 0 0 1
    outer loop
      vertex 11.6424 2.22406 6.8
      vertex 10.8551 1.91687 6.8
      vertex 11.6973 1.91687 6.8
    endloop
  endfacet
  facet normal -0 0 1
    outer loop
      vertex 13.1805 3.66644 6.8
      vertex 13.5691 2.45395 6.8
      vertex 13.5691 3.66644 6.8
    endloop
  endfacet
  facet normal 0 0 1
    outer loop
      vertex 13.5691 2.45395 6.8
      vertex 13.1805 3.66644 6.8
      vertex 13.5691 2.12844 6.8
    endloop
  endfacet
  facet normal 0 0 1
    outer loop
      vertex 13.1805 0.799999 6.8
      vertex 13.5691 2.12844 6.8
      vertex 13.1805 3.66644 6.8
    endloop
  endfacet
  facet normal 0 0 1
    outer loop
      vertex 13.5691 2.12844 6.8
      vertex 13.1805 0.799999 6.8
      vertex 13.5691 0.799999 6.8
    endloop
  endfacet
  facet normal -0 0 1
    outer loop
      vertex 13.5691 2.45395 6.8
      vertex 15.1193 2.12844 6.8
      vertex 15.1193 2.45395 6.8
    endloop
  endfacet
  facet normal 0 0 1
    outer loop
      vertex 15.1193 2.12844 6.8
      vertex 13.5691 2.45395 6.8
      vertex 13.5691 2.12844 6.8
    endloop
  endfacet
  facet normal 0 0 1
    outer loop
      vertex 15.1193 2.45395 6.8
      vertex 15.5078 3.66644 6.8
      vertex 15.1193 3.66644 6.8
    endloop
  endfacet
  facet normal 0 0 1
    outer loop
      vertex 15.1193 2.12844 6.8
      vertex 15.5078 3.66644 6.8
      vertex 15.1193 2.45395 6.8
    endloop
  endfacet
  facet normal 0 0 1
    outer loop
      vertex 15.5078 3.66644 6.8
      vertex 15.1193 2.12844 6.8
      vertex 15.5078 0.799999 6.8
    endloop
  endfacet
  facet normal 0 0 1
    outer loop
      vertex 15.5078 0.799999 6.8
      vertex 15.1193 2.12844 6.8
      vertex 15.1193 0.799999 6.8
    endloop
  endfacet
  facet normal -0 0 1
    outer loop
      vertex 8 2.33392 6.8
      vertex 8.84563 2.03689 6.8
      vertex 8.84563 2.33392 6.8
    endloop
  endfacet
  facet normal 0 0 1
    outer loop
      vertex 8.84563 2.03689 6.8
      vertex 8 2.33392 6.8
      vertex 8 2.03689 6.8
    endloop
  endfacet
  facet normal 0 -1 0
    outer loop
      vertex 10.8551 1.91687 6
      vertex 11.6973 1.91687 6.8
      vertex 10.8551 1.91687 6.8
    endloop
  endfacet
  facet normal 0 -1 -0
    outer loop
      vertex 11.6973 1.91687 6.8
      vertex 10.8551 1.91687 6
      vertex 11.6973 1.91687 6
    endloop
  endfacet
  facet normal 0.0548116 -0.998497 0
    outer loop
      vertex 11.6973 1.91687 6
      vertex 11.872 1.92646 6.8
      vertex 11.6973 1.91687 6.8
    endloop
  endfacet
  facet normal 0.0548116 -0.998497 0
    outer loop
      vertex 11.872 1.92646 6.8
      vertex 11.6973 1.91687 6
      vertex 11.872 1.92646 6
    endloop
  endfacet
  facet normal 0.177859 -0.984056 0
    outer loop
      vertex 11.872 1.92646 6
      vertex 12.0314 1.95527 6.8
      vertex 11.872 1.92646 6.8
    endloop
  endfacet
  facet normal 0.177859 -0.984056 0
    outer loop
      vertex 12.0314 1.95527 6.8
      vertex 11.872 1.92646 6
      vertex 12.0314 1.95527 6
    endloop
  endfacet
  facet normal 0.315695 -0.948861 0
    outer loop
      vertex 12.0314 1.95527 6
      vertex 12.1757 2.00328 6.8
      vertex 12.0314 1.95527 6.8
    endloop
  endfacet
  facet normal 0.315695 -0.948861 0
    outer loop
      vertex 12.1757 2.00328 6.8
      vertex 12.0314 1.95527 6
      vertex 12.1757 2.00328 6
    endloop
  endfacet
  facet normal 0.462164 -0.886794 0
    outer loop
      vertex 12.1757 2.00328 6
      vertex 12.3047 2.07051 6.8
      vertex 12.1757 2.00328 6.8
    endloop
  endfacet
  facet normal 0.462164 -0.886794 0
    outer loop
      vertex 12.3047 2.07051 6.8
      vertex 12.1757 2.00328 6
      vertex 12.3047 2.07051 6
    endloop
  endfacet
  facet normal 0.604737 -0.796425 0
    outer loop
      vertex 12.3047 2.07051 6
      vertex 12.4185 2.15692 6.8
      vertex 12.3047 2.07051 6.8
    endloop
  endfacet
  facet normal 0.604737 -0.796425 0
    outer loop
      vertex 12.4185 2.15692 6.8
      vertex 12.3047 2.07051 6
      vertex 12.4185 2.15692 6
    endloop
  endfacet
  facet normal 0.731955 -0.681353 0
    outer loop
      vertex 12.4185 2.15692 6.8
      vertex 12.5141 2.25962 6
      vertex 12.5141 2.25962 6.8
    endloop
  endfacet
  facet normal 0.731955 -0.681353 0
    outer loop
      vertex 12.5141 2.25962 6
      vertex 12.4185 2.15692 6.8
      vertex 12.4185 2.15692 6
    endloop
  endfacet
  facet normal 0.842137 -0.539264 0
    outer loop
      vertex 12.5141 2.25962 6.8
      vertex 12.5884 2.37565 6
      vertex 12.5884 2.37565 6.8
    endloop
  endfacet
  facet normal 0.842137 -0.539264 0
    outer loop
      vertex 12.5884 2.37565 6
      vertex 12.5141 2.25962 6.8
      vertex 12.5141 2.25962 6
    endloop
  endfacet
  facet normal 0.925136 -0.379635 0
    outer loop
      vertex 12.5884 2.37565 6.8
      vertex 12.6415 2.50505 6
      vertex 12.6415 2.50505 6.8
    endloop
  endfacet
  facet normal 0.925136 -0.379635 0
    outer loop
      vertex 12.6415 2.50505 6
      vertex 12.5884 2.37565 6.8
      vertex 12.5884 2.37565 6
    endloop
  endfacet
  facet normal 0.975916 -0.218147 0
    outer loop
      vertex 12.6415 2.50505 6.8
      vertex 12.6734 2.64776 6
      vertex 12.6734 2.64776 6.8
    endloop
  endfacet
  facet normal 0.975916 -0.218147 0
    outer loop
      vertex 12.6734 2.64776 6
      vertex 12.6415 2.50505 6.8
      vertex 12.6415 2.50505 6
    endloop
  endfacet
  facet normal 0.997702 -0.0677578 0
    outer loop
      vertex 12.6734 2.64776 6.8
      vertex 12.684 2.80384 6
      vertex 12.684 2.80384 6.8
    endloop
  endfacet
  facet normal 0.997702 -0.0677578 0
    outer loop
      vertex 12.684 2.80384 6
      vertex 12.6734 2.64776 6.8
      vertex 12.6734 2.64776 6
    endloop
  endfacet
  facet normal 0.997728 0.0673754 0
    outer loop
      vertex 12.684 2.80384 6.8
      vertex 12.6734 2.96081 6
      vertex 12.6734 2.96081 6.8
    endloop
  endfacet
  facet normal 0.997728 0.0673754 0
    outer loop
      vertex 12.6734 2.96081 6
      vertex 12.684 2.80384 6.8
      vertex 12.684 2.80384 6
    endloop
  endfacet
  facet normal 0.975886 0.218282 0
    outer loop
      vertex 12.6734 2.96081 6.8
      vertex 12.6416 3.10298 6
      vertex 12.6416 3.10298 6.8
    endloop
  endfacet
  facet normal 0.975886 0.218282 0
    outer loop
      vertex 12.6416 3.10298 6
      vertex 12.6734 2.96081 6.8
      vertex 12.6734 2.96081 6
    endloop
  endfacet
  facet normal 0.923752 0.382992 0
    outer loop
      vertex 12.6416 3.10298 6.8
      vertex 12.5888 3.23033 6
      vertex 12.5888 3.23033 6.8
    endloop
  endfacet
  facet normal 0.923752 0.382992 0
    outer loop
      vertex 12.5888 3.23033 6
      vertex 12.6416 3.10298 6.8
      vertex 12.6416 3.10298 6
    endloop
  endfacet
  facet normal 0.835188 0.549964 0
    outer loop
      vertex 12.5888 3.23033 6.8
      vertex 12.5147 3.34286 6
      vertex 12.5147 3.34286 6.8
    endloop
  endfacet
  facet normal 0.835188 0.549964 0
    outer loop
      vertex 12.5147 3.34286 6
      vertex 12.5888 3.23033 6.8
      vertex 12.5888 3.23033 6
    endloop
  endfacet
  facet normal 0.716318 0.697774 0
    outer loop
      vertex 12.5147 3.34286 6.8
      vertex 12.4195 3.44059 6
      vertex 12.4195 3.44059 6.8
    endloop
  endfacet
  facet normal 0.716318 0.697774 0
    outer loop
      vertex 12.4195 3.44059 6
      vertex 12.5147 3.34286 6.8
      vertex 12.5147 3.34286 6
    endloop
  endfacet
  facet normal 0.578946 0.815366 -0
    outer loop
      vertex 12.4195 3.44059 6
      vertex 12.305 3.52189 6.8
      vertex 12.4195 3.44059 6.8
    endloop
  endfacet
  facet normal 0.578946 0.815366 0
    outer loop
      vertex 12.305 3.52189 6.8
      vertex 12.4195 3.44059 6
      vertex 12.305 3.52189 6
    endloop
  endfacet
  facet normal 0.432275 0.901742 -0
    outer loop
      vertex 12.305 3.52189 6
      vertex 12.1731 3.58512 6.8
      vertex 12.305 3.52189 6.8
    endloop
  endfacet
  facet normal 0.432275 0.901742 0
    outer loop
      vertex 12.1731 3.58512 6.8
      vertex 12.305 3.52189 6
      vertex 12.1731 3.58512 6
    endloop
  endfacet
  facet normal 0.289582 0.957153 -0
    outer loop
      vertex 12.1731 3.58512 6
      vertex 12.0238 3.63029 6.8
      vertex 12.1731 3.58512 6.8
    endloop
  endfacet
  facet normal 0.289582 0.957153 0
    outer loop
      vertex 12.0238 3.63029 6.8
      vertex 12.1731 3.58512 6
      vertex 12.0238 3.63029 6
    endloop
  endfacet
  facet normal 0.160367 0.987057 -0
    outer loop
      vertex 12.0238 3.63029 6
      vertex 11.857 3.65739 6.8
      vertex 12.0238 3.63029 6.8
    endloop
  endfacet
  facet normal 0.160367 0.987057 0
    outer loop
      vertex 11.857 3.65739 6.8
      vertex 12.0238 3.63029 6
      vertex 11.857 3.65739 6
    endloop
  endfacet
  facet normal 0.0490988 0.998794 -0
    outer loop
      vertex 11.857 3.65739 6
      vertex 11.6729 3.66644 6.8
      vertex 11.857 3.65739 6.8
    endloop
  endfacet
  facet normal 0.0490988 0.998794 0
    outer loop
      vertex 11.6729 3.66644 6.8
      vertex 11.857 3.65739 6
      vertex 11.6729 3.66644 6
    endloop
  endfacet
  facet normal 0 1 -0
    outer loop
      vertex 11.6729 3.66644 6
      vertex 10.4665 3.66644 6.8
      vertex 11.6729 3.66644 6.8
    endloop
  endfacet
  facet normal 0 1 0
    outer loop
      vertex 10.4665 3.66644 6.8
      vertex 11.6729 3.66644 6
      vertex 10.4665 3.66644 6
    endloop
  endfacet
  facet normal -1 0 0
    outer loop
      vertex 10.4665 0.799999 6
      vertex 10.4665 3.66644 6.8
      vertex 10.4665 3.66644 6
    endloop
  endfacet
  facet normal -1 -0 0
    outer loop
      vertex 10.4665 3.66644 6.8
      vertex 10.4665 0.799999 6
      vertex 10.4665 0.799999 6.8
    endloop
  endfacet
  facet normal 0 -1 0
    outer loop
      vertex 10.4665 0.799999 6
      vertex 10.8551 0.799999 6.8
      vertex 10.4665 0.799999 6.8
    endloop
  endfacet
  facet normal 0 -1 -0
    outer loop
      vertex 10.8551 0.799999 6.8
      vertex 10.4665 0.799999 6
      vertex 10.8551 0.799999 6
    endloop
  endfacet
  facet normal 1 -0 0
    outer loop
      vertex 10.8551 0.799999 6.8
      vertex 10.8551 1.91687 6
      vertex 10.8551 1.91687 6.8
    endloop
  endfacet
  facet normal 1 0 0
    outer loop
      vertex 10.8551 1.91687 6
      vertex 10.8551 0.799999 6.8
      vertex 10.8551 0.799999 6
    endloop
  endfacet
  facet normal 1 -0 0
    outer loop
      vertex 10.8551 2.22406 6.8
      vertex 10.8551 3.35518 6
      vertex 10.8551 3.35518 6.8
    endloop
  endfacet
  facet normal 1 0 0
    outer loop
      vertex 10.8551 3.35518 6
      vertex 10.8551 2.22406 6.8
      vertex 10.8551 2.22406 6
    endloop
  endfacet
  facet normal 0 -1 0
    outer loop
      vertex 10.8551 3.35518 6
      vertex 11.6261 3.35518 6.8
      vertex 10.8551 3.35518 6.8
    endloop
  endfacet
  facet normal 0 -1 -0
    outer loop
      vertex 11.6261 3.35518 6.8
      vertex 10.8551 3.35518 6
      vertex 11.6261 3.35518 6
    endloop
  endfacet
  facet normal -0.0920719 -0.995752 0
    outer loop
      vertex 11.6261 3.35518 6
      vertex 11.8663 3.33297 6.8
      vertex 11.6261 3.35518 6.8
    endloop
  endfacet
  facet normal -0.0920719 -0.995752 -0
    outer loop
      vertex 11.8663 3.33297 6.8
      vertex 11.6261 3.35518 6
      vertex 11.8663 3.33297 6
    endloop
  endfacet
  facet normal -0.335889 -0.941901 0
    outer loop
      vertex 11.8663 3.33297 6
      vertex 12.0532 3.26632 6.8
      vertex 11.8663 3.33297 6.8
    endloop
  endfacet
  facet normal -0.335889 -0.941901 -0
    outer loop
      vertex 12.0532 3.26632 6.8
      vertex 11.8663 3.33297 6
      vertex 12.0532 3.26632 6
    endloop
  endfacet
  facet normal -0.63989 -0.768467 0
    outer loop
      vertex 12.0532 3.26632 6
      vertex 12.1866 3.15524 6.8
      vertex 12.0532 3.26632 6.8
    endloop
  endfacet
  facet normal -0.63989 -0.768467 -0
    outer loop
      vertex 12.1866 3.15524 6.8
      vertex 12.0532 3.26632 6
      vertex 12.1866 3.15524 6
    endloop
  endfacet
  facet normal -0.888989 -0.457929 0
    outer loop
      vertex 12.2667 2.99974 6
      vertex 12.1866 3.15524 6.8
      vertex 12.1866 3.15524 6
    endloop
  endfacet
  facet normal -0.888989 -0.457929 0
    outer loop
      vertex 12.1866 3.15524 6.8
      vertex 12.2667 2.99974 6
      vertex 12.2667 2.99974 6.8
    endloop
  endfacet
  facet normal -0.991202 -0.132359 0
    outer loop
      vertex 12.2934 2.79979 6
      vertex 12.2667 2.99974 6.8
      vertex 12.2667 2.99974 6
    endloop
  endfacet
  facet normal -0.991202 -0.132359 0
    outer loop
      vertex 12.2667 2.99974 6.8
      vertex 12.2934 2.79979 6
      vertex 12.2934 2.79979 6.8
    endloop
  endfacet
  facet normal -0.992164 0.124942 0
    outer loop
      vertex 12.2673 2.59253 6
      vertex 12.2934 2.79979 6.8
      vertex 12.2934 2.79979 6
    endloop
  endfacet
  facet normal -0.992164 0.124942 0
    outer loop
      vertex 12.2934 2.79979 6.8
      vertex 12.2673 2.59253 6
      vertex 12.2673 2.59253 6.8
    endloop
  endfacet
  facet normal -0.89994 0.436013 0
    outer loop
      vertex 12.1892 2.43133 6
      vertex 12.2673 2.59253 6.8
      vertex 12.2673 2.59253 6
    endloop
  endfacet
  facet normal -0.89994 0.436013 0
    outer loop
      vertex 12.2673 2.59253 6.8
      vertex 12.1892 2.43133 6
      vertex 12.1892 2.43133 6.8
    endloop
  endfacet
  facet normal -0.662519 0.749045 0
    outer loop
      vertex 12.1892 2.43133 6
      vertex 12.059 2.31617 6.8
      vertex 12.1892 2.43133 6.8
    endloop
  endfacet
  facet normal -0.662519 0.749045 0
    outer loop
      vertex 12.059 2.31617 6.8
      vertex 12.1892 2.43133 6
      vertex 12.059 2.31617 6
    endloop
  endfacet
  facet normal -0.354303 0.935131 0
    outer loop
      vertex 12.059 2.31617 6
      vertex 11.8767 2.2471 6.8
      vertex 12.059 2.31617 6.8
    endloop
  endfacet
  facet normal -0.354303 0.935131 0
    outer loop
      vertex 11.8767 2.2471 6.8
      vertex 12.059 2.31617 6
      vertex 11.8767 2.2471 6
    endloop
  endfacet
  facet normal -0.0978634 0.9952 0
    outer loop
      vertex 11.8767 2.2471 6
      vertex 11.6424 2.22406 6.8
      vertex 11.8767 2.2471 6.8
    endloop
  endfacet
  facet normal -0.0978634 0.9952 0
    outer loop
      vertex 11.6424 2.22406 6.8
      vertex 11.8767 2.2471 6
      vertex 11.6424 2.22406 6
    endloop
  endfacet
  facet normal 0 1 -0
    outer loop
      vertex 11.6424 2.22406 6
      vertex 10.8551 2.22406 6.8
      vertex 11.6424 2.22406 6.8
    endloop
  endfacet
  facet normal 0 1 0
    outer loop
      vertex 10.8551 2.22406 6.8
      vertex 11.6424 2.22406 6
      vertex 10.8551 2.22406 6
    endloop
  endfacet
  facet normal 0 -1 0
    outer loop
      vertex 13.5691 2.12844 6
      vertex 15.1193 2.12844 6.8
      vertex 13.5691 2.12844 6.8
    endloop
  endfacet
  facet normal 0 -1 -0
    outer loop
      vertex 15.1193 2.12844 6.8
      vertex 13.5691 2.12844 6
      vertex 15.1193 2.12844 6
    endloop
  endfacet
  facet normal -1 0 0
    outer loop
      vertex 15.1193 0.799999 6
      vertex 15.1193 2.12844 6.8
      vertex 15.1193 2.12844 6
    endloop
  endfacet
  facet normal -1 -0 0
    outer loop
      vertex 15.1193 2.12844 6.8
      vertex 15.1193 0.799999 6
      vertex 15.1193 0.799999 6.8
    endloop
  endfacet
  facet normal 0 -1 0
    outer loop
      vertex 15.1193 0.799999 6
      vertex 15.5078 0.799999 6.8
      vertex 15.1193 0.799999 6.8
    endloop
  endfacet
  facet normal 0 -1 -0
    outer loop
      vertex 15.5078 0.799999 6.8
      vertex 15.1193 0.799999 6
      vertex 15.5078 0.799999 6
    endloop
  endfacet
  facet normal 1 -0 0
    outer loop
      vertex 15.5078 0.799999 6.8
      vertex 15.5078 3.66644 6
      vertex 15.5078 3.66644 6.8
    endloop
  endfacet
  facet normal 1 0 0
    outer loop
      vertex 15.5078 3.66644 6
      vertex 15.5078 0.799999 6.8
      vertex 15.5078 0.799999 6
    endloop
  endfacet
  facet normal 0 1 -0
    outer loop
      vertex 15.5078 3.66644 6
      vertex 15.1193 3.66644 6.8
      vertex 15.5078 3.66644 6.8
    endloop
  endfacet
  facet normal 0 1 0
    outer loop
      vertex 15.1193 3.66644 6.8
      vertex 15.5078 3.66644 6
      vertex 15.1193 3.66644 6
    endloop
  endfacet
  facet normal -1 0 0
    outer loop
      vertex 15.1193 2.45395 6
      vertex 15.1193 3.66644 6.8
      vertex 15.1193 3.66644 6
    endloop
  endfacet
  facet normal -1 -0 0
    outer loop
      vertex 15.1193 3.66644 6.8
      vertex 15.1193 2.45395 6
      vertex 15.1193 2.45395 6.8
    endloop
  endfacet
  facet normal 0 1 -0
    outer loop
      vertex 15.1193 2.45395 6
      vertex 13.5691 2.45395 6.8
      vertex 15.1193 2.45395 6.8
    endloop
  endfacet
  facet normal 0 1 0
    outer loop
      vertex 13.5691 2.45395 6.8
      vertex 15.1193 2.45395 6
      vertex 13.5691 2.45395 6
    endloop
  endfacet
  facet normal 1 -0 0
    outer loop
      vertex 13.5691 2.45395 6.8
      vertex 13.5691 3.66644 6
      vertex 13.5691 3.66644 6.8
    endloop
  endfacet
  facet normal 1 0 0
    outer loop
      vertex 13.5691 3.66644 6
      vertex 13.5691 2.45395 6.8
      vertex 13.5691 2.45395 6
    endloop
  endfacet
  facet normal 0 1 -0
    outer loop
      vertex 13.5691 3.66644 6
      vertex 13.1805 3.66644 6.8
      vertex 13.5691 3.66644 6.8
    endloop
  endfacet
  facet normal 0 1 0
    outer loop
      vertex 13.1805 3.66644 6.8
      vertex 13.5691 3.66644 6
      vertex 13.1805 3.66644 6
    endloop
  endfacet
  facet normal -1 0 0
    outer loop
      vertex 13.1805 0.799999 6
      vertex 13.1805 3.66644 6.8
      vertex 13.1805 3.66644 6
    endloop
  endfacet
  facet normal -1 -0 0
    outer loop
      vertex 13.1805 3.66644 6.8
      vertex 13.1805 0.799999 6
      vertex 13.1805 0.799999 6.8
    endloop
  endfacet
  facet normal 0 -1 0
    outer loop
      vertex 13.1805 0.799999 6
      vertex 13.5691 0.799999 6.8
      vertex 13.1805 0.799999 6.8
    endloop
  endfacet
  facet normal 0 -1 -0
    outer loop
      vertex 13.5691 0.799999 6.8
      vertex 13.1805 0.799999 6
      vertex 13.5691 0.799999 6
    endloop
  endfacet
  facet normal 1 -0 0
    outer loop
      vertex 13.5691 0.799999 6.8
      vertex 13.5691 2.12844 6
      vertex 13.5691 2.12844 6.8
    endloop
  endfacet
  facet normal 1 0 0
    outer loop
      vertex 13.5691 2.12844 6
      vertex 13.5691 0.799999 6.8
      vertex 13.5691 0.799999 6
    endloop
  endfacet
  facet normal 0 -1 0
    outer loop
      vertex 8 2.03689 6
      vertex 8.84563 2.03689 6.8
      vertex 8 2.03689 6.8
    endloop
  endfacet
  facet normal 0 -1 -0
    outer loop
      vertex 8.84563 2.03689 6.8
      vertex 8 2.03689 6
      vertex 8.84563 2.03689 6
    endloop
  endfacet
  facet normal 1 -0 0
    outer loop
      vertex 8.84563 2.03689 6.8
      vertex 8.84563 2.33392 6
      vertex 8.84563 2.33392 6.8
    endloop
  endfacet
  facet normal 1 0 0
    outer loop
      vertex 8.84563 2.33392 6
      vertex 8.84563 2.03689 6.8
      vertex 8.84563 2.03689 6
    endloop
  endfacet
  facet normal 0 1 -0
    outer loop
      vertex 8.84563 2.33392 6
      vertex 8 2.33392 6.8
      vertex 8.84563 2.33392 6.8
    endloop
  endfacet
  facet normal 0 1 0
    outer loop
      vertex 8 2.33392 6.8
      vertex 8.84563 2.33392 6
      vertex 8 2.33392 6
    endloop
  endfacet
endsolid OpenSCAD_Model
