solid OpenSCAD_Model
  facet normal 1 -0 0
    outer loop
      vertex 44 0 9.2
      vertex 44 24 0
      vertex 44 24 9.2
    endloop
  endfacet
  facet normal 1 0 0
    outer loop
      vertex 44 24 0
      vertex 44 0 9.2
      vertex 44 0 0
    endloop
  endfacet
  facet normal -0 0 1
    outer loop
      vertex 8 24 6
      vertex 36 20 6
      vertex 36 24 6
    endloop
  endfacet
  facet normal 0 0 1
    outer loop
      vertex 36 20 6
      vertex 8 24 6
      vertex 8 20 6
    endloop
  endfacet
  facet normal 0 0 1
    outer loop
      vertex 15.006 2.45395 6
      vertex 13.4558 3.66644 6
      vertex 13.4558 2.45395 6
    endloop
  endfacet
  facet normal 0 0 1
    outer loop
      vertex 15.006 2.12844 6
      vertex 13.4558 2.12844 6
      vertex 15.006 0.799999 6
    endloop
  endfacet
  facet normal 0 0 1
    outer loop
      vertex 15.3946 0.799999 6
      vertex 36 4 6
      vertex 15.3946 3.66644 6
    endloop
  endfacet
  facet normal -0 0 1
    outer loop
      vertex 8 4 6
      vertex 15.3946 3.66644 6
      vertex 36 4 6
    endloop
  endfacet
  facet normal 0 0 1
    outer loop
      vertex 15.006 3.66644 6
      vertex 13.4558 3.66644 6
      vertex 15.006 2.45395 6
    endloop
  endfacet
  facet normal 0 0 1
    outer loop
      vertex 15.3946 3.66644 6
      vertex 8 4 6
      vertex 15.006 3.66644 6
    endloop
  endfacet
  facet normal 0 0 1
    outer loop
      vertex 15.006 3.66644 6
      vertex 8 4 6
      vertex 13.4558 3.66644 6
    endloop
  endfacet
  facet normal 0 0 1
    outer loop
      vertex 12.5601 2.64776 6
      vertex 13.0673 3.66644 6
      vertex 12.5707 2.80384 6
    endloop
  endfacet
  facet normal 0 0 1
    outer loop
      vertex 13.0673 3.66644 6
      vertex 12.5601 2.96081 6
      vertex 12.5707 2.80384 6
    endloop
  endfacet
  facet normal 0 0 1
    outer loop
      vertex 13.0673 3.66644 6
      vertex 12.5284 3.10298 6
      vertex 12.5601 2.96081 6
    endloop
  endfacet
  facet normal 0 0 1
    outer loop
      vertex 13.0673 3.66644 6
      vertex 12.4755 3.23033 6
      vertex 12.5284 3.10298 6
    endloop
  endfacet
  facet normal 0 0 1
    outer loop
      vertex 13.0673 3.66644 6
      vertex 12.4014 3.34286 6
      vertex 12.4755 3.23033 6
    endloop
  endfacet
  facet normal 0 0 1
    outer loop
      vertex 13.0673 3.66644 6
      vertex 12.3062 3.44059 6
      vertex 12.4014 3.34286 6
    endloop
  endfacet
  facet normal 0 0 1
    outer loop
      vertex 13.0673 3.66644 6
      vertex 12.1917 3.52189 6
      vertex 12.3062 3.44059 6
    endloop
  endfacet
  facet normal 0 0 1
    outer loop
      vertex 13.0673 3.66644 6
      vertex 12.0598 3.58512 6
      vertex 12.1917 3.52189 6
    endloop
  endfacet
  facet normal 0 0 1
    outer loop
      vertex 13.0673 3.66644 6
      vertex 11.9105 3.63029 6
      vertex 12.0598 3.58512 6
    endloop
  endfacet
  facet normal 0 0 1
    outer loop
      vertex 13.0673 3.66644 6
      vertex 11.7438 3.65739 6
      vertex 11.9105 3.63029 6
    endloop
  endfacet
  facet normal 0 0 1
    outer loop
      vertex 13.4558 3.66644 6
      vertex 8 4 6
      vertex 13.0673 3.66644 6
    endloop
  endfacet
  facet normal 0 -0 1
    outer loop
      vertex 11.5596 3.66644 6
      vertex 13.0673 3.66644 6
      vertex 8 4 6
    endloop
  endfacet
  facet normal 0 0 1
    outer loop
      vertex 13.0673 3.66644 6
      vertex 11.5596 3.66644 6
      vertex 11.7438 3.65739 6
    endloop
  endfacet
  facet normal 0 0 1
    outer loop
      vertex 10.3533 3.66644 6
      vertex 8.77237 2.23423 6
      vertex 10.3533 0.799999 6
    endloop
  endfacet
  facet normal 0 0 1
    outer loop
      vertex 10.3533 3.66644 6
      vertex 8.76273 2.51205 6
      vertex 8.77237 2.23423 6
    endloop
  endfacet
  facet normal 0 0 1
    outer loop
      vertex 10.3533 3.66644 6
      vertex 8.7338 2.76121 6
      vertex 8.76273 2.51205 6
    endloop
  endfacet
  facet normal 0 0 1
    outer loop
      vertex 10.3533 3.66644 6
      vertex 8.68558 2.98175 6
      vertex 8.7338 2.76121 6
    endloop
  endfacet
  facet normal 0 0 1
    outer loop
      vertex 10.3533 3.66644 6
      vertex 8.61807 3.17363 6
      vertex 8.68558 2.98175 6
    endloop
  endfacet
  facet normal 0 0 1
    outer loop
      vertex 10.3533 3.66644 6
      vertex 8.5313 3.33685 6
      vertex 8.61807 3.17363 6
    endloop
  endfacet
  facet normal 0 0 1
    outer loop
      vertex 10.3533 3.66644 6
      vertex 8.42426 3.47088 6
      vertex 8.5313 3.33685 6
    endloop
  endfacet
  facet normal 0 0 1
    outer loop
      vertex 8 4 6
      vertex 8.42426 3.47088 6
      vertex 10.3533 3.66644 6
    endloop
  endfacet
  facet normal 0 0 1
    outer loop
      vertex 8.42426 3.47088 6
      vertex 8 4 6
      vertex 8.29597 3.57513 6
    endloop
  endfacet
  facet normal 0 0 1
    outer loop
      vertex 11.5596 3.66644 6
      vertex 8 4 6
      vertex 10.3533 3.66644 6
    endloop
  endfacet
  facet normal 0 0 1
    outer loop
      vertex 8.29597 3.57513 6
      vertex 8 4 6
      vertex 8.14645 3.64958 6
    endloop
  endfacet
  facet normal 0 0 1
    outer loop
      vertex 8.14645 3.64958 6
      vertex 8 4 6
      vertex 8 3.6879 6
    endloop
  endfacet
  facet normal 0 0 1
    outer loop
      vertex 36 4 6
      vertex 15.3946 0.799999 6
      vertex 36 0 6
    endloop
  endfacet
  facet normal 0 0 1
    outer loop
      vertex 8 0 6
      vertex 15.3946 0.799999 6
      vertex 15.006 0.799999 6
    endloop
  endfacet
  facet normal 0 0 1
    outer loop
      vertex 13.4558 0.799999 6
      vertex 15.006 0.799999 6
      vertex 13.4558 2.12844 6
    endloop
  endfacet
  facet normal 0 0 1
    outer loop
      vertex 8 0 6
      vertex 15.006 0.799999 6
      vertex 13.4558 0.799999 6
    endloop
  endfacet
  facet normal 0 0 1
    outer loop
      vertex 8 0 6
      vertex 13.4558 0.799999 6
      vertex 13.0673 0.799999 6
    endloop
  endfacet
  facet normal 0 0 1
    outer loop
      vertex 13.0673 3.66644 6
      vertex 12.5601 2.64776 6
      vertex 13.0673 0.799999 6
    endloop
  endfacet
  facet normal -0 0 1
    outer loop
      vertex 12.5282 2.50505 6
      vertex 13.0673 0.799999 6
      vertex 12.5601 2.64776 6
    endloop
  endfacet
  facet normal -0 0 1
    outer loop
      vertex 12.4751 2.37565 6
      vertex 13.0673 0.799999 6
      vertex 12.5282 2.50505 6
    endloop
  endfacet
  facet normal -0 0 1
    outer loop
      vertex 12.4008 2.25962 6
      vertex 13.0673 0.799999 6
      vertex 12.4751 2.37565 6
    endloop
  endfacet
  facet normal -0 0 1
    outer loop
      vertex 12.3052 2.15692 6
      vertex 13.0673 0.799999 6
      vertex 12.4008 2.25962 6
    endloop
  endfacet
  facet normal -0 0 1
    outer loop
      vertex 12.1914 2.07051 6
      vertex 13.0673 0.799999 6
      vertex 12.3052 2.15692 6
    endloop
  endfacet
  facet normal -0 0 1
    outer loop
      vertex 12.0624 2.00328 6
      vertex 13.0673 0.799999 6
      vertex 12.1914 2.07051 6
    endloop
  endfacet
  facet normal -0 0 1
    outer loop
      vertex 11.9182 1.95527 6
      vertex 13.0673 0.799999 6
      vertex 12.0624 2.00328 6
    endloop
  endfacet
  facet normal -0 0 1
    outer loop
      vertex 11.7587 1.92646 6
      vertex 13.0673 0.799999 6
      vertex 11.9182 1.95527 6
    endloop
  endfacet
  facet normal 0 0 1
    outer loop
      vertex 10.7418 0.799999 6
      vertex 11.7587 1.92646 6
      vertex 11.584 1.91687 6
    endloop
  endfacet
  facet normal 0 0 1
    outer loop
      vertex 10.7418 0.799999 6
      vertex 11.584 1.91687 6
      vertex 10.7418 1.91687 6
    endloop
  endfacet
  facet normal 0 0 1
    outer loop
      vertex 11.7587 1.92646 6
      vertex 10.7418 0.799999 6
      vertex 13.0673 0.799999 6
    endloop
  endfacet
  facet normal 0 0 1
    outer loop
      vertex 8 0 6
      vertex 13.0673 0.799999 6
      vertex 10.7418 0.799999 6
    endloop
  endfacet
  facet normal 0 0 1
    outer loop
      vertex 8 0 6
      vertex 10.7418 0.799999 6
      vertex 10.3533 0.799999 6
    endloop
  endfacet
  facet normal -0 0 1
    outer loop
      vertex 8.76224 1.96057 6
      vertex 10.3533 0.799999 6
      vertex 8.77237 2.23423 6
    endloop
  endfacet
  facet normal -0 0 1
    outer loop
      vertex 8.73184 1.71408 6
      vertex 10.3533 0.799999 6
      vertex 8.76224 1.96057 6
    endloop
  endfacet
  facet normal -0 0 1
    outer loop
      vertex 8.68118 1.49478 6
      vertex 10.3533 0.799999 6
      vertex 8.73184 1.71408 6
    endloop
  endfacet
  facet normal -0 0 1
    outer loop
      vertex 8.61026 1.30265 6
      vertex 10.3533 0.799999 6
      vertex 8.68118 1.49478 6
    endloop
  endfacet
  facet normal -0 0 1
    outer loop
      vertex 8.51907 1.13771 6
      vertex 10.3533 0.799999 6
      vertex 8.61026 1.30265 6
    endloop
  endfacet
  facet normal -0 0 1
    outer loop
      vertex 8.40813 1.00148 6
      vertex 10.3533 0.799999 6
      vertex 8.51907 1.13771 6
    endloop
  endfacet
  facet normal 0 0 1
    outer loop
      vertex 8 0 6
      vertex 8.40813 1.00148 6
      vertex 8.27789 0.895535 6
    endloop
  endfacet
  facet normal 0 0 1
    outer loop
      vertex 8 0 6
      vertex 8.27789 0.895535 6
      vertex 8.12839 0.819851 6
    endloop
  endfacet
  facet normal 0 0 1
    outer loop
      vertex 8.40813 1.00148 6
      vertex 8 0 6
      vertex 10.3533 0.799999 6
    endloop
  endfacet
  facet normal 0 0 1
    outer loop
      vertex 8 0 6
      vertex 8.12839 0.819851 6
      vertex 8 0.785326 6
    endloop
  endfacet
  facet normal 0 0 1
    outer loop
      vertex 15.3946 0.799999 6
      vertex 8 0 6
      vertex 36 0 6
    endloop
  endfacet
  facet normal 0 0 1
    outer loop
      vertex 8 3.37289 6
      vertex 8.4001 2.23423 6
      vertex 8.39436 2.46876 6
    endloop
  endfacet
  facet normal 0 0 1
    outer loop
      vertex 8 3.37289 6
      vertex 8.39436 2.46876 6
      vertex 8.37715 2.67593 6
    endloop
  endfacet
  facet normal 0 0 1
    outer loop
      vertex 8 1.10244 6
      vertex 8.4001 2.23423 6
      vertex 8 3.37289 6
    endloop
  endfacet
  facet normal 0 0 1
    outer loop
      vertex 8 3.37289 6
      vertex 8.37715 2.67593 6
      vertex 8.34846 2.85577 6
    endloop
  endfacet
  facet normal 0 0 1
    outer loop
      vertex 8.4001 2.23423 6
      vertex 8 1.10244 6
      vertex 8.39407 2.00735 6
    endloop
  endfacet
  facet normal 0 0 1
    outer loop
      vertex 8 3.37289 6
      vertex 8.34846 2.85577 6
      vertex 8.3083 3.00827 6
    endloop
  endfacet
  facet normal 0 0 1
    outer loop
      vertex 8.39407 2.00735 6
      vertex 8 1.10244 6
      vertex 8.37601 1.80522 6
    endloop
  endfacet
  facet normal 0 0 1
    outer loop
      vertex 8 3.37289 6
      vertex 8.3083 3.00827 6
      vertex 8.25667 3.13342 6
    endloop
  endfacet
  facet normal 0 0 1
    outer loop
      vertex 8.37601 1.80522 6
      vertex 8 1.10244 6
      vertex 8.3459 1.62782 6
    endloop
  endfacet
  facet normal 0 0 1
    outer loop
      vertex 8 3.37289 6
      vertex 8.25667 3.13342 6
      vertex 8.19185 3.23376 6
    endloop
  endfacet
  facet normal 0 0 1
    outer loop
      vertex 8.3459 1.62782 6
      vertex 8 1.10244 6
      vertex 8.30376 1.47515 6
    endloop
  endfacet
  facet normal 0 0 1
    outer loop
      vertex 8 3.37289 6
      vertex 8.19185 3.23376 6
      vertex 8.11215 3.31179 6
    endloop
  endfacet
  facet normal 0 0 1
    outer loop
      vertex 8.30376 1.47515 6
      vertex 8 1.10244 6
      vertex 8.24956 1.34723 6
    endloop
  endfacet
  facet normal 0 0 1
    outer loop
      vertex 8 3.37289 6
      vertex 8.11215 3.31179 6
      vertex 8.01755 3.36753 6
    endloop
  endfacet
  facet normal 0 0 1
    outer loop
      vertex 8.24956 1.34723 6
      vertex 8 1.10244 6
      vertex 8.18243 1.24322 6
    endloop
  endfacet
  facet normal 0 0 1
    outer loop
      vertex 8.18243 1.24322 6
      vertex 8 1.10244 6
      vertex 8.10146 1.16235 6
    endloop
  endfacet
  facet normal 0 0 1
    outer loop
      vertex 8.10146 1.16235 6
      vertex 8 1.10244 6
      vertex 8.00665 1.10456 6
    endloop
  endfacet
  facet normal 0 0 1
    outer loop
      vertex 11.7531 3.33297 6
      vertex 12.1801 2.79979 6
      vertex 12.1534 2.99974 6
    endloop
  endfacet
  facet normal 0 -0 1
    outer loop
      vertex 11.7635 2.2471 6
      vertex 12.1801 2.79979 6
      vertex 11.7531 3.33297 6
    endloop
  endfacet
  facet normal 0 0 1
    outer loop
      vertex 11.9399 3.26632 6
      vertex 12.1534 2.99974 6
      vertex 12.0733 3.15524 6
    endloop
  endfacet
  facet normal 0 0 1
    outer loop
      vertex 12.1534 2.99974 6
      vertex 11.9399 3.26632 6
      vertex 11.7531 3.33297 6
    endloop
  endfacet
  facet normal 0 0 1
    outer loop
      vertex 12.1801 2.79979 6
      vertex 11.7635 2.2471 6
      vertex 12.1541 2.59253 6
    endloop
  endfacet
  facet normal 0 0 1
    outer loop
      vertex 12.1541 2.59253 6
      vertex 11.9457 2.31617 6
      vertex 12.0759 2.43133 6
    endloop
  endfacet
  facet normal 0 -0 1
    outer loop
      vertex 11.9457 2.31617 6
      vertex 12.1541 2.59253 6
      vertex 11.7635 2.2471 6
    endloop
  endfacet
  facet normal 0 0 1
    outer loop
      vertex 11.7531 3.33297 6
      vertex 11.5291 2.22406 6
      vertex 11.7635 2.2471 6
    endloop
  endfacet
  facet normal 0 0 1
    outer loop
      vertex 11.5128 3.35518 6
      vertex 11.5291 2.22406 6
      vertex 11.7531 3.33297 6
    endloop
  endfacet
  facet normal 0 0 1
    outer loop
      vertex 10.7418 2.22406 6
      vertex 11.5128 3.35518 6
      vertex 10.7418 3.35518 6
    endloop
  endfacet
  facet normal 0 0 1
    outer loop
      vertex 11.5128 3.35518 6
      vertex 10.7418 2.22406 6
      vertex 11.5291 2.22406 6
    endloop
  endfacet
  facet normal 0 0 -1
    outer loop
      vertex 0 0 0
      vertex 44 24 0
      vertex 44 0 0
    endloop
  endfacet
  facet normal -0 0 -1
    outer loop
      vertex 44 24 0
      vertex 0 0 0
      vertex 0 24 0
    endloop
  endfacet
  facet normal -1 0 0
    outer loop
      vertex 0 0 0
      vertex 0 24 9.2
      vertex 0 24 0
    endloop
  endfacet
  facet normal -1 -0 0
    outer loop
      vertex 0 24 9.2
      vertex 0 0 0
      vertex 0 0 9.2
    endloop
  endfacet
  facet normal 0 1 0
    outer loop
      vertex 44 24 9.2
      vertex 36 24 6
      vertex 36 24 9.2
    endloop
  endfacet
  facet normal 0 1 0
    outer loop
      vertex 36 24 6
      vertex 44 24 0
      vertex 8 24 6
    endloop
  endfacet
  facet normal 0 1 -0
    outer loop
      vertex 44 24 0
      vertex 36 24 6
      vertex 44 24 9.2
    endloop
  endfacet
  facet normal 0 1 -0
    outer loop
      vertex 8 24 6
      vertex 0 24 9.2
      vertex 8 24 9.2
    endloop
  endfacet
  facet normal 0 1 0
    outer loop
      vertex 8 24 6
      vertex 0 24 0
      vertex 0 24 9.2
    endloop
  endfacet
  facet normal 0 1 0
    outer loop
      vertex 0 24 0
      vertex 8 24 6
      vertex 44 24 0
    endloop
  endfacet
  facet normal 0 -1 0
    outer loop
      vertex 0 0 9.2
      vertex 8 0 6
      vertex 8 0 9.2
    endloop
  endfacet
  facet normal 0 -1 -0
    outer loop
      vertex 8 0 6
      vertex 0 0 0
      vertex 36 0 6
    endloop
  endfacet
  facet normal 0 -1 0
    outer loop
      vertex 0 0 0
      vertex 8 0 6
      vertex 0 0 9.2
    endloop
  endfacet
  facet normal 0 -1 0
    outer loop
      vertex 36 0 6
      vertex 44 0 9.2
      vertex 36 0 9.2
    endloop
  endfacet
  facet normal 0 -1 0
    outer loop
      vertex 36 0 6
      vertex 44 0 0
      vertex 44 0 9.2
    endloop
  endfacet
  facet normal 0 -1 0
    outer loop
      vertex 44 0 0
      vertex 36 0 6
      vertex 0 0 0
    endloop
  endfacet
  facet normal 1 -0 0
    outer loop
      vertex 36 4 14
      vertex 36 20 9.2
      vertex 36 20 14
    endloop
  endfacet
  facet normal 1 0 0
    outer loop
      vertex 36 20 9.2
      vertex 36 4 14
      vertex 36 4 9.2
    endloop
  endfacet
  facet normal -1 0 0
    outer loop
      vertex 36 20 6
      vertex 36 24 9.2
      vertex 36 24 6
    endloop
  endfacet
  facet normal -1 -0 0
    outer loop
      vertex 36 24 9.2
      vertex 36 20 6
      vertex 36 20 9.2
    endloop
  endfacet
  facet normal -1 0 0
    outer loop
      vertex 36 0 6
      vertex 36 4 9.2
      vertex 36 4 6
    endloop
  endfacet
  facet normal -1 -0 0
    outer loop
      vertex 36 4 9.2
      vertex 36 0 6
      vertex 36 0 9.2
    endloop
  endfacet
  facet normal -0 0 1
    outer loop
      vertex 8 20 14
      vertex 36 4 14
      vertex 36 20 14
    endloop
  endfacet
  facet normal 0 0 1
    outer loop
      vertex 36 4 14
      vertex 8 20 14
      vertex 8 4 14
    endloop
  endfacet
  facet normal -1 0 0
    outer loop
      vertex 8 4 9.2
      vertex 8 20 14
      vertex 8 20 9.2
    endloop
  endfacet
  facet normal -1 -0 0
    outer loop
      vertex 8 20 14
      vertex 8 4 9.2
      vertex 8 4 14
    endloop
  endfacet
  facet normal 1 0 0
    outer loop
      vertex 8 4 9.2
      vertex 8 3.6879 6.8
      vertex 8 4 6
    endloop
  endfacet
  facet normal 1 0 0
    outer loop
      vertex 8 4 9.2
      vertex 8 3.37289 6.8
      vertex 8 3.6879 6.8
    endloop
  endfacet
  facet normal 1 0 0
    outer loop
      vertex 8 3.37289 6.8
      vertex 8 1.10244 6.8
      vertex 8 3.37289 6
    endloop
  endfacet
  facet normal 1 0 0
    outer loop
      vertex 8 4 9.2
      vertex 8 1.10244 6.8
      vertex 8 3.37289 6.8
    endloop
  endfacet
  facet normal 1 -0 0
    outer loop
      vertex 8 0 9.2
      vertex 8 1.10244 6.8
      vertex 8 4 9.2
    endloop
  endfacet
  facet normal 1 0 0
    outer loop
      vertex 8 1.10244 6.8
      vertex 8 0 9.2
      vertex 8 0.785326 6.8
    endloop
  endfacet
  facet normal 1 0 0
    outer loop
      vertex 8 0 6
      vertex 8 0.785326 6.8
      vertex 8 0 9.2
    endloop
  endfacet
  facet normal 1 0 0
    outer loop
      vertex 8 0.785326 6.8
      vertex 8 0 6
      vertex 8 0.785326 6
    endloop
  endfacet
  facet normal 1 0 0
    outer loop
      vertex 8 4 6
      vertex 8 3.6879 6.8
      vertex 8 3.6879 6
    endloop
  endfacet
  facet normal 1 0 0
    outer loop
      vertex 8 3.37289 6
      vertex 8 1.10244 6.8
      vertex 8 1.10244 6
    endloop
  endfacet
  facet normal 1 -0 0
    outer loop
      vertex 8 20 9.2
      vertex 8 24 6
      vertex 8 24 9.2
    endloop
  endfacet
  facet normal 1 0 0
    outer loop
      vertex 8 24 6
      vertex 8 20 9.2
      vertex 8 20 6
    endloop
  endfacet
  facet normal 0 1 -0
    outer loop
      vertex 36 20 9.2
      vertex 8 20 14
      vertex 36 20 14
    endloop
  endfacet
  facet normal 0 1 0
    outer loop
      vertex 36 20 9.2
      vertex 8 20 9.2
      vertex 8 20 14
    endloop
  endfacet
  facet normal 0 1 -0
    outer loop
      vertex 36 20 6
      vertex 8 20 9.2
      vertex 36 20 9.2
    endloop
  endfacet
  facet normal 0 1 0
    outer loop
      vertex 8 20 9.2
      vertex 36 20 6
      vertex 8 20 6
    endloop
  endfacet
  facet normal 0 -1 0
    outer loop
      vertex 8 4 9.2
      vertex 36 4 14
      vertex 8 4 14
    endloop
  endfacet
  facet normal 0 -1 0
    outer loop
      vertex 8 4 9.2
      vertex 36 4 9.2
      vertex 36 4 14
    endloop
  endfacet
  facet normal 0 -1 0
    outer loop
      vertex 8 4 6
      vertex 36 4 9.2
      vertex 8 4 9.2
    endloop
  endfacet
  facet normal 0 -1 -0
    outer loop
      vertex 36 4 9.2
      vertex 8 4 6
      vertex 36 4 6
    endloop
  endfacet
  facet normal -0 0 1
    outer loop
      vertex 0 24 9.2
      vertex 8 20 9.2
      vertex 8 24 9.2
    endloop
  endfacet
  facet normal 0 0 1
    outer loop
      vertex 8 20 9.2
      vertex 0 24 9.2
      vertex 8 4 9.2
    endloop
  endfacet
  facet normal 0 0 1
    outer loop
      vertex 0 0 9.2
      vertex 8 4 9.2
      vertex 0 24 9.2
    endloop
  endfacet
  facet normal 0 0 1
    outer loop
      vertex 8 4 9.2
      vertex 0 0 9.2
      vertex 8 0 9.2
    endloop
  endfacet
  facet normal 0 0 1
    outer loop
      vertex 36 20 9.2
      vertex 44 24 9.2
      vertex 36 24 9.2
    endloop
  endfacet
  facet normal 0 0 1
    outer loop
      vertex 44 24 9.2
      vertex 36 20 9.2
      vertex 44 0 9.2
    endloop
  endfacet
  facet normal -0 0 1
    outer loop
      vertex 36 4 9.2
      vertex 44 0 9.2
      vertex 36 20 9.2
    endloop
  endfacet
  facet normal 0 0 1
    outer loop
      vertex 44 0 9.2
      vertex 36 4 9.2
      vertex 36 0 9.2
    endloop
  endfacet
  facet normal 0 0 1
    outer loop
      vertex 12.1801 2.79979 6.8
      vertex 12.5707 2.80384 6.8
      vertex 12.5601 2.96081 6.8
    endloop
  endfacet
  facet normal -0 0 1
    outer loop
      vertex 12.1534 2.99974 6.8
      vertex 12.5601 2.96081 6.8
      vertex 12.5284 3.10298 6.8
    endloop
  endfacet
  facet normal 0 0 1
    outer loop
      vertex 12.5707 2.80384 6.8
      vertex 12.1801 2.79979 6.8
      vertex 12.5601 2.64776 6.8
    endloop
  endfacet
  facet normal 0 0 1
    outer loop
      vertex 12.1534 2.99974 6.8
      vertex 12.5284 3.10298 6.8
      vertex 12.4755 3.23033 6.8
    endloop
  endfacet
  facet normal 0 0 1
    outer loop
      vertex 12.1541 2.59253 6.8
      vertex 12.5601 2.64776 6.8
      vertex 12.1801 2.79979 6.8
    endloop
  endfacet
  facet normal 0 0 1
    outer loop
      vertex 12.0733 3.15524 6.8
      vertex 12.4755 3.23033 6.8
      vertex 12.4014 3.34286 6.8
    endloop
  endfacet
  facet normal 0 0 1
    outer loop
      vertex 12.5601 2.64776 6.8
      vertex 12.1541 2.59253 6.8
      vertex 12.5282 2.50505 6.8
    endloop
  endfacet
  facet normal 0 0 1
    outer loop
      vertex 12.0733 3.15524 6.8
      vertex 12.4014 3.34286 6.8
      vertex 12.3062 3.44059 6.8
    endloop
  endfacet
  facet normal 0 0 1
    outer loop
      vertex 12.5282 2.50505 6.8
      vertex 12.1541 2.59253 6.8
      vertex 12.4751 2.37565 6.8
    endloop
  endfacet
  facet normal 0 0 1
    outer loop
      vertex 12.0733 3.15524 6.8
      vertex 12.3062 3.44059 6.8
      vertex 12.1917 3.52189 6.8
    endloop
  endfacet
  facet normal -0 0 1
    outer loop
      vertex 12.0759 2.43133 6.8
      vertex 12.4751 2.37565 6.8
      vertex 12.1541 2.59253 6.8
    endloop
  endfacet
  facet normal 0 0 1
    outer loop
      vertex 12.4751 2.37565 6.8
      vertex 12.0759 2.43133 6.8
      vertex 12.4008 2.25962 6.8
    endloop
  endfacet
  facet normal 0 0 1
    outer loop
      vertex 12.5601 2.96081 6.8
      vertex 12.1534 2.99974 6.8
      vertex 12.1801 2.79979 6.8
    endloop
  endfacet
  facet normal 0 0 1
    outer loop
      vertex 12.4755 3.23033 6.8
      vertex 12.0733 3.15524 6.8
      vertex 12.1534 2.99974 6.8
    endloop
  endfacet
  facet normal 0 0 1
    outer loop
      vertex 11.9399 3.26632 6.8
      vertex 12.1917 3.52189 6.8
      vertex 12.0598 3.58512 6.8
    endloop
  endfacet
  facet normal 0 0 1
    outer loop
      vertex 12.1917 3.52189 6.8
      vertex 11.9399 3.26632 6.8
      vertex 12.0733 3.15524 6.8
    endloop
  endfacet
  facet normal 0 0 1
    outer loop
      vertex 11.9105 3.63029 6.8
      vertex 11.9399 3.26632 6.8
      vertex 12.0598 3.58512 6.8
    endloop
  endfacet
  facet normal 0 0 1
    outer loop
      vertex 11.9105 3.63029 6.8
      vertex 11.7531 3.33297 6.8
      vertex 11.9399 3.26632 6.8
    endloop
  endfacet
  facet normal 0 0 1
    outer loop
      vertex 11.7438 3.65739 6.8
      vertex 11.7531 3.33297 6.8
      vertex 11.9105 3.63029 6.8
    endloop
  endfacet
  facet normal 0 0 1
    outer loop
      vertex 11.5128 3.35518 6.8
      vertex 11.7438 3.65739 6.8
      vertex 11.5596 3.66644 6.8
    endloop
  endfacet
  facet normal 0 0 1
    outer loop
      vertex 11.7438 3.65739 6.8
      vertex 11.5128 3.35518 6.8
      vertex 11.7531 3.33297 6.8
    endloop
  endfacet
  facet normal 0 0 1
    outer loop
      vertex 11.5596 3.66644 6.8
      vertex 10.7418 3.35518 6.8
      vertex 11.5128 3.35518 6.8
    endloop
  endfacet
  facet normal 0 0 1
    outer loop
      vertex 10.3533 3.66644 6.8
      vertex 10.7418 2.22406 6.8
      vertex 10.7418 3.35518 6.8
    endloop
  endfacet
  facet normal 0 0 1
    outer loop
      vertex 10.3533 0.799999 6.8
      vertex 10.7418 2.22406 6.8
      vertex 10.3533 3.66644 6.8
    endloop
  endfacet
  facet normal -0 0 1
    outer loop
      vertex 10.3533 3.66644 6.8
      vertex 10.7418 3.35518 6.8
      vertex 11.5596 3.66644 6.8
    endloop
  endfacet
  facet normal 0 0 1
    outer loop
      vertex 10.7418 2.22406 6.8
      vertex 10.3533 0.799999 6.8
      vertex 10.7418 1.91687 6.8
    endloop
  endfacet
  facet normal 0 0 1
    outer loop
      vertex 10.7418 1.91687 6.8
      vertex 10.3533 0.799999 6.8
      vertex 10.7418 0.799999 6.8
    endloop
  endfacet
  facet normal 0 0 1
    outer loop
      vertex 12.4008 2.25962 6.8
      vertex 12.0759 2.43133 6.8
      vertex 12.3052 2.15692 6.8
    endloop
  endfacet
  facet normal 0 0 1
    outer loop
      vertex 12.3052 2.15692 6.8
      vertex 12.0759 2.43133 6.8
      vertex 12.1914 2.07051 6.8
    endloop
  endfacet
  facet normal -0 0 1
    outer loop
      vertex 11.9457 2.31617 6.8
      vertex 12.1914 2.07051 6.8
      vertex 12.0759 2.43133 6.8
    endloop
  endfacet
  facet normal 0 0 1
    outer loop
      vertex 12.1914 2.07051 6.8
      vertex 11.9457 2.31617 6.8
      vertex 12.0624 2.00328 6.8
    endloop
  endfacet
  facet normal 0 0 1
    outer loop
      vertex 11.9457 2.31617 6.8
      vertex 11.9182 1.95527 6.8
      vertex 12.0624 2.00328 6.8
    endloop
  endfacet
  facet normal -0 0 1
    outer loop
      vertex 11.7635 2.2471 6.8
      vertex 11.9182 1.95527 6.8
      vertex 11.9457 2.31617 6.8
    endloop
  endfacet
  facet normal 0 0 1
    outer loop
      vertex 11.7635 2.2471 6.8
      vertex 11.7587 1.92646 6.8
      vertex 11.9182 1.95527 6.8
    endloop
  endfacet
  facet normal 0 0 1
    outer loop
      vertex 11.7635 2.2471 6.8
      vertex 11.584 1.91687 6.8
      vertex 11.7587 1.92646 6.8
    endloop
  endfacet
  facet normal -0 0 1
    outer loop
      vertex 11.5291 2.22406 6.8
      vertex 11.584 1.91687 6.8
      vertex 11.7635 2.2471 6.8
    endloop
  endfacet
  facet normal 0 0 1
    outer loop
      vertex 10.7418 1.91687 6.8
      vertex 11.5291 2.22406 6.8
      vertex 10.7418 2.22406 6.8
    endloop
  endfacet
  facet normal 0 0 1
    outer loop
      vertex 11.5291 2.22406 6.8
      vertex 10.7418 1.91687 6.8
      vertex 11.584 1.91687 6.8
    endloop
  endfacet
  facet normal -0 0 1
    outer loop
      vertex 8.39436 2.46876 6.8
      vertex 8.77237 2.23423 6.8
      vertex 8.76273 2.51205 6.8
    endloop
  endfacet
  facet normal -0 0 1
    outer loop
      vertex 8.37715 2.67593 6.8
      vertex 8.76273 2.51205 6.8
      vertex 8.7338 2.76121 6.8
    endloop
  endfacet
  facet normal 0 0 1
    outer loop
      vertex 8.39407 2.00735 6.8
      vertex 8.77237 2.23423 6.8
      vertex 8.4001 2.23423 6.8
    endloop
  endfacet
  facet normal -0 0 1
    outer loop
      vertex 8.34846 2.85577 6.8
      vertex 8.7338 2.76121 6.8
      vertex 8.68558 2.98175 6.8
    endloop
  endfacet
  facet normal 0 0 1
    outer loop
      vertex 8.77237 2.23423 6.8
      vertex 8.39407 2.00735 6.8
      vertex 8.76224 1.96057 6.8
    endloop
  endfacet
  facet normal -0 0 1
    outer loop
      vertex 8.3083 3.00827 6.8
      vertex 8.68558 2.98175 6.8
      vertex 8.61807 3.17363 6.8
    endloop
  endfacet
  facet normal 0 0 1
    outer loop
      vertex 8.37601 1.80522 6.8
      vertex 8.76224 1.96057 6.8
      vertex 8.39407 2.00735 6.8
    endloop
  endfacet
  facet normal 0 0 1
    outer loop
      vertex 8.25667 3.13342 6.8
      vertex 8.61807 3.17363 6.8
      vertex 8.5313 3.33685 6.8
    endloop
  endfacet
  facet normal 0 0 1
    outer loop
      vertex 8.76224 1.96057 6.8
      vertex 8.37601 1.80522 6.8
      vertex 8.73184 1.71408 6.8
    endloop
  endfacet
  facet normal 0 0 1
    outer loop
      vertex 8.19185 3.23376 6.8
      vertex 8.5313 3.33685 6.8
      vertex 8.42426 3.47088 6.8
    endloop
  endfacet
  facet normal 0 0 1
    outer loop
      vertex 8.77237 2.23423 6.8
      vertex 8.39436 2.46876 6.8
      vertex 8.4001 2.23423 6.8
    endloop
  endfacet
  facet normal 0 0 1
    outer loop
      vertex 8.73184 1.71408 6.8
      vertex 8.3459 1.62782 6.8
      vertex 8.68118 1.49478 6.8
    endloop
  endfacet
  facet normal 0 0 1
    outer loop
      vertex 8.3459 1.62782 6.8
      vertex 8.73184 1.71408 6.8
      vertex 8.37601 1.80522 6.8
    endloop
  endfacet
  facet normal 0 0 1
    outer loop
      vertex 8.76273 2.51205 6.8
      vertex 8.37715 2.67593 6.8
      vertex 8.39436 2.46876 6.8
    endloop
  endfacet
  facet normal 0 0 1
    outer loop
      vertex 8.7338 2.76121 6.8
      vertex 8.34846 2.85577 6.8
      vertex 8.37715 2.67593 6.8
    endloop
  endfacet
  facet normal 0 0 1
    outer loop
      vertex 8.68558 2.98175 6.8
      vertex 8.3083 3.00827 6.8
      vertex 8.34846 2.85577 6.8
    endloop
  endfacet
  facet normal 0 0 1
    outer loop
      vertex 8.11215 3.31179 6.8
      vertex 8.42426 3.47088 6.8
      vertex 8.29597 3.57513 6.8
    endloop
  endfacet
  facet normal 0 0 1
    outer loop
      vertex 8.61807 3.17363 6.8
      vertex 8.25667 3.13342 6.8
      vertex 8.3083 3.00827 6.8
    endloop
  endfacet
  facet normal 0 0 1
    outer loop
      vertex 8.5313 3.33685 6.8
      vertex 8.19185 3.23376 6.8
      vertex 8.25667 3.13342 6.8
    endloop
  endfacet
  facet normal 0 0 1
    outer loop
      vertex 8.11215 3.31179 6.8
      vertex 8.29597 3.57513 6.8
      vertex 8.14645 3.64958 6.8
    endloop
  endfacet
  facet normal 0 0 1
    outer loop
      vertex 8.42426 3.47088 6.8
      vertex 8.11215 3.31179 6.8
      vertex 8.19185 3.23376 6.8
    endloop
  endfacet
  facet normal 0 0 1
    outer loop
      vertex 8.14645 3.64958 6.8
      vertex 8.01755 3.36753 6.8
      vertex 8.11215 3.31179 6.8
    endloop
  endfacet
  facet normal 0 0 1
    outer loop
      vertex 8 3.37289 6.8
      vertex 8.14645 3.64958 6.8
      vertex 8 3.6879 6.8
    endloop
  endfacet
  facet normal 0 0 1
    outer loop
      vertex 8.14645 3.64958 6.8
      vertex 8 3.37289 6.8
      vertex 8.01755 3.36753 6.8
    endloop
  endfacet
  facet normal 0 0 1
    outer loop
      vertex 8.30376 1.47515 6.8
      vertex 8.68118 1.49478 6.8
      vertex 8.3459 1.62782 6.8
    endloop
  endfacet
  facet normal 0 0 1
    outer loop
      vertex 8.68118 1.49478 6.8
      vertex 8.30376 1.47515 6.8
      vertex 8.61026 1.30265 6.8
    endloop
  endfacet
  facet normal -0 0 1
    outer loop
      vertex 8.24956 1.34723 6.8
      vertex 8.61026 1.30265 6.8
      vertex 8.30376 1.47515 6.8
    endloop
  endfacet
  facet normal 0 0 1
    outer loop
      vertex 8.61026 1.30265 6.8
      vertex 8.24956 1.34723 6.8
      vertex 8.51907 1.13771 6.8
    endloop
  endfacet
  facet normal -0 0 1
    outer loop
      vertex 8.18243 1.24322 6.8
      vertex 8.51907 1.13771 6.8
      vertex 8.24956 1.34723 6.8
    endloop
  endfacet
  facet normal 0 0 1
    outer loop
      vertex 8.51907 1.13771 6.8
      vertex 8.18243 1.24322 6.8
      vertex 8.40813 1.00148 6.8
    endloop
  endfacet
  facet normal -0 0 1
    outer loop
      vertex 8.10146 1.16235 6.8
      vertex 8.40813 1.00148 6.8
      vertex 8.18243 1.24322 6.8
    endloop
  endfacet
  facet normal 0 0 1
    outer loop
      vertex 8.40813 1.00148 6.8
      vertex 8.10146 1.16235 6.8
      vertex 8.27789 0.895535 6.8
    endloop
  endfacet
  facet normal -0 0 1
    outer loop
      vertex 8.00665 1.10456 6.8
      vertex 8.27789 0.895535 6.8
      vertex 8.10146 1.16235 6.8
    endloop
  endfacet
  facet normal 0 0 1
    outer loop
      vertex 8.27789 0.895535 6.8
      vertex 8.00665 1.10456 6.8
      vertex 8.12839 0.819851 6.8
    endloop
  endfacet
  facet normal -0 0 1
    outer loop
      vertex 8 1.10244 6.8
      vertex 8.12839 0.819851 6.8
      vertex 8.00665 1.10456 6.8
    endloop
  endfacet
  facet normal 0 0 1
    outer loop
      vertex 8.12839 0.819851 6.8
      vertex 8 1.10244 6.8
      vertex 8 0.785326 6.8
    endloop
  endfacet
  facet normal -0 0 1
    outer loop
      vertex 13.0673 3.66644 6.8
      vertex 13.4558 2.45395 6.8
      vertex 13.4558 3.66644 6.8
    endloop
  endfacet
  facet normal 0 0 1
    outer loop
      vertex 13.4558 2.45395 6.8
      vertex 13.0673 3.66644 6.8
      vertex 13.4558 2.12844 6.8
    endloop
  endfacet
  facet normal 0 0 1
    outer loop
      vertex 13.0673 0.799999 6.8
      vertex 13.4558 2.12844 6.8
      vertex 13.0673 3.66644 6.8
    endloop
  endfacet
  facet normal 0 0 1
    outer loop
      vertex 13.4558 2.12844 6.8
      vertex 13.0673 0.799999 6.8
      vertex 13.4558 0.799999 6.8
    endloop
  endfacet
  facet normal -0 0 1
    outer loop
      vertex 13.4558 2.45395 6.8
      vertex 15.006 2.12844 6.8
      vertex 15.006 2.45395 6.8
    endloop
  endfacet
  facet normal 0 0 1
    outer loop
      vertex 15.006 2.12844 6.8
      vertex 13.4558 2.45395 6.8
      vertex 13.4558 2.12844 6.8
    endloop
  endfacet
  facet normal 0 0 1
    outer loop
      vertex 15.006 2.45395 6.8
      vertex 15.3946 3.66644 6.8
      vertex 15.006 3.66644 6.8
    endloop
  endfacet
  facet normal 0 0 1
    outer loop
      vertex 15.006 2.12844 6.8
      vertex 15.3946 3.66644 6.8
      vertex 15.006 2.45395 6.8
    endloop
  endfacet
  facet normal 0 0 1
    outer loop
      vertex 15.3946 3.66644 6.8
      vertex 15.006 2.12844 6.8
      vertex 15.3946 0.799999 6.8
    endloop
  endfacet
  facet normal 0 0 1
    outer loop
      vertex 15.3946 0.799999 6.8
      vertex 15.006 2.12844 6.8
      vertex 15.006 0.799999 6.8
    endloop
  endfacet
  facet normal 0.259682 -0.965694 0
    outer loop
      vertex 8 0.785326 6
      vertex 8.12839 0.819851 6.8
      vertex 8 0.785326 6.8
    endloop
  endfacet
  facet normal 0.259682 -0.965694 0
    outer loop
      vertex 8.12839 0.819851 6.8
      vertex 8 0.785326 6
      vertex 8.12839 0.819851 6
    endloop
  endfacet
  facet normal 0.451667 -0.892187 0
    outer loop
      vertex 8.12839 0.819851 6
      vertex 8.27789 0.895535 6.8
      vertex 8.12839 0.819851 6.8
    endloop
  endfacet
  facet normal 0.451667 -0.892187 0
    outer loop
      vertex 8.27789 0.895535 6.8
      vertex 8.12839 0.819851 6
      vertex 8.27789 0.895535 6
    endloop
  endfacet
  facet normal 0.631041 -0.775749 0
    outer loop
      vertex 8.27789 0.895535 6
      vertex 8.40813 1.00148 6.8
      vertex 8.27789 0.895535 6.8
    endloop
  endfacet
  facet normal 0.631041 -0.775749 0
    outer loop
      vertex 8.40813 1.00148 6.8
      vertex 8.27789 0.895535 6
      vertex 8.40813 1.00148 6
    endloop
  endfacet
  facet normal 0.775408 -0.63146 0
    outer loop
      vertex 8.40813 1.00148 6.8
      vertex 8.51907 1.13771 6
      vertex 8.51907 1.13771 6.8
    endloop
  endfacet
  facet normal 0.775408 -0.63146 0
    outer loop
      vertex 8.51907 1.13771 6
      vertex 8.40813 1.00148 6.8
      vertex 8.40813 1.00148 6
    endloop
  endfacet
  facet normal 0.875154 -0.483844 0
    outer loop
      vertex 8.51907 1.13771 6.8
      vertex 8.61026 1.30265 6
      vertex 8.61026 1.30265 6.8
    endloop
  endfacet
  facet normal 0.875154 -0.483844 0
    outer loop
      vertex 8.61026 1.30265 6
      vertex 8.51907 1.13771 6.8
      vertex 8.51907 1.13771 6
    endloop
  endfacet
  facet normal 0.938129 -0.346287 0
    outer loop
      vertex 8.61026 1.30265 6.8
      vertex 8.68118 1.49478 6
      vertex 8.68118 1.49478 6.8
    endloop
  endfacet
  facet normal 0.938129 -0.346287 0
    outer loop
      vertex 8.68118 1.49478 6
      vertex 8.61026 1.30265 6.8
      vertex 8.61026 1.30265 6
    endloop
  endfacet
  facet normal 0.97434 -0.22508 0
    outer loop
      vertex 8.68118 1.49478 6.8
      vertex 8.73184 1.71408 6
      vertex 8.73184 1.71408 6.8
    endloop
  endfacet
  facet normal 0.97434 -0.22508 0
    outer loop
      vertex 8.73184 1.71408 6
      vertex 8.68118 1.49478 6.8
      vertex 8.68118 1.49478 6
    endloop
  endfacet
  facet normal 0.99248 -0.122404 0
    outer loop
      vertex 8.73184 1.71408 6.8
      vertex 8.76224 1.96057 6
      vertex 8.76224 1.96057 6.8
    endloop
  endfacet
  facet normal 0.99248 -0.122404 0
    outer loop
      vertex 8.76224 1.96057 6
      vertex 8.73184 1.71408 6.8
      vertex 8.73184 1.71408 6
    endloop
  endfacet
  facet normal 0.999316 -0.0369914 0
    outer loop
      vertex 8.76224 1.96057 6.8
      vertex 8.77237 2.23423 6
      vertex 8.77237 2.23423 6.8
    endloop
  endfacet
  facet normal 0.999316 -0.0369914 0
    outer loop
      vertex 8.77237 2.23423 6
      vertex 8.76224 1.96057 6.8
      vertex 8.76224 1.96057 6
    endloop
  endfacet
  facet normal 0.999399 0.0346779 0
    outer loop
      vertex 8.77237 2.23423 6.8
      vertex 8.76273 2.51205 6
      vertex 8.76273 2.51205 6.8
    endloop
  endfacet
  facet normal 0.999399 0.0346779 0
    outer loop
      vertex 8.76273 2.51205 6
      vertex 8.77237 2.23423 6.8
      vertex 8.77237 2.23423 6
    endloop
  endfacet
  facet normal 0.993327 0.115335 0
    outer loop
      vertex 8.76273 2.51205 6.8
      vertex 8.7338 2.76121 6
      vertex 8.7338 2.76121 6.8
    endloop
  endfacet
  facet normal 0.993327 0.115335 0
    outer loop
      vertex 8.7338 2.76121 6
      vertex 8.76273 2.51205 6.8
      vertex 8.76273 2.51205 6
    endloop
  endfacet
  facet normal 0.976921 0.213599 0
    outer loop
      vertex 8.7338 2.76121 6.8
      vertex 8.68558 2.98175 6
      vertex 8.68558 2.98175 6.8
    endloop
  endfacet
  facet normal 0.976921 0.213599 0
    outer loop
      vertex 8.68558 2.98175 6
      vertex 8.7338 2.76121 6.8
      vertex 8.7338 2.76121 6
    endloop
  endfacet
  facet normal 0.943318 0.331892 0
    outer loop
      vertex 8.68558 2.98175 6.8
      vertex 8.61807 3.17363 6
      vertex 8.61807 3.17363 6.8
    endloop
  endfacet
  facet normal 0.943318 0.331892 0
    outer loop
      vertex 8.61807 3.17363 6
      vertex 8.68558 2.98175 6.8
      vertex 8.68558 2.98175 6
    endloop
  endfacet
  facet normal 0.882983 0.469406 0
    outer loop
      vertex 8.61807 3.17363 6.8
      vertex 8.5313 3.33685 6
      vertex 8.5313 3.33685 6.8
    endloop
  endfacet
  facet normal 0.882983 0.469406 0
    outer loop
      vertex 8.5313 3.33685 6
      vertex 8.61807 3.17363 6.8
      vertex 8.61807 3.17363 6
    endloop
  endfacet
  facet normal 0.781392 0.624041 0
    outer loop
      vertex 8.5313 3.33685 6.8
      vertex 8.42426 3.47088 6
      vertex 8.42426 3.47088 6.8
    endloop
  endfacet
  facet normal 0.781392 0.624041 0
    outer loop
      vertex 8.42426 3.47088 6
      vertex 8.5313 3.33685 6.8
      vertex 8.5313 3.33685 6
    endloop
  endfacet
  facet normal 0.630645 0.776071 -0
    outer loop
      vertex 8.42426 3.47088 6
      vertex 8.29597 3.57513 6.8
      vertex 8.42426 3.47088 6.8
    endloop
  endfacet
  facet normal 0.630645 0.776071 0
    outer loop
      vertex 8.29597 3.57513 6.8
      vertex 8.42426 3.47088 6
      vertex 8.29597 3.57513 6
    endloop
  endfacet
  facet normal 0.445728 0.895168 -0
    outer loop
      vertex 8.29597 3.57513 6
      vertex 8.14645 3.64958 6.8
      vertex 8.29597 3.57513 6.8
    endloop
  endfacet
  facet normal 0.445728 0.895168 0
    outer loop
      vertex 8.14645 3.64958 6.8
      vertex 8.29597 3.57513 6
      vertex 8.14645 3.64958 6
    endloop
  endfacet
  facet normal 0.253137 0.96743 -0
    outer loop
      vertex 8.14645 3.64958 6
      vertex 8 3.6879 6.8
      vertex 8.14645 3.64958 6.8
    endloop
  endfacet
  facet normal 0.253137 0.96743 0
    outer loop
      vertex 8 3.6879 6.8
      vertex 8.14645 3.64958 6
      vertex 8 3.6879 6
    endloop
  endfacet
  facet normal -0.292094 -0.95639 0
    outer loop
      vertex 8 3.37289 6
      vertex 8.01755 3.36753 6.8
      vertex 8 3.37289 6.8
    endloop
  endfacet
  facet normal -0.292094 -0.95639 -0
    outer loop
      vertex 8.01755 3.36753 6.8
      vertex 8 3.37289 6
      vertex 8.01755 3.36753 6
    endloop
  endfacet
  facet normal -0.507649 -0.861564 0
    outer loop
      vertex 8.01755 3.36753 6
      vertex 8.11215 3.31179 6.8
      vertex 8.01755 3.36753 6.8
    endloop
  endfacet
  facet normal -0.507649 -0.861564 -0
    outer loop
      vertex 8.11215 3.31179 6.8
      vertex 8.01755 3.36753 6
      vertex 8.11215 3.31179 6
    endloop
  endfacet
  facet normal -0.699581 -0.714553 0
    outer loop
      vertex 8.11215 3.31179 6
      vertex 8.19185 3.23376 6.8
      vertex 8.11215 3.31179 6.8
    endloop
  endfacet
  facet normal -0.699581 -0.714553 -0
    outer loop
      vertex 8.19185 3.23376 6.8
      vertex 8.11215 3.31179 6
      vertex 8.19185 3.23376 6
    endloop
  endfacet
  facet normal -0.839974 -0.542626 0
    outer loop
      vertex 8.25667 3.13342 6
      vertex 8.19185 3.23376 6.8
      vertex 8.19185 3.23376 6
    endloop
  endfacet
  facet normal -0.839974 -0.542626 0
    outer loop
      vertex 8.19185 3.23376 6.8
      vertex 8.25667 3.13342 6
      vertex 8.25667 3.13342 6.8
    endloop
  endfacet
  facet normal -0.924424 -0.381366 0
    outer loop
      vertex 8.3083 3.00827 6
      vertex 8.25667 3.13342 6.8
      vertex 8.25667 3.13342 6
    endloop
  endfacet
  facet normal -0.924424 -0.381366 0
    outer loop
      vertex 8.25667 3.13342 6.8
      vertex 8.3083 3.00827 6
      vertex 8.3083 3.00827 6.8
    endloop
  endfacet
  facet normal -0.96703 -0.254662 0
    outer loop
      vertex 8.34846 2.85577 6
      vertex 8.3083 3.00827 6.8
      vertex 8.3083 3.00827 6
    endloop
  endfacet
  facet normal -0.96703 -0.254662 0
    outer loop
      vertex 8.3083 3.00827 6.8
      vertex 8.34846 2.85577 6
      vertex 8.34846 2.85577 6.8
    endloop
  endfacet
  facet normal -0.987513 -0.157539 0
    outer loop
      vertex 8.37715 2.67593 6
      vertex 8.34846 2.85577 6.8
      vertex 8.34846 2.85577 6
    endloop
  endfacet
  facet normal -0.987513 -0.157539 0
    outer loop
      vertex 8.34846 2.85577 6.8
      vertex 8.37715 2.67593 6
      vertex 8.37715 2.67593 6.8
    endloop
  endfacet
  facet normal -0.996567 -0.0827867 0
    outer loop
      vertex 8.39436 2.46876 6
      vertex 8.37715 2.67593 6.8
      vertex 8.37715 2.67593 6
    endloop
  endfacet
  facet normal -0.996567 -0.0827867 0
    outer loop
      vertex 8.37715 2.67593 6.8
      vertex 8.39436 2.46876 6
      vertex 8.39436 2.46876 6.8
    endloop
  endfacet
  facet normal -0.999701 -0.0244672 0
    outer loop
      vertex 8.4001 2.23423 6
      vertex 8.39436 2.46876 6.8
      vertex 8.39436 2.46876 6
    endloop
  endfacet
  facet normal -0.999701 -0.0244672 0
    outer loop
      vertex 8.39436 2.46876 6.8
      vertex 8.4001 2.23423 6
      vertex 8.4001 2.23423 6.8
    endloop
  endfacet
  facet normal -0.999647 0.0265685 0
    outer loop
      vertex 8.39407 2.00735 6
      vertex 8.4001 2.23423 6.8
      vertex 8.4001 2.23423 6
    endloop
  endfacet
  facet normal -0.999647 0.0265685 0
    outer loop
      vertex 8.4001 2.23423 6.8
      vertex 8.39407 2.00735 6
      vertex 8.39407 2.00735 6.8
    endloop
  endfacet
  facet normal -0.996032 0.0889939 0
    outer loop
      vertex 8.37601 1.80522 6
      vertex 8.39407 2.00735 6.8
      vertex 8.39407 2.00735 6
    endloop
  endfacet
  facet normal -0.996032 0.0889939 0
    outer loop
      vertex 8.39407 2.00735 6.8
      vertex 8.37601 1.80522 6
      vertex 8.37601 1.80522 6.8
    endloop
  endfacet
  facet normal -0.9859 0.167336 0
    outer loop
      vertex 8.3459 1.62782 6
      vertex 8.37601 1.80522 6.8
      vertex 8.37601 1.80522 6
    endloop
  endfacet
  facet normal -0.9859 0.167336 0
    outer loop
      vertex 8.37601 1.80522 6.8
      vertex 8.3459 1.62782 6
      vertex 8.3459 1.62782 6.8
    endloop
  endfacet
  facet normal -0.963954 0.266071 0
    outer loop
      vertex 8.30376 1.47515 6
      vertex 8.3459 1.62782 6.8
      vertex 8.3459 1.62782 6
    endloop
  endfacet
  facet normal -0.963954 0.266071 0
    outer loop
      vertex 8.3459 1.62782 6.8
      vertex 8.30376 1.47515 6
      vertex 8.30376 1.47515 6.8
    endloop
  endfacet
  facet normal -0.92076 0.390128 0
    outer loop
      vertex 8.24956 1.34723 6
      vertex 8.30376 1.47515 6.8
      vertex 8.30376 1.47515 6
    endloop
  endfacet
  facet normal -0.92076 0.390128 0
    outer loop
      vertex 8.30376 1.47515 6.8
      vertex 8.24956 1.34723 6
      vertex 8.24956 1.34723 6.8
    endloop
  endfacet
  facet normal -0.840198 0.54228 0
    outer loop
      vertex 8.18243 1.24322 6
      vertex 8.24956 1.34723 6.8
      vertex 8.24956 1.34723 6
    endloop
  endfacet
  facet normal -0.840198 0.54228 0
    outer loop
      vertex 8.24956 1.34723 6.8
      vertex 8.18243 1.24322 6
      vertex 8.18243 1.24322 6.8
    endloop
  endfacet
  facet normal -0.70667 0.707544 0
    outer loop
      vertex 8.18243 1.24322 6
      vertex 8.10146 1.16235 6.8
      vertex 8.18243 1.24322 6.8
    endloop
  endfacet
  facet normal -0.70667 0.707544 0
    outer loop
      vertex 8.10146 1.16235 6.8
      vertex 8.18243 1.24322 6
      vertex 8.10146 1.16235 6
    endloop
  endfacet
  facet normal -0.52047 0.85388 0
    outer loop
      vertex 8.10146 1.16235 6
      vertex 8.00665 1.10456 6.8
      vertex 8.10146 1.16235 6.8
    endloop
  endfacet
  facet normal -0.52047 0.85388 0
    outer loop
      vertex 8.00665 1.10456 6.8
      vertex 8.10146 1.16235 6
      vertex 8.00665 1.10456 6
    endloop
  endfacet
  facet normal -0.303736 0.952756 0
    outer loop
      vertex 8.00665 1.10456 6
      vertex 8 1.10244 6.8
      vertex 8.00665 1.10456 6.8
    endloop
  endfacet
  facet normal -0.303736 0.952756 0
    outer loop
      vertex 8 1.10244 6.8
      vertex 8.00665 1.10456 6
      vertex 8 1.10244 6
    endloop
  endfacet
  facet normal 0 -1 0
    outer loop
      vertex 10.7418 1.91687 6
      vertex 11.584 1.91687 6.8
      vertex 10.7418 1.91687 6.8
    endloop
  endfacet
  facet normal 0 -1 -0
    outer loop
      vertex 11.584 1.91687 6.8
      vertex 10.7418 1.91687 6
      vertex 11.584 1.91687 6
    endloop
  endfacet
  facet normal 0.0548116 -0.998497 0
    outer loop
      vertex 11.584 1.91687 6
      vertex 11.7587 1.92646 6.8
      vertex 11.584 1.91687 6.8
    endloop
  endfacet
  facet normal 0.0548116 -0.998497 0
    outer loop
      vertex 11.7587 1.92646 6.8
      vertex 11.584 1.91687 6
      vertex 11.7587 1.92646 6
    endloop
  endfacet
  facet normal 0.177751 -0.984076 0
    outer loop
      vertex 11.7587 1.92646 6
      vertex 11.9182 1.95527 6.8
      vertex 11.7587 1.92646 6.8
    endloop
  endfacet
  facet normal 0.177751 -0.984076 0
    outer loop
      vertex 11.9182 1.95527 6.8
      vertex 11.7587 1.92646 6
      vertex 11.9182 1.95527 6
    endloop
  endfacet
  facet normal 0.315892 -0.948795 0
    outer loop
      vertex 11.9182 1.95527 6
      vertex 12.0624 2.00328 6.8
      vertex 11.9182 1.95527 6.8
    endloop
  endfacet
  facet normal 0.315892 -0.948795 0
    outer loop
      vertex 12.0624 2.00328 6.8
      vertex 11.9182 1.95527 6
      vertex 12.0624 2.00328 6
    endloop
  endfacet
  facet normal 0.462164 -0.886794 0
    outer loop
      vertex 12.0624 2.00328 6
      vertex 12.1914 2.07051 6.8
      vertex 12.0624 2.00328 6.8
    endloop
  endfacet
  facet normal 0.462164 -0.886794 0
    outer loop
      vertex 12.1914 2.07051 6.8
      vertex 12.0624 2.00328 6
      vertex 12.1914 2.07051 6
    endloop
  endfacet
  facet normal 0.604737 -0.796425 0
    outer loop
      vertex 12.1914 2.07051 6
      vertex 12.3052 2.15692 6.8
      vertex 12.1914 2.07051 6.8
    endloop
  endfacet
  facet normal 0.604737 -0.796425 0
    outer loop
      vertex 12.3052 2.15692 6.8
      vertex 12.1914 2.07051 6
      vertex 12.3052 2.15692 6
    endloop
  endfacet
  facet normal 0.731955 -0.681353 0
    outer loop
      vertex 12.3052 2.15692 6.8
      vertex 12.4008 2.25962 6
      vertex 12.4008 2.25962 6.8
    endloop
  endfacet
  facet normal 0.731955 -0.681353 0
    outer loop
      vertex 12.4008 2.25962 6
      vertex 12.3052 2.15692 6.8
      vertex 12.3052 2.15692 6
    endloop
  endfacet
  facet normal 0.842137 -0.539264 0
    outer loop
      vertex 12.4008 2.25962 6.8
      vertex 12.4751 2.37565 6
      vertex 12.4751 2.37565 6.8
    endloop
  endfacet
  facet normal 0.842137 -0.539264 0
    outer loop
      vertex 12.4751 2.37565 6
      vertex 12.4008 2.25962 6.8
      vertex 12.4008 2.25962 6
    endloop
  endfacet
  facet normal 0.925136 -0.379635 0
    outer loop
      vertex 12.4751 2.37565 6.8
      vertex 12.5282 2.50505 6
      vertex 12.5282 2.50505 6.8
    endloop
  endfacet
  facet normal 0.925136 -0.379635 0
    outer loop
      vertex 12.5282 2.50505 6
      vertex 12.4751 2.37565 6.8
      vertex 12.4751 2.37565 6
    endloop
  endfacet
  facet normal 0.975916 -0.218147 0
    outer loop
      vertex 12.5282 2.50505 6.8
      vertex 12.5601 2.64776 6
      vertex 12.5601 2.64776 6.8
    endloop
  endfacet
  facet normal 0.975916 -0.218147 0
    outer loop
      vertex 12.5601 2.64776 6
      vertex 12.5282 2.50505 6.8
      vertex 12.5282 2.50505 6
    endloop
  endfacet
  facet normal 0.997702 -0.0677578 0
    outer loop
      vertex 12.5601 2.64776 6.8
      vertex 12.5707 2.80384 6
      vertex 12.5707 2.80384 6.8
    endloop
  endfacet
  facet normal 0.997702 -0.0677578 0
    outer loop
      vertex 12.5707 2.80384 6
      vertex 12.5601 2.64776 6.8
      vertex 12.5601 2.64776 6
    endloop
  endfacet
  facet normal 0.997728 0.0673754 0
    outer loop
      vertex 12.5707 2.80384 6.8
      vertex 12.5601 2.96081 6
      vertex 12.5601 2.96081 6.8
    endloop
  endfacet
  facet normal 0.997728 0.0673754 0
    outer loop
      vertex 12.5601 2.96081 6
      vertex 12.5707 2.80384 6.8
      vertex 12.5707 2.80384 6
    endloop
  endfacet
  facet normal 0.976032 0.217628 0
    outer loop
      vertex 12.5601 2.96081 6.8
      vertex 12.5284 3.10298 6
      vertex 12.5284 3.10298 6.8
    endloop
  endfacet
  facet normal 0.976032 0.217628 0
    outer loop
      vertex 12.5284 3.10298 6
      vertex 12.5601 2.96081 6.8
      vertex 12.5601 2.96081 6
    endloop
  endfacet
  facet normal 0.923495 0.383611 0
    outer loop
      vertex 12.5284 3.10298 6.8
      vertex 12.4755 3.23033 6
      vertex 12.4755 3.23033 6.8
    endloop
  endfacet
  facet normal 0.923495 0.383611 0
    outer loop
      vertex 12.4755 3.23033 6
      vertex 12.5284 3.10298 6.8
      vertex 12.5284 3.10298 6
    endloop
  endfacet
  facet normal 0.835188 0.549964 0
    outer loop
      vertex 12.4755 3.23033 6.8
      vertex 12.4014 3.34286 6
      vertex 12.4014 3.34286 6.8
    endloop
  endfacet
  facet normal 0.835188 0.549964 0
    outer loop
      vertex 12.4014 3.34286 6
      vertex 12.4755 3.23033 6.8
      vertex 12.4755 3.23033 6
    endloop
  endfacet
  facet normal 0.716318 0.697774 0
    outer loop
      vertex 12.4014 3.34286 6.8
      vertex 12.3062 3.44059 6
      vertex 12.3062 3.44059 6.8
    endloop
  endfacet
  facet normal 0.716318 0.697774 0
    outer loop
      vertex 12.3062 3.44059 6
      vertex 12.4014 3.34286 6.8
      vertex 12.4014 3.34286 6
    endloop
  endfacet
  facet normal 0.578946 0.815366 -0
    outer loop
      vertex 12.3062 3.44059 6
      vertex 12.1917 3.52189 6.8
      vertex 12.3062 3.44059 6.8
    endloop
  endfacet
  facet normal 0.578946 0.815366 0
    outer loop
      vertex 12.1917 3.52189 6.8
      vertex 12.3062 3.44059 6
      vertex 12.1917 3.52189 6
    endloop
  endfacet
  facet normal 0.432275 0.901742 -0
    outer loop
      vertex 12.1917 3.52189 6
      vertex 12.0598 3.58512 6.8
      vertex 12.1917 3.52189 6.8
    endloop
  endfacet
  facet normal 0.432275 0.901742 0
    outer loop
      vertex 12.0598 3.58512 6.8
      vertex 12.1917 3.52189 6
      vertex 12.0598 3.58512 6
    endloop
  endfacet
  facet normal 0.289582 0.957153 -0
    outer loop
      vertex 12.0598 3.58512 6
      vertex 11.9105 3.63029 6.8
      vertex 12.0598 3.58512 6.8
    endloop
  endfacet
  facet normal 0.289582 0.957153 0
    outer loop
      vertex 11.9105 3.63029 6.8
      vertex 12.0598 3.58512 6
      vertex 11.9105 3.63029 6
    endloop
  endfacet
  facet normal 0.160461 0.987042 -0
    outer loop
      vertex 11.9105 3.63029 6
      vertex 11.7438 3.65739 6.8
      vertex 11.9105 3.63029 6.8
    endloop
  endfacet
  facet normal 0.160461 0.987042 0
    outer loop
      vertex 11.7438 3.65739 6.8
      vertex 11.9105 3.63029 6
      vertex 11.7438 3.65739 6
    endloop
  endfacet
  facet normal 0.0490722 0.998795 -0
    outer loop
      vertex 11.7438 3.65739 6
      vertex 11.5596 3.66644 6.8
      vertex 11.7438 3.65739 6.8
    endloop
  endfacet
  facet normal 0.0490722 0.998795 0
    outer loop
      vertex 11.5596 3.66644 6.8
      vertex 11.7438 3.65739 6
      vertex 11.5596 3.66644 6
    endloop
  endfacet
  facet normal 0 1 -0
    outer loop
      vertex 11.5596 3.66644 6
      vertex 10.3533 3.66644 6.8
      vertex 11.5596 3.66644 6.8
    endloop
  endfacet
  facet normal 0 1 0
    outer loop
      vertex 10.3533 3.66644 6.8
      vertex 11.5596 3.66644 6
      vertex 10.3533 3.66644 6
    endloop
  endfacet
  facet normal -1 0 0
    outer loop
      vertex 10.3533 0.799999 6
      vertex 10.3533 3.66644 6.8
      vertex 10.3533 3.66644 6
    endloop
  endfacet
  facet normal -1 -0 0
    outer loop
      vertex 10.3533 3.66644 6.8
      vertex 10.3533 0.799999 6
      vertex 10.3533 0.799999 6.8
    endloop
  endfacet
  facet normal 0 -1 0
    outer loop
      vertex 10.3533 0.799999 6
      vertex 10.7418 0.799999 6.8
      vertex 10.3533 0.799999 6.8
    endloop
  endfacet
  facet normal 0 -1 -0
    outer loop
      vertex 10.7418 0.799999 6.8
      vertex 10.3533 0.799999 6
      vertex 10.7418 0.799999 6
    endloop
  endfacet
  facet normal 1 -0 0
    outer loop
      vertex 10.7418 0.799999 6.8
      vertex 10.7418 1.91687 6
      vertex 10.7418 1.91687 6.8
    endloop
  endfacet
  facet normal 1 0 0
    outer loop
      vertex 10.7418 1.91687 6
      vertex 10.7418 0.799999 6.8
      vertex 10.7418 0.799999 6
    endloop
  endfacet
  facet normal 1 -0 0
    outer loop
      vertex 10.7418 2.22406 6.8
      vertex 10.7418 3.35518 6
      vertex 10.7418 3.35518 6.8
    endloop
  endfacet
  facet normal 1 0 0
    outer loop
      vertex 10.7418 3.35518 6
      vertex 10.7418 2.22406 6.8
      vertex 10.7418 2.22406 6
    endloop
  endfacet
  facet normal 0 -1 0
    outer loop
      vertex 10.7418 3.35518 6
      vertex 11.5128 3.35518 6.8
      vertex 10.7418 3.35518 6.8
    endloop
  endfacet
  facet normal 0 -1 -0
    outer loop
      vertex 11.5128 3.35518 6.8
      vertex 10.7418 3.35518 6
      vertex 11.5128 3.35518 6
    endloop
  endfacet
  facet normal -0.0920339 -0.995756 0
    outer loop
      vertex 11.5128 3.35518 6
      vertex 11.7531 3.33297 6.8
      vertex 11.5128 3.35518 6.8
    endloop
  endfacet
  facet normal -0.0920339 -0.995756 -0
    outer loop
      vertex 11.7531 3.33297 6.8
      vertex 11.5128 3.35518 6
      vertex 11.7531 3.33297 6
    endloop
  endfacet
  facet normal -0.336049 -0.941845 0
    outer loop
      vertex 11.7531 3.33297 6
      vertex 11.9399 3.26632 6.8
      vertex 11.7531 3.33297 6.8
    endloop
  endfacet
  facet normal -0.336049 -0.941845 -0
    outer loop
      vertex 11.9399 3.26632 6.8
      vertex 11.7531 3.33297 6
      vertex 11.9399 3.26632 6
    endloop
  endfacet
  facet normal -0.63989 -0.768467 0
    outer loop
      vertex 11.9399 3.26632 6
      vertex 12.0733 3.15524 6.8
      vertex 11.9399 3.26632 6.8
    endloop
  endfacet
  facet normal -0.63989 -0.768467 -0
    outer loop
      vertex 12.0733 3.15524 6.8
      vertex 11.9399 3.26632 6
      vertex 12.0733 3.15524 6
    endloop
  endfacet
  facet normal -0.888989 -0.457929 0
    outer loop
      vertex 12.1534 2.99974 6
      vertex 12.0733 3.15524 6.8
      vertex 12.0733 3.15524 6
    endloop
  endfacet
  facet normal -0.888989 -0.457929 0
    outer loop
      vertex 12.0733 3.15524 6.8
      vertex 12.1534 2.99974 6
      vertex 12.1534 2.99974 6.8
    endloop
  endfacet
  facet normal -0.991202 -0.132359 0
    outer loop
      vertex 12.1801 2.79979 6
      vertex 12.1534 2.99974 6.8
      vertex 12.1534 2.99974 6
    endloop
  endfacet
  facet normal -0.991202 -0.132359 0
    outer loop
      vertex 12.1534 2.99974 6.8
      vertex 12.1801 2.79979 6
      vertex 12.1801 2.79979 6.8
    endloop
  endfacet
  facet normal -0.992223 0.124471 0
    outer loop
      vertex 12.1541 2.59253 6
      vertex 12.1801 2.79979 6.8
      vertex 12.1801 2.79979 6
    endloop
  endfacet
  facet normal -0.992223 0.124471 0
    outer loop
      vertex 12.1801 2.79979 6.8
      vertex 12.1541 2.59253 6
      vertex 12.1541 2.59253 6.8
    endloop
  endfacet
  facet normal -0.899721 0.436465 0
    outer loop
      vertex 12.0759 2.43133 6
      vertex 12.1541 2.59253 6.8
      vertex 12.1541 2.59253 6
    endloop
  endfacet
  facet normal -0.899721 0.436465 0
    outer loop
      vertex 12.1541 2.59253 6.8
      vertex 12.0759 2.43133 6
      vertex 12.0759 2.43133 6.8
    endloop
  endfacet
  facet normal -0.662519 0.749045 0
    outer loop
      vertex 12.0759 2.43133 6
      vertex 11.9457 2.31617 6.8
      vertex 12.0759 2.43133 6.8
    endloop
  endfacet
  facet normal -0.662519 0.749045 0
    outer loop
      vertex 11.9457 2.31617 6.8
      vertex 12.0759 2.43133 6
      vertex 11.9457 2.31617 6
    endloop
  endfacet
  facet normal -0.354473 0.935066 0
    outer loop
      vertex 11.9457 2.31617 6
      vertex 11.7635 2.2471 6.8
      vertex 11.9457 2.31617 6.8
    endloop
  endfacet
  facet normal -0.354473 0.935066 0
    outer loop
      vertex 11.7635 2.2471 6.8
      vertex 11.9457 2.31617 6
      vertex 11.7635 2.2471 6
    endloop
  endfacet
  facet normal -0.0978221 0.995204 0
    outer loop
      vertex 11.7635 2.2471 6
      vertex 11.5291 2.22406 6.8
      vertex 11.7635 2.2471 6.8
    endloop
  endfacet
  facet normal -0.0978221 0.995204 0
    outer loop
      vertex 11.5291 2.22406 6.8
      vertex 11.7635 2.2471 6
      vertex 11.5291 2.22406 6
    endloop
  endfacet
  facet normal 0 1 -0
    outer loop
      vertex 11.5291 2.22406 6
      vertex 10.7418 2.22406 6.8
      vertex 11.5291 2.22406 6.8
    endloop
  endfacet
  facet normal 0 1 0
    outer loop
      vertex 10.7418 2.22406 6.8
      vertex 11.5291 2.22406 6
      vertex 10.7418 2.22406 6
    endloop
  endfacet
  facet normal 0 -1 0
    outer loop
      vertex 13.4558 2.12844 6
      vertex 15.006 2.12844 6.8
      vertex 13.4558 2.12844 6.8
    endloop
  endfacet
  facet normal 0 -1 -0
    outer loop
      vertex 15.006 2.12844 6.8
      vertex 13.4558 2.12844 6
      vertex 15.006 2.12844 6
    endloop
  endfacet
  facet normal -1 0 0
    outer loop
      vertex 15.006 0.799999 6
      vertex 15.006 2.12844 6.8
      vertex 15.006 2.12844 6
    endloop
  endfacet
  facet normal -1 -0 0
    outer loop
      vertex 15.006 2.12844 6.8
      vertex 15.006 0.799999 6
      vertex 15.006 0.799999 6.8
    endloop
  endfacet
  facet normal 0 -1 0
    outer loop
      vertex 15.006 0.799999 6
      vertex 15.3946 0.799999 6.8
      vertex 15.006 0.799999 6.8
    endloop
  endfacet
  facet normal 0 -1 -0
    outer loop
      vertex 15.3946 0.799999 6.8
      vertex 15.006 0.799999 6
      vertex 15.3946 0.799999 6
    endloop
  endfacet
  facet normal 1 -0 0
    outer loop
      vertex 15.3946 0.799999 6.8
      vertex 15.3946 3.66644 6
      vertex 15.3946 3.66644 6.8
    endloop
  endfacet
  facet normal 1 0 0
    outer loop
      vertex 15.3946 3.66644 6
      vertex 15.3946 0.799999 6.8
      vertex 15.3946 0.799999 6
    endloop
  endfacet
  facet normal 0 1 -0
    outer loop
      vertex 15.3946 3.66644 6
      vertex 15.006 3.66644 6.8
      vertex 15.3946 3.66644 6.8
    endloop
  endfacet
  facet normal 0 1 0
    outer loop
      vertex 15.006 3.66644 6.8
      vertex 15.3946 3.66644 6
      vertex 15.006 3.66644 6
    endloop
  endfacet
  facet normal -1 0 0
    outer loop
      vertex 15.006 2.45395 6
      vertex 15.006 3.66644 6.8
      vertex 15.006 3.66644 6
    endloop
  endfacet
  facet normal -1 -0 0
    outer loop
      vertex 15.006 3.66644 6.8
      vertex 15.006 2.45395 6
      vertex 15.006 2.45395 6.8
    endloop
  endfacet
  facet normal 0 1 -0
    outer loop
      vertex 15.006 2.45395 6
      vertex 13.4558 2.45395 6.8
      vertex 15.006 2.45395 6.8
    endloop
  endfacet
  facet normal 0 1 0
    outer loop
      vertex 13.4558 2.45395 6.8
      vertex 15.006 2.45395 6
      vertex 13.4558 2.45395 6
    endloop
  endfacet
  facet normal 1 -0 0
    outer loop
      vertex 13.4558 2.45395 6.8
      vertex 13.4558 3.66644 6
      vertex 13.4558 3.66644 6.8
    endloop
  endfacet
  facet normal 1 0 0
    outer loop
      vertex 13.4558 3.66644 6
      vertex 13.4558 2.45395 6.8
      vertex 13.4558 2.45395 6
    endloop
  endfacet
  facet normal 0 1 -0
    outer loop
      vertex 13.4558 3.66644 6
      vertex 13.0673 3.66644 6.8
      vertex 13.4558 3.66644 6.8
    endloop
  endfacet
  facet normal 0 1 0
    outer loop
      vertex 13.0673 3.66644 6.8
      vertex 13.4558 3.66644 6
      vertex 13.0673 3.66644 6
    endloop
  endfacet
  facet normal -1 0 0
    outer loop
      vertex 13.0673 0.799999 6
      vertex 13.0673 3.66644 6.8
      vertex 13.0673 3.66644 6
    endloop
  endfacet
  facet normal -1 -0 0
    outer loop
      vertex 13.0673 3.66644 6.8
      vertex 13.0673 0.799999 6
      vertex 13.0673 0.799999 6.8
    endloop
  endfacet
  facet normal 0 -1 0
    outer loop
      vertex 13.0673 0.799999 6
      vertex 13.4558 0.799999 6.8
      vertex 13.0673 0.799999 6.8
    endloop
  endfacet
  facet normal 0 -1 -0
    outer loop
      vertex 13.4558 0.799999 6.8
      vertex 13.0673 0.799999 6
      vertex 13.4558 0.799999 6
    endloop
  endfacet
  facet normal 1 -0 0
    outer loop
      vertex 13.4558 0.799999 6.8
      vertex 13.4558 2.12844 6
      vertex 13.4558 2.12844 6.8
    endloop
  endfacet
  facet normal 1 0 0
    outer loop
      vertex 13.4558 2.12844 6
      vertex 13.4558 0.799999 6.8
      vertex 13.4558 0.799999 6
    endloop
  endfacet
endsolid OpenSCAD_Model
