solid OpenSCAD_Model
  facet normal 1 -0 0
    outer loop
      vertex 90 0 8
      vertex 90 25 0
      vertex 90 25 8
    endloop
  endfacet
  facet normal 1 0 0
    outer loop
      vertex 90 25 0
      vertex 90 0 8
      vertex 90 0 0
    endloop
  endfacet
  facet normal -0 0 1
    outer loop
      vertex 8 14 8
      vertex 82 11 8
      vertex 82 14 8
    endloop
  endfacet
  facet normal 0 0 1
    outer loop
      vertex 82 11 8
      vertex 8 14 8
      vertex 8 11 8
    endloop
  endfacet
  facet normal 0 0 1
    outer loop
      vertex 82 14 8
      vertex 90 25 8
      vertex 82 21 8
    endloop
  endfacet
  facet normal 0 0 1
    outer loop
      vertex 90 25 8
      vertex 8 21 8
      vertex 82 21 8
    endloop
  endfacet
  facet normal 0 0 1
    outer loop
      vertex 0 25 8
      vertex 8 14 8
      vertex 8 21 8
    endloop
  endfacet
  facet normal 0 0 1
    outer loop
      vertex 8 14 8
      vertex 0 25 8
      vertex 8 11 8
    endloop
  endfacet
  facet normal 0 0 1
    outer loop
      vertex 0 0 8
      vertex 8 11 8
      vertex 0 25 8
    endloop
  endfacet
  facet normal -0 0 1
    outer loop
      vertex 0 25 8
      vertex 8 21 8
      vertex 90 25 8
    endloop
  endfacet
  facet normal 0 0 1
    outer loop
      vertex 90 25 8
      vertex 82 14 8
      vertex 90 0 8
    endloop
  endfacet
  facet normal -0 0 1
    outer loop
      vertex 82 11 8
      vertex 90 0 8
      vertex 82 14 8
    endloop
  endfacet
  facet normal -0 0 1
    outer loop
      vertex 82 6 8
      vertex 90 0 8
      vertex 82 11 8
    endloop
  endfacet
  facet normal -0 0 1
    outer loop
      vertex 8 6 8
      vertex 90 0 8
      vertex 82 6 8
    endloop
  endfacet
  facet normal 0 0 1
    outer loop
      vertex 8 6 8
      vertex 0 0 8
      vertex 90 0 8
    endloop
  endfacet
  facet normal 0 0 1
    outer loop
      vertex 8 11 8
      vertex 0 0 8
      vertex 8 6 8
    endloop
  endfacet
  facet normal 0 0 -1
    outer loop
      vertex 0 0 0
      vertex 90 25 0
      vertex 90 0 0
    endloop
  endfacet
  facet normal -0 0 -1
    outer loop
      vertex 90 25 0
      vertex 0 0 0
      vertex 0 25 0
    endloop
  endfacet
  facet normal -1 0 0
    outer loop
      vertex 0 0 0
      vertex 0 25 8
      vertex 0 25 0
    endloop
  endfacet
  facet normal -1 -0 0
    outer loop
      vertex 0 25 8
      vertex 0 0 0
      vertex 0 0 8
    endloop
  endfacet
  facet normal 0 1 -0
    outer loop
      vertex 90 25 0
      vertex 0 25 8
      vertex 90 25 8
    endloop
  endfacet
  facet normal 0 1 0
    outer loop
      vertex 0 25 8
      vertex 90 25 0
      vertex 0 25 0
    endloop
  endfacet
  facet normal 0 -1 0
    outer loop
      vertex 0 0 0
      vertex 90 0 8
      vertex 0 0 8
    endloop
  endfacet
  facet normal 0 -1 -0
    outer loop
      vertex 90 0 8
      vertex 0 0 0
      vertex 90 0 0
    endloop
  endfacet
  facet normal -1 0 0
    outer loop
      vertex 82 6 2
      vertex 82 11 8
      vertex 82 11 2
    endloop
  endfacet
  facet normal -1 -0 0
    outer loop
      vertex 82 11 8
      vertex 82 6 2
      vertex 82 6 8
    endloop
  endfacet
  facet normal -0 0 1
    outer loop
      vertex 8 11 2
      vertex 82 6 2
      vertex 82 11 2
    endloop
  endfacet
  facet normal 0 0 1
    outer loop
      vertex 82 6 2
      vertex 8 11 2
      vertex 8 6 2
    endloop
  endfacet
  facet normal 1 -0 0
    outer loop
      vertex 8 6 8
      vertex 8 11 2
      vertex 8 11 8
    endloop
  endfacet
  facet normal 1 0 0
    outer loop
      vertex 8 11 2
      vertex 8 6 8
      vertex 8 6 2
    endloop
  endfacet
  facet normal 0 -1 0
    outer loop
      vertex 8 11 2
      vertex 82 11 8
      vertex 8 11 8
    endloop
  endfacet
  facet normal 0 -1 -0
    outer loop
      vertex 82 11 8
      vertex 8 11 2
      vertex 82 11 2
    endloop
  endfacet
  facet normal 0 1 -0
    outer loop
      vertex 82 6 2
      vertex 8 6 8
      vertex 82 6 8
    endloop
  endfacet
  facet normal 0 1 0
    outer loop
      vertex 8 6 8
      vertex 82 6 2
      vertex 8 6 2
    endloop
  endfacet
  facet normal -1 0 0
    outer loop
      vertex 82 14 2
      vertex 82 21 8
      vertex 82 21 2
    endloop
  endfacet
  facet normal -1 -0 0
    outer loop
      vertex 82 21 8
      vertex 82 14 2
      vertex 82 14 8
    endloop
  endfacet
  facet normal -0 0 1
    outer loop
      vertex 8 21 2
      vertex 82 14 2
      vertex 82 21 2
    endloop
  endfacet
  facet normal 0 0 1
    outer loop
      vertex 82 14 2
      vertex 8 21 2
      vertex 8 14 2
    endloop
  endfacet
  facet normal 1 -0 0
    outer loop
      vertex 8 14 8
      vertex 8 21 2
      vertex 8 21 8
    endloop
  endfacet
  facet normal 1 0 0
    outer loop
      vertex 8 21 2
      vertex 8 14 8
      vertex 8 14 2
    endloop
  endfacet
  facet normal 0 -1 0
    outer loop
      vertex 8 21 2
      vertex 82 21 8
      vertex 8 21 8
    endloop
  endfacet
  facet normal 0 -1 -0
    outer loop
      vertex 82 21 8
      vertex 8 21 2
      vertex 82 21 2
    endloop
  endfacet
  facet normal 0 1 -0
    outer loop
      vertex 82 14 2
      vertex 8 14 8
      vertex 82 14 8
    endloop
  endfacet
  facet normal 0 1 0
    outer loop
      vertex 8 14 8
      vertex 82 14 2
      vertex 8 14 2
    endloop
  endfacet
endsolid OpenSCAD_Model
