solid OpenSCAD_Model
  facet normal 1 -0 0
    outer loop
      vertex 70 0 20
      vertex 70 45 0
      vertex 70 45 20
    endloop
  endfacet
  facet normal 1 0 0
    outer loop
      vertex 70 45 0
      vertex 70 0 20
      vertex 70 0 0
    endloop
  endfacet
  facet normal -0 0 1
    outer loop
      vertex 7.40262 4.05888 4
      vertex 9.39954 2.95544 4
      vertex 9.54602 4.05888 4
    endloop
  endfacet
  facet normal 0 0 1
    outer loop
      vertex 9.39954 2.95544 4
      vertex 7.40262 4.05888 4
      vertex 7.40262 2.95544 4
    endloop
  endfacet
  facet normal 0 0 1
    outer loop
      vertex 14.0504 1 4
      vertex 12.222 3.69269 4
      vertex 12.2342 3.28502 4
    endloop
  endfacet
  facet normal -0 -0 1
    outer loop
      vertex 12.222 3.69269 4
      vertex 14.0504 1 4
      vertex 12.2098 3.92949 4
    endloop
  endfacet
  facet normal 0 0 1
    outer loop
      vertex 22.2853 2.98474 4
      vertex 20.4251 4.43973 4
      vertex 20.4251 2.98474 4
    endloop
  endfacet
  facet normal 0 0 1
    outer loop
      vertex 14.2108 1.67152 4
      vertex 12.3611 4.43973 4
      vertex 14.2213 1.49068 4
    endloop
  endfacet
  facet normal 0 0 1
    outer loop
      vertex 14.2026 1.83128 4
      vertex 12.3611 4.43973 4
      vertex 14.2108 1.67152 4
    endloop
  endfacet
  facet normal 0 0 1
    outer loop
      vertex 14.1967 1.96996 4
      vertex 12.3611 4.43973 4
      vertex 14.2026 1.83128 4
    endloop
  endfacet
  facet normal 0 0 1
    outer loop
      vertex 14.1932 2.08752 4
      vertex 12.3611 4.43973 4
      vertex 14.1967 1.96996 4
    endloop
  endfacet
  facet normal 0 0 1
    outer loop
      vertex 12.3611 4.43973 4
      vertex 14.1932 2.08752 4
      vertex 14.192 2.18399 4
    endloop
  endfacet
  facet normal -0 0 1
    outer loop
      vertex 9.39954 2.95544 4
      vertex 10.0052 2.52333 4
      vertex 9.54602 4.05888 4
    endloop
  endfacet
  facet normal -0 0 1
    outer loop
      vertex 9.39954 2.5795 4
      vertex 10.0052 2.52333 4
      vertex 9.39954 2.95544 4
    endloop
  endfacet
  facet normal 0 0 1
    outer loop
      vertex 10.0052 2.52333 4
      vertex 9.39954 2.5795 4
      vertex 9.6461 1.38083 4
    endloop
  endfacet
  facet normal 0 0 1
    outer loop
      vertex 7.40262 1.38083 4
      vertex 9.39954 2.5795 4
      vertex 7.40262 2.5795 4
    endloop
  endfacet
  facet normal 0 0 1
    outer loop
      vertex 9.39954 2.5795 4
      vertex 7.40262 1.38083 4
      vertex 9.6461 1.38083 4
    endloop
  endfacet
  facet normal 0 0 1
    outer loop
      vertex 6.93634 4.43973 4
      vertex 6.20624 3.16879 4
      vertex 6.93634 1 4
    endloop
  endfacet
  facet normal -0 0 1
    outer loop
      vertex 6.16156 3.0399 4
      vertex 6.93634 1 4
      vertex 6.20624 3.16879 4
    endloop
  endfacet
  facet normal -0 0 1
    outer loop
      vertex 6.09901 2.92078 4
      vertex 6.93634 1 4
      vertex 6.16156 3.0399 4
    endloop
  endfacet
  facet normal -0 0 1
    outer loop
      vertex 6.01859 2.8114 4
      vertex 6.93634 1 4
      vertex 6.09901 2.92078 4
    endloop
  endfacet
  facet normal -0 0 1
    outer loop
      vertex 5.92245 2.71463 4
      vertex 6.93634 1 4
      vertex 6.01859 2.8114 4
    endloop
  endfacet
  facet normal 0 0 1
    outer loop
      vertex 6.93634 1 4
      vertex 5.92245 2.71463 4
      vertex 6.37871 1 4
    endloop
  endfacet
  facet normal -0 0 1
    outer loop
      vertex 5.81274 2.63329 4
      vertex 6.37871 1 4
      vertex 5.92245 2.71463 4
    endloop
  endfacet
  facet normal -0 0 1
    outer loop
      vertex 5.68947 2.56737 4
      vertex 6.37871 1 4
      vertex 5.81274 2.63329 4
    endloop
  endfacet
  facet normal -0 0 1
    outer loop
      vertex 5.55261 2.51689 4
      vertex 6.37871 1 4
      vertex 5.68947 2.56737 4
    endloop
  endfacet
  facet normal 0 0 1
    outer loop
      vertex 6.37871 1 4
      vertex 5.55261 2.51689 4
      vertex 5.40221 2.48183 4
    endloop
  endfacet
  facet normal 0 0 1
    outer loop
      vertex 22.2853 2.59415 4
      vertex 20.4251 2.59415 4
      vertex 22.2853 1 4
    endloop
  endfacet
  facet normal 0 0 1
    outer loop
      vertex 50 20 4
      vertex 22.7516 4.43973 4
      vertex 50 0 4
    endloop
  endfacet
  facet normal -0 0 1
    outer loop
      vertex 0 20 4
      vertex 22.7516 4.43973 4
      vertex 50 20 4
    endloop
  endfacet
  facet normal 0 0 1
    outer loop
      vertex 22.2853 4.43973 4
      vertex 20.4251 4.43973 4
      vertex 22.2853 2.98474 4
    endloop
  endfacet
  facet normal 0 0 1
    outer loop
      vertex 22.7516 4.43973 4
      vertex 0 20 4
      vertex 22.2853 4.43973 4
    endloop
  endfacet
  facet normal 0 0 1
    outer loop
      vertex 22.2853 4.43973 4
      vertex 0 20 4
      vertex 20.4251 4.43973 4
    endloop
  endfacet
  facet normal 0 0 1
    outer loop
      vertex 19.3502 3.21733 4
      vertex 19.9588 4.43973 4
      vertex 19.3629 3.40462 4
    endloop
  endfacet
  facet normal 0 0 1
    outer loop
      vertex 19.9588 4.43973 4
      vertex 19.3502 3.59297 4
      vertex 19.3629 3.40462 4
    endloop
  endfacet
  facet normal 0 0 1
    outer loop
      vertex 19.9588 4.43973 4
      vertex 19.3121 3.76357 4
      vertex 19.3502 3.59297 4
    endloop
  endfacet
  facet normal 0 0 1
    outer loop
      vertex 19.9588 4.43973 4
      vertex 19.2487 3.9164 4
      vertex 19.3121 3.76357 4
    endloop
  endfacet
  facet normal 0 0 1
    outer loop
      vertex 19.9588 4.43973 4
      vertex 19.1598 4.05144 4
      vertex 19.2487 3.9164 4
    endloop
  endfacet
  facet normal 0 0 1
    outer loop
      vertex 20.4251 4.43973 4
      vertex 0 20 4
      vertex 19.9588 4.43973 4
    endloop
  endfacet
  facet normal 0 0 1
    outer loop
      vertex 19.9588 4.43973 4
      vertex 19.0455 4.16872 4
      vertex 19.1598 4.05144 4
    endloop
  endfacet
  facet normal 0 0 1
    outer loop
      vertex 19.9588 4.43973 4
      vertex 18.9082 4.26628 4
      vertex 19.0455 4.16872 4
    endloop
  endfacet
  facet normal 0 0 1
    outer loop
      vertex 19.9588 4.43973 4
      vertex 18.7499 4.34216 4
      vertex 18.9082 4.26628 4
    endloop
  endfacet
  facet normal 0 0 1
    outer loop
      vertex 19.9588 4.43973 4
      vertex 18.5707 4.39636 4
      vertex 18.7499 4.34216 4
    endloop
  endfacet
  facet normal 0 -0 1
    outer loop
      vertex 18.3706 4.42888 4
      vertex 19.9588 4.43973 4
      vertex 0 20 4
    endloop
  endfacet
  facet normal 0 0 1
    outer loop
      vertex 19.9588 4.43973 4
      vertex 18.3706 4.42888 4
      vertex 18.5707 4.39636 4
    endloop
  endfacet
  facet normal 0 0 1
    outer loop
      vertex 18.3706 4.42888 4
      vertex 0 20 4
      vertex 18.1496 4.43973 4
    endloop
  endfacet
  facet normal 0 0 1
    outer loop
      vertex 16.702 4.43973 4
      vertex 14.6119 4.43973 4
      vertex 16.702 1 4
    endloop
  endfacet
  facet normal 0 0 1
    outer loop
      vertex 18.1496 4.43973 4
      vertex 0 20 4
      vertex 16.702 4.43973 4
    endloop
  endfacet
  facet normal 0 0 1
    outer loop
      vertex 16.702 4.43973 4
      vertex 0 20 4
      vertex 14.6119 4.43973 4
    endloop
  endfacet
  facet normal 0 0 1
    outer loop
      vertex 14.192 4.43973 4
      vertex 12.3611 4.43973 4
      vertex 14.192 2.18399 4
    endloop
  endfacet
  facet normal 0 0 1
    outer loop
      vertex 14.6119 4.43973 4
      vertex 0 20 4
      vertex 14.192 4.43973 4
    endloop
  endfacet
  facet normal 0 0 1
    outer loop
      vertex 14.192 4.43973 4
      vertex 0 20 4
      vertex 12.3611 4.43973 4
    endloop
  endfacet
  facet normal 0 0 1
    outer loop
      vertex 11.8192 4.43973 4
      vertex 11.2258 2.52333 4
      vertex 11.8192 1 4
    endloop
  endfacet
  facet normal 0 0 1
    outer loop
      vertex 9.54602 4.05888 4
      vertex 11.8192 4.43973 4
      vertex 9.54602 4.43973 4
    endloop
  endfacet
  facet normal 0 0 1
    outer loop
      vertex 10.0052 2.52333 4
      vertex 9.6461 1.38083 4
      vertex 10.0052 2.13274 4
    endloop
  endfacet
  facet normal 0 0 1
    outer loop
      vertex 11.2258 2.52333 4
      vertex 9.54602 4.05888 4
      vertex 10.0052 2.52333 4
    endloop
  endfacet
  facet normal 0 0 1
    outer loop
      vertex 11.8192 4.43973 4
      vertex 9.54602 4.05888 4
      vertex 11.2258 2.52333 4
    endloop
  endfacet
  facet normal 0 0 1
    outer loop
      vertex 12.3611 4.43973 4
      vertex 0 20 4
      vertex 11.8192 4.43973 4
    endloop
  endfacet
  facet normal 0 0 1
    outer loop
      vertex 11.8192 4.43973 4
      vertex 0 20 4
      vertex 9.54602 4.43973 4
    endloop
  endfacet
  facet normal 0 0 1
    outer loop
      vertex 6.23303 3.30745 4
      vertex 6.93634 4.43973 4
      vertex 6.24197 3.45587 4
    endloop
  endfacet
  facet normal 0 0 1
    outer loop
      vertex 6.20624 3.16879 4
      vertex 6.93634 4.43973 4
      vertex 6.23303 3.30745 4
    endloop
  endfacet
  facet normal 0 0 1
    outer loop
      vertex 6.93634 4.43973 4
      vertex 6.22932 3.63327 4
      vertex 6.24197 3.45587 4
    endloop
  endfacet
  facet normal 0 0 1
    outer loop
      vertex 6.93634 4.43973 4
      vertex 6.19139 3.79434 4
      vertex 6.22932 3.63327 4
    endloop
  endfacet
  facet normal 0 0 1
    outer loop
      vertex 6.93634 4.43973 4
      vertex 6.12816 3.93912 4
      vertex 6.19139 3.79434 4
    endloop
  endfacet
  facet normal 0 0 1
    outer loop
      vertex 6.93634 4.43973 4
      vertex 6.03964 4.06758 4
      vertex 6.12816 3.93912 4
    endloop
  endfacet
  facet normal 0 0 1
    outer loop
      vertex 6.93634 4.43973 4
      vertex 5.92583 4.17973 4
      vertex 6.03964 4.06758 4
    endloop
  endfacet
  facet normal 0 0 1
    outer loop
      vertex 9.54602 4.43973 4
      vertex 0 20 4
      vertex 6.93634 4.43973 4
    endloop
  endfacet
  facet normal 0 -0 1
    outer loop
      vertex 5.25049 4.42932 4
      vertex 6.93634 4.43973 4
      vertex 0 20 4
    endloop
  endfacet
  facet normal 0 0 1
    outer loop
      vertex 6.93634 4.43973 4
      vertex 5.78877 4.27333 4
      vertex 5.92583 4.17973 4
    endloop
  endfacet
  facet normal 0 0 1
    outer loop
      vertex 6.93634 4.43973 4
      vertex 5.63054 4.34613 4
      vertex 5.78877 4.27333 4
    endloop
  endfacet
  facet normal 0 0 1
    outer loop
      vertex 6.93634 4.43973 4
      vertex 5.45111 4.39812 4
      vertex 5.63054 4.34613 4
    endloop
  endfacet
  facet normal 0 0 1
    outer loop
      vertex 6.93634 4.43973 4
      vertex 5.25049 4.42932 4
      vertex 5.45111 4.39812 4
    endloop
  endfacet
  facet normal 0 0 1
    outer loop
      vertex 5.25049 4.42932 4
      vertex 0 20 4
      vertex 5.02867 4.43973 4
    endloop
  endfacet
  facet normal 0 0 1
    outer loop
      vertex 0 0 4
      vertex 3.41014 4.43973 4
      vertex 0 20 4
    endloop
  endfacet
  facet normal 0 0 1
    outer loop
      vertex 5.02867 4.43973 4
      vertex 0 20 4
      vertex 3.41014 4.43973 4
    endloop
  endfacet
  facet normal -0 0 1
    outer loop
      vertex 22.7516 1 4
      vertex 50 0 4
      vertex 22.7516 4.43973 4
    endloop
  endfacet
  facet normal -0 0 1
    outer loop
      vertex 22.2853 1 4
      vertex 50 0 4
      vertex 22.7516 1 4
    endloop
  endfacet
  facet normal 0 0 1
    outer loop
      vertex 20.4251 1 4
      vertex 22.2853 1 4
      vertex 20.4251 2.59415 4
    endloop
  endfacet
  facet normal 0 0 1
    outer loop
      vertex 0 0 4
      vertex 22.2853 1 4
      vertex 20.4251 1 4
    endloop
  endfacet
  facet normal 0 0 1
    outer loop
      vertex 0 0 4
      vertex 20.4251 1 4
      vertex 19.9588 1 4
    endloop
  endfacet
  facet normal 0 0 1
    outer loop
      vertex 19.9588 4.43973 4
      vertex 19.3502 3.21733 4
      vertex 19.9588 1 4
    endloop
  endfacet
  facet normal -0 0 1
    outer loop
      vertex 19.312 3.04605 4
      vertex 19.9588 1 4
      vertex 19.3502 3.21733 4
    endloop
  endfacet
  facet normal -0 0 1
    outer loop
      vertex 19.2482 2.89079 4
      vertex 19.9588 1 4
      vertex 19.312 3.04605 4
    endloop
  endfacet
  facet normal -0 0 1
    outer loop
      vertex 19.159 2.75154 4
      vertex 19.9588 1 4
      vertex 19.2482 2.89079 4
    endloop
  endfacet
  facet normal -0 0 1
    outer loop
      vertex 19.0443 2.62831 4
      vertex 19.9588 1 4
      vertex 19.159 2.75154 4
    endloop
  endfacet
  facet normal -0 0 1
    outer loop
      vertex 18.9078 2.5246 4
      vertex 19.9588 1 4
      vertex 19.0443 2.62831 4
    endloop
  endfacet
  facet normal -0 0 1
    outer loop
      vertex 18.7529 2.44394 4
      vertex 19.9588 1 4
      vertex 18.9078 2.5246 4
    endloop
  endfacet
  facet normal -0 0 1
    outer loop
      vertex 18.5799 2.38632 4
      vertex 19.9588 1 4
      vertex 18.7529 2.44394 4
    endloop
  endfacet
  facet normal -0 0 1
    outer loop
      vertex 18.3885 2.35176 4
      vertex 19.9588 1 4
      vertex 18.5799 2.38632 4
    endloop
  endfacet
  facet normal 0 0 1
    outer loop
      vertex 17.1683 1 4
      vertex 18.3885 2.35176 4
      vertex 18.1789 2.34024 4
    endloop
  endfacet
  facet normal 0 0 1
    outer loop
      vertex 17.1683 1 4
      vertex 18.1789 2.34024 4
      vertex 17.1683 2.34024 4
    endloop
  endfacet
  facet normal 0 0 1
    outer loop
      vertex 18.3885 2.35176 4
      vertex 17.1683 1 4
      vertex 19.9588 1 4
    endloop
  endfacet
  facet normal 0 0 1
    outer loop
      vertex 0 0 4
      vertex 19.9588 1 4
      vertex 17.1683 1 4
    endloop
  endfacet
  facet normal 0 0 1
    outer loop
      vertex 0 0 4
      vertex 17.1683 1 4
      vertex 16.702 1 4
    endloop
  endfacet
  facet normal 0 0 1
    outer loop
      vertex 14.6119 1 4
      vertex 16.702 1 4
      vertex 14.6119 4.43973 4
    endloop
  endfacet
  facet normal 0 0 1
    outer loop
      vertex 0 0 4
      vertex 16.702 1 4
      vertex 14.6119 1 4
    endloop
  endfacet
  facet normal 0 0 1
    outer loop
      vertex 0 0 4
      vertex 14.6119 1 4
      vertex 14.0504 1 4
    endloop
  endfacet
  facet normal 0 0 1
    outer loop
      vertex 12.2342 1 4
      vertex 14.0504 1 4
      vertex 12.2342 3.28502 4
    endloop
  endfacet
  facet normal 0 0 1
    outer loop
      vertex 0 0 4
      vertex 14.0504 1 4
      vertex 12.2342 1 4
    endloop
  endfacet
  facet normal 0 0 1
    outer loop
      vertex 0 0 4
      vertex 12.2342 1 4
      vertex 11.8192 1 4
    endloop
  endfacet
  facet normal -0 0 1
    outer loop
      vertex 11.2258 2.13274 4
      vertex 11.8192 1 4
      vertex 11.2258 2.52333 4
    endloop
  endfacet
  facet normal 0 0 1
    outer loop
      vertex 9.6461 1.38083 4
      vertex 11.2258 2.13274 4
      vertex 10.0052 2.13274 4
    endloop
  endfacet
  facet normal 0 0 1
    outer loop
      vertex 9.6461 1 4
      vertex 11.2258 2.13274 4
      vertex 9.6461 1.38083 4
    endloop
  endfacet
  facet normal 0 0 1
    outer loop
      vertex 11.2258 2.13274 4
      vertex 9.6461 1 4
      vertex 11.8192 1 4
    endloop
  endfacet
  facet normal 0 0 1
    outer loop
      vertex 0 0 4
      vertex 11.8192 1 4
      vertex 9.6461 1 4
    endloop
  endfacet
  facet normal 0 0 1
    outer loop
      vertex 0 0 4
      vertex 9.6461 1 4
      vertex 6.93634 1 4
    endloop
  endfacet
  facet normal 0 0 1
    outer loop
      vertex 0 0 4
      vertex 6.93634 1 4
      vertex 6.37871 1 4
    endloop
  endfacet
  facet normal 0 0 1
    outer loop
      vertex 0 0 4
      vertex 6.37871 1 4
      vertex 5.84161 1 4
    endloop
  endfacet
  facet normal 0 0 1
    outer loop
      vertex 3.87642 1 4
      vertex 4.94809 2.42812 4
      vertex 3.87642 2.42812 4
    endloop
  endfacet
  facet normal 0 0 1
    outer loop
      vertex 4.94809 2.42812 4
      vertex 3.87642 1 4
      vertex 5.84161 1 4
    endloop
  endfacet
  facet normal 0 0 1
    outer loop
      vertex 0 0 4
      vertex 5.84161 1 4
      vertex 3.87642 1 4
    endloop
  endfacet
  facet normal 0 0 1
    outer loop
      vertex 0 0 4
      vertex 3.87642 1 4
      vertex 3.41014 1 4
    endloop
  endfacet
  facet normal 0 0 1
    outer loop
      vertex 22.2853 1 4
      vertex 0 0 4
      vertex 50 0 4
    endloop
  endfacet
  facet normal 0 0 1
    outer loop
      vertex 3.41014 4.43973 4
      vertex 0 0 4
      vertex 3.41014 1 4
    endloop
  endfacet
  facet normal 0 0 1
    outer loop
      vertex 5.37761 4.00954 4
      vertex 5.77325 3.45102 4
      vertex 5.76509 3.56541 4
    endloop
  endfacet
  facet normal 0 0 1
    outer loop
      vertex 5.77325 3.45102 4
      vertex 5.37761 4.00954 4
      vertex 5.7652 3.33252 4
    endloop
  endfacet
  facet normal 0 0 1
    outer loop
      vertex 5.48067 3.96544 4
      vertex 5.76509 3.56541 4
      vertex 5.74063 3.66838 4
    endloop
  endfacet
  facet normal 0 -0 1
    outer loop
      vertex 5.38396 2.85872 4
      vertex 5.7652 3.33252 4
      vertex 5.37761 4.00954 4
    endloop
  endfacet
  facet normal 0 0 1
    outer loop
      vertex 5.56938 3.90875 4
      vertex 5.74063 3.66838 4
      vertex 5.69986 3.75993 4
    endloop
  endfacet
  facet normal 0 0 1
    outer loop
      vertex 5.76509 3.56541 4
      vertex 5.48067 3.96544 4
      vertex 5.37761 4.00954 4
    endloop
  endfacet
  facet normal 0 0 1
    outer loop
      vertex 5.56938 3.90875 4
      vertex 5.69986 3.75993 4
      vertex 5.64278 3.84006 4
    endloop
  endfacet
  facet normal 0 -0 1
    outer loop
      vertex 5.48459 2.90691 4
      vertex 5.7652 3.33252 4
      vertex 5.38396 2.85872 4
    endloop
  endfacet
  facet normal 0 0 1
    outer loop
      vertex 5.74063 3.66838 4
      vertex 5.56938 3.90875 4
      vertex 5.48067 3.96544 4
    endloop
  endfacet
  facet normal 0 0 1
    outer loop
      vertex 5.74103 3.22505 4
      vertex 5.48459 2.90691 4
      vertex 5.70074 3.12863 4
    endloop
  endfacet
  facet normal 0 0 1
    outer loop
      vertex 5.70074 3.12863 4
      vertex 5.57184 2.96887 4
      vertex 5.64435 3.04323 4
    endloop
  endfacet
  facet normal 0 0 1
    outer loop
      vertex 5.70074 3.12863 4
      vertex 5.48459 2.90691 4
      vertex 5.57184 2.96887 4
    endloop
  endfacet
  facet normal 0 0 1
    outer loop
      vertex 5.7652 3.33252 4
      vertex 5.48459 2.90691 4
      vertex 5.74103 3.22505 4
    endloop
  endfacet
  facet normal 0 0 1
    outer loop
      vertex 5.26019 4.04103 4
      vertex 5.38396 2.85872 4
      vertex 5.37761 4.00954 4
    endloop
  endfacet
  facet normal 0 0 1
    outer loop
      vertex 5.38396 2.85872 4
      vertex 5.26019 4.04103 4
      vertex 5.26996 2.8243 4
    endloop
  endfacet
  facet normal 0 0 1
    outer loop
      vertex 5.26019 4.04103 4
      vertex 5.14258 2.80363 4
      vertex 5.26996 2.8243 4
    endloop
  endfacet
  facet normal 0 0 1
    outer loop
      vertex 5.12842 4.05992 4
      vertex 5.14258 2.80363 4
      vertex 5.26019 4.04103 4
    endloop
  endfacet
  facet normal 0 0 1
    outer loop
      vertex 5.12842 4.05992 4
      vertex 5.00182 2.79675 4
      vertex 5.14258 2.80363 4
    endloop
  endfacet
  facet normal 0 0 1
    outer loop
      vertex 4.9823 4.06622 4
      vertex 5.00182 2.79675 4
      vertex 5.12842 4.05992 4
    endloop
  endfacet
  facet normal 0 0 1
    outer loop
      vertex 3.87642 2.79675 4
      vertex 4.9823 4.06622 4
      vertex 3.87642 4.06622 4
    endloop
  endfacet
  facet normal 0 0 1
    outer loop
      vertex 4.9823 4.06622 4
      vertex 3.87642 2.79675 4
      vertex 5.00182 2.79675 4
    endloop
  endfacet
  facet normal 0 0 1
    outer loop
      vertex 18.3817 4.03957 4
      vertex 18.8942 3.39975 4
      vertex 18.8622 3.63968 4
    endloop
  endfacet
  facet normal 0 -0 1
    outer loop
      vertex 18.3942 2.73651 4
      vertex 18.8942 3.39975 4
      vertex 18.3817 4.03957 4
    endloop
  endfacet
  facet normal 0 0 1
    outer loop
      vertex 18.6059 3.95958 4
      vertex 18.8622 3.63968 4
      vertex 18.7661 3.82629 4
    endloop
  endfacet
  facet normal 0 0 1
    outer loop
      vertex 18.8622 3.63968 4
      vertex 18.6059 3.95958 4
      vertex 18.3817 4.03957 4
    endloop
  endfacet
  facet normal 0 0 1
    outer loop
      vertex 18.8942 3.39975 4
      vertex 18.3942 2.73651 4
      vertex 18.8629 3.15103 4
    endloop
  endfacet
  facet normal 0 0 1
    outer loop
      vertex 18.8629 3.15103 4
      vertex 18.613 2.81941 4
      vertex 18.7692 2.9576 4
    endloop
  endfacet
  facet normal 0 -0 1
    outer loop
      vertex 18.613 2.81941 4
      vertex 18.8629 3.15103 4
      vertex 18.3942 2.73651 4
    endloop
  endfacet
  facet normal 0 0 1
    outer loop
      vertex 18.3817 4.03957 4
      vertex 18.113 2.70888 4
      vertex 18.3942 2.73651 4
    endloop
  endfacet
  facet normal 0 0 1
    outer loop
      vertex 18.0935 4.06622 4
      vertex 18.113 2.70888 4
      vertex 18.3817 4.03957 4
    endloop
  endfacet
  facet normal 0 0 1
    outer loop
      vertex 17.1683 2.70888 4
      vertex 18.0935 4.06622 4
      vertex 17.1683 4.06622 4
    endloop
  endfacet
  facet normal 0 0 1
    outer loop
      vertex 18.0935 4.06622 4
      vertex 17.1683 2.70888 4
      vertex 18.113 2.70888 4
    endloop
  endfacet
  facet normal 0 0 -1
    outer loop
      vertex 70 0 0
      vertex 50 20 0
      vertex 70 45 0
    endloop
  endfacet
  facet normal 0 0 -1
    outer loop
      vertex 0 0 0
      vertex 50 20 0
      vertex 70 0 0
    endloop
  endfacet
  facet normal -0 0 -1
    outer loop
      vertex 50 20 0
      vertex 0 0 0
      vertex 0 20 0
    endloop
  endfacet
  facet normal -0 0 -1
    outer loop
      vertex 70 45 0
      vertex 50 20 0
      vertex 50 45 0
    endloop
  endfacet
  facet normal -1 0 0
    outer loop
      vertex 0 0 0
      vertex 0 20 4
      vertex 0 20 0
    endloop
  endfacet
  facet normal -1 -0 0
    outer loop
      vertex 0 20 4
      vertex 0 0 0
      vertex 0 0 4
    endloop
  endfacet
  facet normal 0 1 -0
    outer loop
      vertex 50 20 0
      vertex 0 20 4
      vertex 50 20 4
    endloop
  endfacet
  facet normal 0 1 0
    outer loop
      vertex 0 20 4
      vertex 50 20 0
      vertex 0 20 0
    endloop
  endfacet
  facet normal 0 -1 0
    outer loop
      vertex 0 0 4
      vertex 0 0 0
      vertex 50 0 4
    endloop
  endfacet
  facet normal 0 -1 0
    outer loop
      vertex 50 0 4
      vertex 70 0 20
      vertex 50 0 20
    endloop
  endfacet
  facet normal 0 -1 0
    outer loop
      vertex 50 0 4
      vertex 70 0 0
      vertex 70 0 20
    endloop
  endfacet
  facet normal 0 -1 0
    outer loop
      vertex 70 0 0
      vertex 50 0 4
      vertex 0 0 0
    endloop
  endfacet
  facet normal -0 0 1
    outer loop
      vertex 50 45 20
      vertex 70 0 20
      vertex 70 45 20
    endloop
  endfacet
  facet normal 0 0 1
    outer loop
      vertex 70 0 20
      vertex 50 45 20
      vertex 50 0 20
    endloop
  endfacet
  facet normal -1 0 0
    outer loop
      vertex 50 20 4
      vertex 50 45 0
      vertex 50 20 0
    endloop
  endfacet
  facet normal -1 0 0
    outer loop
      vertex 50 45 0
      vertex 50 20 4
      vertex 50 45 20
    endloop
  endfacet
  facet normal -1 0 0
    outer loop
      vertex 50 0 20
      vertex 50 20 4
      vertex 50 0 4
    endloop
  endfacet
  facet normal -1 0 0
    outer loop
      vertex 50 20 4
      vertex 50 0 20
      vertex 50 45 20
    endloop
  endfacet
  facet normal 0 1 -0
    outer loop
      vertex 70 45 0
      vertex 50 45 20
      vertex 70 45 20
    endloop
  endfacet
  facet normal 0 1 0
    outer loop
      vertex 50 45 20
      vertex 70 45 0
      vertex 50 45 0
    endloop
  endfacet
  facet normal -1 0 0
    outer loop
      vertex 66 4 4
      vertex 66 22 16
      vertex 66 22 4
    endloop
  endfacet
  facet normal -1 -0 0
    outer loop
      vertex 66 22 16
      vertex 66 4 4
      vertex 66 4 16
    endloop
  endfacet
  facet normal 0 0 -1
    outer loop
      vertex 54 4 16
      vertex 66 22 16
      vertex 66 4 16
    endloop
  endfacet
  facet normal -0 0 -1
    outer loop
      vertex 66 22 16
      vertex 54 4 16
      vertex 54 22 16
    endloop
  endfacet
  facet normal -0 0 1
    outer loop
      vertex 54 22 4
      vertex 66 4 4
      vertex 66 22 4
    endloop
  endfacet
  facet normal 0 0 1
    outer loop
      vertex 66 4 4
      vertex 54 22 4
      vertex 54 4 4
    endloop
  endfacet
  facet normal 1 -0 0
    outer loop
      vertex 54 4 16
      vertex 54 22 4
      vertex 54 22 16
    endloop
  endfacet
  facet normal 1 0 0
    outer loop
      vertex 54 22 4
      vertex 54 4 16
      vertex 54 4 4
    endloop
  endfacet
  facet normal 0 -1 0
    outer loop
      vertex 54 22 4
      vertex 66 22 16
      vertex 54 22 16
    endloop
  endfacet
  facet normal 0 -1 -0
    outer loop
      vertex 66 22 16
      vertex 54 22 4
      vertex 66 22 4
    endloop
  endfacet
  facet normal 0 1 -0
    outer loop
      vertex 66 4 4
      vertex 54 4 16
      vertex 66 4 16
    endloop
  endfacet
  facet normal 0 1 0
    outer loop
      vertex 54 4 16
      vertex 66 4 4
      vertex 54 4 4
    endloop
  endfacet
  facet normal 0 0 1
    outer loop
      vertex 6.24197 3.45587 4.8
      vertex 5.76509 3.56541 4.8
      vertex 5.77325 3.45102 4.8
    endloop
  endfacet
  facet normal 0 0 1
    outer loop
      vertex 5.92583 4.17973 4.8
      vertex 5.74063 3.66838 4.8
      vertex 5.76509 3.56541 4.8
    endloop
  endfacet
  facet normal 0 0 1
    outer loop
      vertex 5.92583 4.17973 4.8
      vertex 5.69986 3.75993 4.8
      vertex 5.74063 3.66838 4.8
    endloop
  endfacet
  facet normal 0 0 1
    outer loop
      vertex 5.92583 4.17973 4.8
      vertex 5.64278 3.84006 4.8
      vertex 5.69986 3.75993 4.8
    endloop
  endfacet
  facet normal 0 0 1
    outer loop
      vertex 5.48067 3.96544 4.8
      vertex 5.78877 4.27333 4.8
      vertex 5.63054 4.34613 4.8
    endloop
  endfacet
  facet normal 0 0 1
    outer loop
      vertex 5.92583 4.17973 4.8
      vertex 5.56938 3.90875 4.8
      vertex 5.64278 3.84006 4.8
    endloop
  endfacet
  facet normal 0 0 1
    outer loop
      vertex 5.78877 4.27333 4.8
      vertex 5.48067 3.96544 4.8
      vertex 5.56938 3.90875 4.8
    endloop
  endfacet
  facet normal 0 0 1
    outer loop
      vertex 5.37761 4.00954 4.8
      vertex 5.63054 4.34613 4.8
      vertex 5.45111 4.39812 4.8
    endloop
  endfacet
  facet normal 0 0 1
    outer loop
      vertex 5.63054 4.34613 4.8
      vertex 5.37761 4.00954 4.8
      vertex 5.48067 3.96544 4.8
    endloop
  endfacet
  facet normal 0 0 1
    outer loop
      vertex 5.45111 4.39812 4.8
      vertex 5.26019 4.04103 4.8
      vertex 5.37761 4.00954 4.8
    endloop
  endfacet
  facet normal 0 0 1
    outer loop
      vertex 5.25049 4.42932 4.8
      vertex 5.26019 4.04103 4.8
      vertex 5.45111 4.39812 4.8
    endloop
  endfacet
  facet normal 0 0 1
    outer loop
      vertex 5.25049 4.42932 4.8
      vertex 5.12842 4.05992 4.8
      vertex 5.26019 4.04103 4.8
    endloop
  endfacet
  facet normal 0 0 1
    outer loop
      vertex 5.02867 4.43973 4.8
      vertex 5.12842 4.05992 4.8
      vertex 5.25049 4.42932 4.8
    endloop
  endfacet
  facet normal 0 0 1
    outer loop
      vertex 5.02867 4.43973 4.8
      vertex 4.9823 4.06622 4.8
      vertex 5.12842 4.05992 4.8
    endloop
  endfacet
  facet normal 0 0 1
    outer loop
      vertex 5.02867 4.43973 4.8
      vertex 3.87642 4.06622 4.8
      vertex 4.9823 4.06622 4.8
    endloop
  endfacet
  facet normal 0 0 1
    outer loop
      vertex 3.41014 4.43973 4.8
      vertex 3.87642 2.79675 4.8
      vertex 3.87642 4.06622 4.8
    endloop
  endfacet
  facet normal 0 0 1
    outer loop
      vertex 3.41014 1 4.8
      vertex 3.87642 2.79675 4.8
      vertex 3.41014 4.43973 4.8
    endloop
  endfacet
  facet normal -0 0 1
    outer loop
      vertex 3.41014 4.43973 4.8
      vertex 3.87642 4.06622 4.8
      vertex 5.02867 4.43973 4.8
    endloop
  endfacet
  facet normal 0 0 1
    outer loop
      vertex 3.87642 2.79675 4.8
      vertex 3.41014 1 4.8
      vertex 3.87642 2.42812 4.8
    endloop
  endfacet
  facet normal 0 0 1
    outer loop
      vertex 3.87642 2.42812 4.8
      vertex 3.41014 1 4.8
      vertex 3.87642 1 4.8
    endloop
  endfacet
  facet normal -0 0 1
    outer loop
      vertex 5.76509 3.56541 4.8
      vertex 6.24197 3.45587 4.8
      vertex 6.22932 3.63327 4.8
    endloop
  endfacet
  facet normal 0 0 1
    outer loop
      vertex 6.24197 3.45587 4.8
      vertex 5.77325 3.45102 4.8
      vertex 6.23303 3.30745 4.8
    endloop
  endfacet
  facet normal 0 0 1
    outer loop
      vertex 5.76509 3.56541 4.8
      vertex 6.22932 3.63327 4.8
      vertex 6.19139 3.79434 4.8
    endloop
  endfacet
  facet normal -0 0 1
    outer loop
      vertex 5.7652 3.33252 4.8
      vertex 6.23303 3.30745 4.8
      vertex 5.77325 3.45102 4.8
    endloop
  endfacet
  facet normal 0 0 1
    outer loop
      vertex 5.76509 3.56541 4.8
      vertex 6.19139 3.79434 4.8
      vertex 6.12816 3.93912 4.8
    endloop
  endfacet
  facet normal 0 0 1
    outer loop
      vertex 6.23303 3.30745 4.8
      vertex 5.7652 3.33252 4.8
      vertex 6.20624 3.16879 4.8
    endloop
  endfacet
  facet normal 0 0 1
    outer loop
      vertex 5.76509 3.56541 4.8
      vertex 6.12816 3.93912 4.8
      vertex 6.03964 4.06758 4.8
    endloop
  endfacet
  facet normal -0 0 1
    outer loop
      vertex 5.74103 3.22505 4.8
      vertex 6.20624 3.16879 4.8
      vertex 5.7652 3.33252 4.8
    endloop
  endfacet
  facet normal 0 0 1
    outer loop
      vertex 5.76509 3.56541 4.8
      vertex 6.03964 4.06758 4.8
      vertex 5.92583 4.17973 4.8
    endloop
  endfacet
  facet normal 0 0 1
    outer loop
      vertex 6.20624 3.16879 4.8
      vertex 5.74103 3.22505 4.8
      vertex 6.16156 3.0399 4.8
    endloop
  endfacet
  facet normal -0 0 1
    outer loop
      vertex 5.70074 3.12863 4.8
      vertex 6.16156 3.0399 4.8
      vertex 5.74103 3.22505 4.8
    endloop
  endfacet
  facet normal 0 0 1
    outer loop
      vertex 5.56938 3.90875 4.8
      vertex 5.92583 4.17973 4.8
      vertex 5.78877 4.27333 4.8
    endloop
  endfacet
  facet normal 0 0 1
    outer loop
      vertex 6.16156 3.0399 4.8
      vertex 5.70074 3.12863 4.8
      vertex 6.09901 2.92078 4.8
    endloop
  endfacet
  facet normal 0 0 1
    outer loop
      vertex 6.09901 2.92078 4.8
      vertex 5.70074 3.12863 4.8
      vertex 6.01859 2.8114 4.8
    endloop
  endfacet
  facet normal -0 0 1
    outer loop
      vertex 5.64435 3.04323 4.8
      vertex 6.01859 2.8114 4.8
      vertex 5.70074 3.12863 4.8
    endloop
  endfacet
  facet normal 0 0 1
    outer loop
      vertex 6.01859 2.8114 4.8
      vertex 5.64435 3.04323 4.8
      vertex 5.92245 2.71463 4.8
    endloop
  endfacet
  facet normal -0 0 1
    outer loop
      vertex 5.57184 2.96887 4.8
      vertex 5.92245 2.71463 4.8
      vertex 5.64435 3.04323 4.8
    endloop
  endfacet
  facet normal 0 0 1
    outer loop
      vertex 5.92245 2.71463 4.8
      vertex 5.57184 2.96887 4.8
      vertex 5.81274 2.63329 4.8
    endloop
  endfacet
  facet normal 0 0 1
    outer loop
      vertex 5.81274 2.63329 4.8
      vertex 5.57184 2.96887 4.8
      vertex 5.68947 2.56737 4.8
    endloop
  endfacet
  facet normal -0 0 1
    outer loop
      vertex 5.48459 2.90691 4.8
      vertex 5.68947 2.56737 4.8
      vertex 5.57184 2.96887 4.8
    endloop
  endfacet
  facet normal 0 0 1
    outer loop
      vertex 5.68947 2.56737 4.8
      vertex 5.48459 2.90691 4.8
      vertex 5.55261 2.51689 4.8
    endloop
  endfacet
  facet normal -0 0 1
    outer loop
      vertex 5.38396 2.85872 4.8
      vertex 5.55261 2.51689 4.8
      vertex 5.48459 2.90691 4.8
    endloop
  endfacet
  facet normal 0 0 1
    outer loop
      vertex 5.55261 2.51689 4.8
      vertex 5.38396 2.85872 4.8
      vertex 5.40221 2.48183 4.8
    endloop
  endfacet
  facet normal 0 0 1
    outer loop
      vertex 5.40221 2.48183 4.8
      vertex 5.84161 1 4.8
      vertex 6.37871 1 4.8
    endloop
  endfacet
  facet normal -0 0 1
    outer loop
      vertex 5.26996 2.8243 4.8
      vertex 5.40221 2.48183 4.8
      vertex 5.38396 2.85872 4.8
    endloop
  endfacet
  facet normal -0 0 1
    outer loop
      vertex 5.14258 2.80363 4.8
      vertex 5.40221 2.48183 4.8
      vertex 5.26996 2.8243 4.8
    endloop
  endfacet
  facet normal 0 0 1
    outer loop
      vertex 5.40221 2.48183 4.8
      vertex 5.14258 2.80363 4.8
      vertex 4.94809 2.42812 4.8
    endloop
  endfacet
  facet normal 0 0 1
    outer loop
      vertex 4.94809 2.42812 4.8
      vertex 5.14258 2.80363 4.8
      vertex 5.00182 2.79675 4.8
    endloop
  endfacet
  facet normal 0 0 1
    outer loop
      vertex 5.40221 2.48183 4.8
      vertex 4.94809 2.42812 4.8
      vertex 5.84161 1 4.8
    endloop
  endfacet
  facet normal -0 0 1
    outer loop
      vertex 3.87642 2.79675 4.8
      vertex 4.94809 2.42812 4.8
      vertex 5.00182 2.79675 4.8
    endloop
  endfacet
  facet normal 0 0 1
    outer loop
      vertex 4.94809 2.42812 4.8
      vertex 3.87642 2.79675 4.8
      vertex 3.87642 2.42812 4.8
    endloop
  endfacet
  facet normal 0 0 1
    outer loop
      vertex 18.8942 3.39975 4.8
      vertex 19.3629 3.40462 4.8
      vertex 19.3502 3.59297 4.8
    endloop
  endfacet
  facet normal -0 0 1
    outer loop
      vertex 18.8622 3.63968 4.8
      vertex 19.3502 3.59297 4.8
      vertex 19.3121 3.76357 4.8
    endloop
  endfacet
  facet normal 0 0 1
    outer loop
      vertex 19.3629 3.40462 4.8
      vertex 18.8942 3.39975 4.8
      vertex 19.3502 3.21733 4.8
    endloop
  endfacet
  facet normal 0 0 1
    outer loop
      vertex 18.8622 3.63968 4.8
      vertex 19.3121 3.76357 4.8
      vertex 19.2487 3.9164 4.8
    endloop
  endfacet
  facet normal 0 0 1
    outer loop
      vertex 18.8629 3.15103 4.8
      vertex 19.3502 3.21733 4.8
      vertex 18.8942 3.39975 4.8
    endloop
  endfacet
  facet normal 0 0 1
    outer loop
      vertex 18.7661 3.82629 4.8
      vertex 19.2487 3.9164 4.8
      vertex 19.1598 4.05144 4.8
    endloop
  endfacet
  facet normal 0 0 1
    outer loop
      vertex 19.3502 3.21733 4.8
      vertex 18.8629 3.15103 4.8
      vertex 19.312 3.04605 4.8
    endloop
  endfacet
  facet normal 0 0 1
    outer loop
      vertex 18.7661 3.82629 4.8
      vertex 19.1598 4.05144 4.8
      vertex 19.0455 4.16872 4.8
    endloop
  endfacet
  facet normal 0 0 1
    outer loop
      vertex 19.312 3.04605 4.8
      vertex 18.8629 3.15103 4.8
      vertex 19.2482 2.89079 4.8
    endloop
  endfacet
  facet normal 0 0 1
    outer loop
      vertex 18.7661 3.82629 4.8
      vertex 19.0455 4.16872 4.8
      vertex 18.9082 4.26628 4.8
    endloop
  endfacet
  facet normal -0 0 1
    outer loop
      vertex 18.7692 2.9576 4.8
      vertex 19.2482 2.89079 4.8
      vertex 18.8629 3.15103 4.8
    endloop
  endfacet
  facet normal 0 0 1
    outer loop
      vertex 19.2482 2.89079 4.8
      vertex 18.7692 2.9576 4.8
      vertex 19.159 2.75154 4.8
    endloop
  endfacet
  facet normal 0 0 1
    outer loop
      vertex 19.3502 3.59297 4.8
      vertex 18.8622 3.63968 4.8
      vertex 18.8942 3.39975 4.8
    endloop
  endfacet
  facet normal 0 0 1
    outer loop
      vertex 19.2487 3.9164 4.8
      vertex 18.7661 3.82629 4.8
      vertex 18.8622 3.63968 4.8
    endloop
  endfacet
  facet normal 0 0 1
    outer loop
      vertex 18.6059 3.95958 4.8
      vertex 18.9082 4.26628 4.8
      vertex 18.7499 4.34216 4.8
    endloop
  endfacet
  facet normal 0 0 1
    outer loop
      vertex 18.9082 4.26628 4.8
      vertex 18.6059 3.95958 4.8
      vertex 18.7661 3.82629 4.8
    endloop
  endfacet
  facet normal 0 0 1
    outer loop
      vertex 18.5707 4.39636 4.8
      vertex 18.6059 3.95958 4.8
      vertex 18.7499 4.34216 4.8
    endloop
  endfacet
  facet normal 0 0 1
    outer loop
      vertex 18.5707 4.39636 4.8
      vertex 18.3817 4.03957 4.8
      vertex 18.6059 3.95958 4.8
    endloop
  endfacet
  facet normal 0 0 1
    outer loop
      vertex 18.3706 4.42888 4.8
      vertex 18.3817 4.03957 4.8
      vertex 18.5707 4.39636 4.8
    endloop
  endfacet
  facet normal 0 0 1
    outer loop
      vertex 18.0935 4.06622 4.8
      vertex 18.3706 4.42888 4.8
      vertex 18.1496 4.43973 4.8
    endloop
  endfacet
  facet normal 0 0 1
    outer loop
      vertex 18.3706 4.42888 4.8
      vertex 18.0935 4.06622 4.8
      vertex 18.3817 4.03957 4.8
    endloop
  endfacet
  facet normal 0 0 1
    outer loop
      vertex 18.1496 4.43973 4.8
      vertex 17.1683 4.06622 4.8
      vertex 18.0935 4.06622 4.8
    endloop
  endfacet
  facet normal 0 0 1
    outer loop
      vertex 16.702 4.43973 4.8
      vertex 17.1683 2.70888 4.8
      vertex 17.1683 4.06622 4.8
    endloop
  endfacet
  facet normal 0 0 1
    outer loop
      vertex 16.702 1 4.8
      vertex 17.1683 2.70888 4.8
      vertex 16.702 4.43973 4.8
    endloop
  endfacet
  facet normal -0 0 1
    outer loop
      vertex 16.702 4.43973 4.8
      vertex 17.1683 4.06622 4.8
      vertex 18.1496 4.43973 4.8
    endloop
  endfacet
  facet normal 0 0 1
    outer loop
      vertex 17.1683 2.70888 4.8
      vertex 16.702 1 4.8
      vertex 17.1683 2.34024 4.8
    endloop
  endfacet
  facet normal 0 0 1
    outer loop
      vertex 17.1683 2.34024 4.8
      vertex 16.702 1 4.8
      vertex 17.1683 1 4.8
    endloop
  endfacet
  facet normal 0 0 1
    outer loop
      vertex 19.159 2.75154 4.8
      vertex 18.7692 2.9576 4.8
      vertex 19.0443 2.62831 4.8
    endloop
  endfacet
  facet normal 0 0 1
    outer loop
      vertex 19.0443 2.62831 4.8
      vertex 18.7692 2.9576 4.8
      vertex 18.9078 2.5246 4.8
    endloop
  endfacet
  facet normal -0 0 1
    outer loop
      vertex 18.613 2.81941 4.8
      vertex 18.9078 2.5246 4.8
      vertex 18.7692 2.9576 4.8
    endloop
  endfacet
  facet normal 0 0 1
    outer loop
      vertex 18.9078 2.5246 4.8
      vertex 18.613 2.81941 4.8
      vertex 18.7529 2.44394 4.8
    endloop
  endfacet
  facet normal 0 0 1
    outer loop
      vertex 18.613 2.81941 4.8
      vertex 18.5799 2.38632 4.8
      vertex 18.7529 2.44394 4.8
    endloop
  endfacet
  facet normal -0 0 1
    outer loop
      vertex 18.3942 2.73651 4.8
      vertex 18.5799 2.38632 4.8
      vertex 18.613 2.81941 4.8
    endloop
  endfacet
  facet normal 0 0 1
    outer loop
      vertex 18.3942 2.73651 4.8
      vertex 18.3885 2.35176 4.8
      vertex 18.5799 2.38632 4.8
    endloop
  endfacet
  facet normal 0 0 1
    outer loop
      vertex 18.3942 2.73651 4.8
      vertex 18.1789 2.34024 4.8
      vertex 18.3885 2.35176 4.8
    endloop
  endfacet
  facet normal -0 0 1
    outer loop
      vertex 18.113 2.70888 4.8
      vertex 18.1789 2.34024 4.8
      vertex 18.3942 2.73651 4.8
    endloop
  endfacet
  facet normal 0 0 1
    outer loop
      vertex 17.1683 2.34024 4.8
      vertex 18.113 2.70888 4.8
      vertex 17.1683 2.70888 4.8
    endloop
  endfacet
  facet normal 0 0 1
    outer loop
      vertex 18.113 2.70888 4.8
      vertex 17.1683 2.34024 4.8
      vertex 18.1789 2.34024 4.8
    endloop
  endfacet
  facet normal 0 0 1
    outer loop
      vertex 9.54602 4.43973 4.8
      vertex 7.40262 4.05888 4.8
      vertex 9.54602 4.05888 4.8
    endloop
  endfacet
  facet normal 0 0 1
    outer loop
      vertex 6.93634 4.43973 4.8
      vertex 7.40262 2.95544 4.8
      vertex 7.40262 4.05888 4.8
    endloop
  endfacet
  facet normal 0 0 1
    outer loop
      vertex 7.40262 2.95544 4.8
      vertex 6.93634 4.43973 4.8
      vertex 7.40262 2.5795 4.8
    endloop
  endfacet
  facet normal 0 0 1
    outer loop
      vertex 6.93634 1 4.8
      vertex 7.40262 2.5795 4.8
      vertex 6.93634 4.43973 4.8
    endloop
  endfacet
  facet normal -0 0 1
    outer loop
      vertex 6.93634 4.43973 4.8
      vertex 7.40262 4.05888 4.8
      vertex 9.54602 4.43973 4.8
    endloop
  endfacet
  facet normal -0 0 1
    outer loop
      vertex 7.40262 2.95544 4.8
      vertex 9.39954 2.5795 4.8
      vertex 9.39954 2.95544 4.8
    endloop
  endfacet
  facet normal 0 0 1
    outer loop
      vertex 9.39954 2.5795 4.8
      vertex 7.40262 2.95544 4.8
      vertex 7.40262 2.5795 4.8
    endloop
  endfacet
  facet normal -0 0 1
    outer loop
      vertex 7.40262 1.38083 4.8
      vertex 9.6461 1 4.8
      vertex 9.6461 1.38083 4.8
    endloop
  endfacet
  facet normal 0 0 1
    outer loop
      vertex 7.40262 1.38083 4.8
      vertex 6.93634 1 4.8
      vertex 9.6461 1 4.8
    endloop
  endfacet
  facet normal 0 0 1
    outer loop
      vertex 7.40262 2.5795 4.8
      vertex 6.93634 1 4.8
      vertex 7.40262 1.38083 4.8
    endloop
  endfacet
  facet normal -0 0 1
    outer loop
      vertex 14.192 2.18399 4.8
      vertex 14.6119 1 4.8
      vertex 14.6119 4.43973 4.8
    endloop
  endfacet
  facet normal 0 0 1
    outer loop
      vertex 14.6119 1 4.8
      vertex 14.2108 1.67152 4.8
      vertex 14.2213 1.49068 4.8
    endloop
  endfacet
  facet normal 0 0 1
    outer loop
      vertex 14.6119 1 4.8
      vertex 14.2026 1.83128 4.8
      vertex 14.2108 1.67152 4.8
    endloop
  endfacet
  facet normal 0 0 1
    outer loop
      vertex 14.6119 1 4.8
      vertex 14.1967 1.96996 4.8
      vertex 14.2026 1.83128 4.8
    endloop
  endfacet
  facet normal 0 0 1
    outer loop
      vertex 14.6119 1 4.8
      vertex 14.1932 2.08752 4.8
      vertex 14.1967 1.96996 4.8
    endloop
  endfacet
  facet normal 0 0 1
    outer loop
      vertex 14.192 2.18399 4.8
      vertex 14.6119 4.43973 4.8
      vertex 14.192 4.43973 4.8
    endloop
  endfacet
  facet normal 0 0 1
    outer loop
      vertex 14.6119 1 4.8
      vertex 14.192 2.18399 4.8
      vertex 14.1932 2.08752 4.8
    endloop
  endfacet
  facet normal 0 0 1
    outer loop
      vertex 14.2213 1.49068 4.8
      vertex 14.0504 1 4.8
      vertex 14.6119 1 4.8
    endloop
  endfacet
  facet normal -0 0 1
    outer loop
      vertex 12.2098 3.92949 4.8
      vertex 14.2213 1.49068 4.8
      vertex 12.3611 4.43973 4.8
    endloop
  endfacet
  facet normal 0 0 1
    outer loop
      vertex 14.2213 1.49068 4.8
      vertex 12.2098 3.92949 4.8
      vertex 14.0504 1 4.8
    endloop
  endfacet
  facet normal 0 -0 1
    outer loop
      vertex 12.2098 3.92949 4.8
      vertex 12.3611 4.43973 4.8
      vertex 11.8192 4.43973 4.8
    endloop
  endfacet
  facet normal 0 0 1
    outer loop
      vertex 11.8192 4.43973 4.8
      vertex 12.2342 3.28502 4.8
      vertex 12.222 3.69269 4.8
    endloop
  endfacet
  facet normal 0 0 1
    outer loop
      vertex 11.8192 4.43973 4.8
      vertex 12.222 3.69269 4.8
      vertex 12.2098 3.92949 4.8
    endloop
  endfacet
  facet normal 0 0 1
    outer loop
      vertex 12.2342 3.28502 4.8
      vertex 11.8192 4.43973 4.8
      vertex 11.8192 1 4.8
    endloop
  endfacet
  facet normal 0 0 1
    outer loop
      vertex 12.2342 3.28502 4.8
      vertex 11.8192 1 4.8
      vertex 12.2342 1 4.8
    endloop
  endfacet
  facet normal -0 0 1
    outer loop
      vertex 10.0052 2.52333 4.8
      vertex 11.2258 2.13274 4.8
      vertex 11.2258 2.52333 4.8
    endloop
  endfacet
  facet normal 0 0 1
    outer loop
      vertex 11.2258 2.13274 4.8
      vertex 10.0052 2.52333 4.8
      vertex 10.0052 2.13274 4.8
    endloop
  endfacet
  facet normal -0 0 1
    outer loop
      vertex 19.9588 4.43973 4.8
      vertex 20.4251 2.98474 4.8
      vertex 20.4251 4.43973 4.8
    endloop
  endfacet
  facet normal 0 0 1
    outer loop
      vertex 20.4251 2.98474 4.8
      vertex 19.9588 4.43973 4.8
      vertex 20.4251 2.59415 4.8
    endloop
  endfacet
  facet normal 0 0 1
    outer loop
      vertex 19.9588 1 4.8
      vertex 20.4251 2.59415 4.8
      vertex 19.9588 4.43973 4.8
    endloop
  endfacet
  facet normal 0 0 1
    outer loop
      vertex 20.4251 2.59415 4.8
      vertex 19.9588 1 4.8
      vertex 20.4251 1 4.8
    endloop
  endfacet
  facet normal -0 0 1
    outer loop
      vertex 20.4251 2.98474 4.8
      vertex 22.2853 2.59415 4.8
      vertex 22.2853 2.98474 4.8
    endloop
  endfacet
  facet normal 0 0 1
    outer loop
      vertex 22.2853 2.59415 4.8
      vertex 20.4251 2.98474 4.8
      vertex 20.4251 2.59415 4.8
    endloop
  endfacet
  facet normal 0 0 1
    outer loop
      vertex 22.2853 2.98474 4.8
      vertex 22.7516 4.43973 4.8
      vertex 22.2853 4.43973 4.8
    endloop
  endfacet
  facet normal 0 0 1
    outer loop
      vertex 22.2853 2.59415 4.8
      vertex 22.7516 4.43973 4.8
      vertex 22.2853 2.98474 4.8
    endloop
  endfacet
  facet normal 0 0 1
    outer loop
      vertex 22.7516 4.43973 4.8
      vertex 22.2853 2.59415 4.8
      vertex 22.7516 1 4.8
    endloop
  endfacet
  facet normal 0 0 1
    outer loop
      vertex 22.7516 1 4.8
      vertex 22.2853 2.59415 4.8
      vertex 22.2853 1 4.8
    endloop
  endfacet
  facet normal 0 -1 0
    outer loop
      vertex 3.87642 2.42812 4
      vertex 4.94809 2.42812 4.8
      vertex 3.87642 2.42812 4.8
    endloop
  endfacet
  facet normal 0 -1 -0
    outer loop
      vertex 4.94809 2.42812 4.8
      vertex 3.87642 2.42812 4
      vertex 4.94809 2.42812 4
    endloop
  endfacet
  facet normal -0.847746 -0.530402 0
    outer loop
      vertex 5.84161 1 4
      vertex 4.94809 2.42812 4.8
      vertex 4.94809 2.42812 4
    endloop
  endfacet
  facet normal -0.847746 -0.530402 0
    outer loop
      vertex 4.94809 2.42812 4.8
      vertex 5.84161 1 4
      vertex 5.84161 1 4.8
    endloop
  endfacet
  facet normal 0 -1 0
    outer loop
      vertex 5.84161 1 4
      vertex 6.37871 1 4.8
      vertex 5.84161 1 4.8
    endloop
  endfacet
  facet normal 0 -1 -0
    outer loop
      vertex 6.37871 1 4.8
      vertex 5.84161 1 4
      vertex 6.37871 1 4
    endloop
  endfacet
  facet normal 0.835 0.55025 0
    outer loop
      vertex 6.37871 1 4.8
      vertex 5.40221 2.48183 4
      vertex 5.40221 2.48183 4.8
    endloop
  endfacet
  facet normal 0.835 0.55025 0
    outer loop
      vertex 5.40221 2.48183 4
      vertex 6.37871 1 4.8
      vertex 6.37871 1 4
    endloop
  endfacet
  facet normal 0.227025 -0.973889 0
    outer loop
      vertex 5.40221 2.48183 4
      vertex 5.55261 2.51689 4.8
      vertex 5.40221 2.48183 4.8
    endloop
  endfacet
  facet normal 0.227025 -0.973889 0
    outer loop
      vertex 5.55261 2.51689 4.8
      vertex 5.40221 2.48183 4
      vertex 5.55261 2.51689 4
    endloop
  endfacet
  facet normal 0.346055 -0.938214 0
    outer loop
      vertex 5.55261 2.51689 4
      vertex 5.68947 2.56737 4.8
      vertex 5.55261 2.51689 4.8
    endloop
  endfacet
  facet normal 0.346055 -0.938214 0
    outer loop
      vertex 5.68947 2.56737 4.8
      vertex 5.55261 2.51689 4
      vertex 5.68947 2.56737 4
    endloop
  endfacet
  facet normal 0.471568 -0.88183 0
    outer loop
      vertex 5.68947 2.56737 4
      vertex 5.81274 2.63329 4.8
      vertex 5.68947 2.56737 4.8
    endloop
  endfacet
  facet normal 0.471568 -0.88183 0
    outer loop
      vertex 5.81274 2.63329 4.8
      vertex 5.68947 2.56737 4
      vertex 5.81274 2.63329 4
    endloop
  endfacet
  facet normal 0.595574 -0.8033 0
    outer loop
      vertex 5.81274 2.63329 4
      vertex 5.92245 2.71463 4.8
      vertex 5.81274 2.63329 4.8
    endloop
  endfacet
  facet normal 0.595574 -0.8033 0
    outer loop
      vertex 5.92245 2.71463 4.8
      vertex 5.81274 2.63329 4
      vertex 5.92245 2.71463 4
    endloop
  endfacet
  facet normal 0.709412 -0.704794 0
    outer loop
      vertex 5.92245 2.71463 4.8
      vertex 6.01859 2.8114 4
      vertex 6.01859 2.8114 4.8
    endloop
  endfacet
  facet normal 0.709412 -0.704794 0
    outer loop
      vertex 6.01859 2.8114 4
      vertex 5.92245 2.71463 4.8
      vertex 5.92245 2.71463 4
    endloop
  endfacet
  facet normal 0.805674 -0.59236 0
    outer loop
      vertex 6.01859 2.8114 4.8
      vertex 6.09901 2.92078 4
      vertex 6.09901 2.92078 4.8
    endloop
  endfacet
  facet normal 0.805674 -0.59236 0
    outer loop
      vertex 6.09901 2.92078 4
      vertex 6.01859 2.8114 4.8
      vertex 6.01859 2.8114 4
    endloop
  endfacet
  facet normal 0.885361 -0.464904 0
    outer loop
      vertex 6.09901 2.92078 4.8
      vertex 6.16156 3.0399 4
      vertex 6.16156 3.0399 4.8
    endloop
  endfacet
  facet normal 0.885361 -0.464904 0
    outer loop
      vertex 6.16156 3.0399 4
      vertex 6.09901 2.92078 4.8
      vertex 6.09901 2.92078 4
    endloop
  endfacet
  facet normal 0.94484 -0.327531 0
    outer loop
      vertex 6.16156 3.0399 4.8
      vertex 6.20624 3.16879 4
      vertex 6.20624 3.16879 4.8
    endloop
  endfacet
  facet normal 0.94484 -0.327531 0
    outer loop
      vertex 6.20624 3.16879 4
      vertex 6.16156 3.0399 4.8
      vertex 6.16156 3.0399 4
    endloop
  endfacet
  facet normal 0.981842 -0.189698 0
    outer loop
      vertex 6.20624 3.16879 4.8
      vertex 6.23303 3.30745 4
      vertex 6.23303 3.30745 4.8
    endloop
  endfacet
  facet normal 0.981842 -0.189698 0
    outer loop
      vertex 6.23303 3.30745 4
      vertex 6.20624 3.16879 4.8
      vertex 6.20624 3.16879 4
    endloop
  endfacet
  facet normal 0.998191 -0.0601255 0
    outer loop
      vertex 6.23303 3.30745 4.8
      vertex 6.24197 3.45587 4
      vertex 6.24197 3.45587 4.8
    endloop
  endfacet
  facet normal 0.998191 -0.0601255 0
    outer loop
      vertex 6.24197 3.45587 4
      vertex 6.23303 3.30745 4.8
      vertex 6.23303 3.30745 4
    endloop
  endfacet
  facet normal 0.997467 0.0711272 0
    outer loop
      vertex 6.24197 3.45587 4.8
      vertex 6.22932 3.63327 4
      vertex 6.22932 3.63327 4.8
    endloop
  endfacet
  facet normal 0.997467 0.0711272 0
    outer loop
      vertex 6.22932 3.63327 4
      vertex 6.24197 3.45587 4.8
      vertex 6.24197 3.45587 4
    endloop
  endfacet
  facet normal 0.973375 0.229218 0
    outer loop
      vertex 6.22932 3.63327 4.8
      vertex 6.19139 3.79434 4
      vertex 6.19139 3.79434 4.8
    endloop
  endfacet
  facet normal 0.973375 0.229218 0
    outer loop
      vertex 6.19139 3.79434 4
      vertex 6.22932 3.63327 4.8
      vertex 6.22932 3.63327 4
    endloop
  endfacet
  facet normal 0.916416 0.400228 0
    outer loop
      vertex 6.19139 3.79434 4.8
      vertex 6.12816 3.93912 4
      vertex 6.12816 3.93912 4.8
    endloop
  endfacet
  facet normal 0.916416 0.400228 0
    outer loop
      vertex 6.12816 3.93912 4
      vertex 6.19139 3.79434 4.8
      vertex 6.19139 3.79434 4
    endloop
  endfacet
  facet normal 0.823432 0.567415 0
    outer loop
      vertex 6.12816 3.93912 4.8
      vertex 6.03964 4.06758 4
      vertex 6.03964 4.06758 4.8
    endloop
  endfacet
  facet normal 0.823432 0.567415 0
    outer loop
      vertex 6.03964 4.06758 4
      vertex 6.12816 3.93912 4.8
      vertex 6.12816 3.93912 4
    endloop
  endfacet
  facet normal 0.701893 0.712282 -0
    outer loop
      vertex 6.03964 4.06758 4
      vertex 5.92583 4.17973 4.8
      vertex 6.03964 4.06758 4.8
    endloop
  endfacet
  facet normal 0.701893 0.712282 0
    outer loop
      vertex 5.92583 4.17973 4.8
      vertex 6.03964 4.06758 4
      vertex 5.92583 4.17973 4
    endloop
  endfacet
  facet normal 0.563954 0.825806 -0
    outer loop
      vertex 5.92583 4.17973 4
      vertex 5.78877 4.27333 4.8
      vertex 5.92583 4.17973 4.8
    endloop
  endfacet
  facet normal 0.563954 0.825806 0
    outer loop
      vertex 5.78877 4.27333 4.8
      vertex 5.92583 4.17973 4
      vertex 5.78877 4.27333 4
    endloop
  endfacet
  facet normal 0.417973 0.908459 -0
    outer loop
      vertex 5.78877 4.27333 4
      vertex 5.63054 4.34613 4.8
      vertex 5.78877 4.27333 4.8
    endloop
  endfacet
  facet normal 0.417973 0.908459 0
    outer loop
      vertex 5.63054 4.34613 4.8
      vertex 5.78877 4.27333 4
      vertex 5.63054 4.34613 4
    endloop
  endfacet
  facet normal 0.278304 0.960493 -0
    outer loop
      vertex 5.63054 4.34613 4
      vertex 5.45111 4.39812 4.8
      vertex 5.63054 4.34613 4.8
    endloop
  endfacet
  facet normal 0.278304 0.960493 0
    outer loop
      vertex 5.45111 4.39812 4.8
      vertex 5.63054 4.34613 4
      vertex 5.45111 4.39812 4
    endloop
  endfacet
  facet normal 0.153671 0.988122 -0
    outer loop
      vertex 5.45111 4.39812 4
      vertex 5.25049 4.42932 4.8
      vertex 5.45111 4.39812 4.8
    endloop
  endfacet
  facet normal 0.153671 0.988122 0
    outer loop
      vertex 5.25049 4.42932 4.8
      vertex 5.45111 4.39812 4
      vertex 5.25049 4.42932 4
    endloop
  endfacet
  facet normal 0.0468783 0.998901 -0
    outer loop
      vertex 5.25049 4.42932 4
      vertex 5.02867 4.43973 4.8
      vertex 5.25049 4.42932 4.8
    endloop
  endfacet
  facet normal 0.0468783 0.998901 0
    outer loop
      vertex 5.02867 4.43973 4.8
      vertex 5.25049 4.42932 4
      vertex 5.02867 4.43973 4
    endloop
  endfacet
  facet normal 0 1 -0
    outer loop
      vertex 5.02867 4.43973 4
      vertex 3.41014 4.43973 4.8
      vertex 5.02867 4.43973 4.8
    endloop
  endfacet
  facet normal 0 1 0
    outer loop
      vertex 3.41014 4.43973 4.8
      vertex 5.02867 4.43973 4
      vertex 3.41014 4.43973 4
    endloop
  endfacet
  facet normal -1 0 0
    outer loop
      vertex 3.41014 1 4
      vertex 3.41014 4.43973 4.8
      vertex 3.41014 4.43973 4
    endloop
  endfacet
  facet normal -1 -0 0
    outer loop
      vertex 3.41014 4.43973 4.8
      vertex 3.41014 1 4
      vertex 3.41014 1 4.8
    endloop
  endfacet
  facet normal 0 -1 0
    outer loop
      vertex 3.41014 1 4
      vertex 3.87642 1 4.8
      vertex 3.41014 1 4.8
    endloop
  endfacet
  facet normal 0 -1 -0
    outer loop
      vertex 3.87642 1 4.8
      vertex 3.41014 1 4
      vertex 3.87642 1 4
    endloop
  endfacet
  facet normal 1 -0 0
    outer loop
      vertex 3.87642 1 4.8
      vertex 3.87642 2.42812 4
      vertex 3.87642 2.42812 4.8
    endloop
  endfacet
  facet normal 1 0 0
    outer loop
      vertex 3.87642 2.42812 4
      vertex 3.87642 1 4.8
      vertex 3.87642 1 4
    endloop
  endfacet
  facet normal 1 -0 0
    outer loop
      vertex 3.87642 2.79675 4.8
      vertex 3.87642 4.06622 4
      vertex 3.87642 4.06622 4.8
    endloop
  endfacet
  facet normal 1 0 0
    outer loop
      vertex 3.87642 4.06622 4
      vertex 3.87642 2.79675 4.8
      vertex 3.87642 2.79675 4
    endloop
  endfacet
  facet normal 0 -1 0
    outer loop
      vertex 3.87642 4.06622 4
      vertex 4.9823 4.06622 4.8
      vertex 3.87642 4.06622 4.8
    endloop
  endfacet
  facet normal 0 -1 -0
    outer loop
      vertex 4.9823 4.06622 4.8
      vertex 3.87642 4.06622 4
      vertex 4.9823 4.06622 4
    endloop
  endfacet
  facet normal -0.0430752 -0.999072 0
    outer loop
      vertex 4.9823 4.06622 4
      vertex 5.12842 4.05992 4.8
      vertex 4.9823 4.06622 4.8
    endloop
  endfacet
  facet normal -0.0430752 -0.999072 -0
    outer loop
      vertex 5.12842 4.05992 4.8
      vertex 4.9823 4.06622 4
      vertex 5.12842 4.05992 4
    endloop
  endfacet
  facet normal -0.141905 -0.98988 0
    outer loop
      vertex 5.12842 4.05992 4
      vertex 5.26019 4.04103 4.8
      vertex 5.12842 4.05992 4.8
    endloop
  endfacet
  facet normal -0.141905 -0.98988 -0
    outer loop
      vertex 5.26019 4.04103 4.8
      vertex 5.12842 4.05992 4
      vertex 5.26019 4.04103 4
    endloop
  endfacet
  facet normal -0.259029 -0.965869 0
    outer loop
      vertex 5.26019 4.04103 4
      vertex 5.37761 4.00954 4.8
      vertex 5.26019 4.04103 4.8
    endloop
  endfacet
  facet normal -0.259029 -0.965869 -0
    outer loop
      vertex 5.37761 4.00954 4.8
      vertex 5.26019 4.04103 4
      vertex 5.37761 4.00954 4
    endloop
  endfacet
  facet normal -0.393402 -0.919366 0
    outer loop
      vertex 5.37761 4.00954 4
      vertex 5.48067 3.96544 4.8
      vertex 5.37761 4.00954 4.8
    endloop
  endfacet
  facet normal -0.393402 -0.919366 -0
    outer loop
      vertex 5.48067 3.96544 4.8
      vertex 5.37761 4.00954 4
      vertex 5.48067 3.96544 4
    endloop
  endfacet
  facet normal -0.538485 -0.842635 0
    outer loop
      vertex 5.48067 3.96544 4
      vertex 5.56938 3.90875 4.8
      vertex 5.48067 3.96544 4.8
    endloop
  endfacet
  facet normal -0.538485 -0.842635 -0
    outer loop
      vertex 5.56938 3.90875 4.8
      vertex 5.48067 3.96544 4
      vertex 5.56938 3.90875 4
    endloop
  endfacet
  facet normal -0.683292 -0.730145 0
    outer loop
      vertex 5.56938 3.90875 4
      vertex 5.64278 3.84006 4.8
      vertex 5.56938 3.90875 4.8
    endloop
  endfacet
  facet normal -0.683292 -0.730145 -0
    outer loop
      vertex 5.64278 3.84006 4.8
      vertex 5.56938 3.90875 4
      vertex 5.64278 3.84006 4
    endloop
  endfacet
  facet normal -0.814481 -0.58019 0
    outer loop
      vertex 5.69986 3.75993 4
      vertex 5.64278 3.84006 4.8
      vertex 5.64278 3.84006 4
    endloop
  endfacet
  facet normal -0.814481 -0.58019 0
    outer loop
      vertex 5.64278 3.84006 4.8
      vertex 5.69986 3.75993 4
      vertex 5.69986 3.75993 4.8
    endloop
  endfacet
  facet normal -0.913511 -0.406814 0
    outer loop
      vertex 5.74063 3.66838 4
      vertex 5.69986 3.75993 4.8
      vertex 5.69986 3.75993 4
    endloop
  endfacet
  facet normal -0.913511 -0.406814 0
    outer loop
      vertex 5.69986 3.75993 4.8
      vertex 5.74063 3.66838 4
      vertex 5.74063 3.66838 4.8
    endloop
  endfacet
  facet normal -0.972927 -0.231114 0
    outer loop
      vertex 5.76509 3.56541 4
      vertex 5.74063 3.66838 4.8
      vertex 5.74063 3.66838 4
    endloop
  endfacet
  facet normal -0.972927 -0.231114 0
    outer loop
      vertex 5.74063 3.66838 4.8
      vertex 5.76509 3.56541 4
      vertex 5.76509 3.56541 4.8
    endloop
  endfacet
  facet normal -0.997465 -0.0711541 0
    outer loop
      vertex 5.77325 3.45102 4
      vertex 5.76509 3.56541 4.8
      vertex 5.76509 3.56541 4
    endloop
  endfacet
  facet normal -0.997465 -0.0711541 0
    outer loop
      vertex 5.76509 3.56541 4.8
      vertex 5.77325 3.45102 4
      vertex 5.77325 3.45102 4.8
    endloop
  endfacet
  facet normal -0.997701 0.0677763 0
    outer loop
      vertex 5.7652 3.33252 4
      vertex 5.77325 3.45102 4.8
      vertex 5.77325 3.45102 4
    endloop
  endfacet
  facet normal -0.997701 0.0677763 0
    outer loop
      vertex 5.77325 3.45102 4.8
      vertex 5.7652 3.33252 4
      vertex 5.7652 3.33252 4.8
    endloop
  endfacet
  facet normal -0.975631 0.219419 0
    outer loop
      vertex 5.74103 3.22505 4
      vertex 5.7652 3.33252 4.8
      vertex 5.7652 3.33252 4
    endloop
  endfacet
  facet normal -0.975631 0.219419 0
    outer loop
      vertex 5.7652 3.33252 4.8
      vertex 5.74103 3.22505 4
      vertex 5.74103 3.22505 4.8
    endloop
  endfacet
  facet normal -0.922686 0.385553 0
    outer loop
      vertex 5.70074 3.12863 4
      vertex 5.74103 3.22505 4.8
      vertex 5.74103 3.22505 4
    endloop
  endfacet
  facet normal -0.922686 0.385553 0
    outer loop
      vertex 5.74103 3.22505 4.8
      vertex 5.70074 3.12863 4
      vertex 5.70074 3.12863 4.8
    endloop
  endfacet
  facet normal -0.834493 0.551019 0
    outer loop
      vertex 5.64435 3.04323 4
      vertex 5.70074 3.12863 4.8
      vertex 5.70074 3.12863 4
    endloop
  endfacet
  facet normal -0.834493 0.551019 0
    outer loop
      vertex 5.70074 3.12863 4.8
      vertex 5.64435 3.04323 4
      vertex 5.64435 3.04323 4.8
    endloop
  endfacet
  facet normal -0.715957 0.698145 0
    outer loop
      vertex 5.57184 2.96887 4
      vertex 5.64435 3.04323 4.8
      vertex 5.64435 3.04323 4
    endloop
  endfacet
  facet normal -0.715957 0.698145 0
    outer loop
      vertex 5.64435 3.04323 4.8
      vertex 5.57184 2.96887 4
      vertex 5.57184 2.96887 4.8
    endloop
  endfacet
  facet normal -0.579 0.815328 0
    outer loop
      vertex 5.57184 2.96887 4
      vertex 5.48459 2.90691 4.8
      vertex 5.57184 2.96887 4.8
    endloop
  endfacet
  facet normal -0.579 0.815328 0
    outer loop
      vertex 5.48459 2.90691 4.8
      vertex 5.57184 2.96887 4
      vertex 5.48459 2.90691 4
    endloop
  endfacet
  facet normal -0.431912 0.901916 0
    outer loop
      vertex 5.48459 2.90691 4
      vertex 5.38396 2.85872 4.8
      vertex 5.48459 2.90691 4.8
    endloop
  endfacet
  facet normal -0.431912 0.901916 0
    outer loop
      vertex 5.38396 2.85872 4.8
      vertex 5.48459 2.90691 4
      vertex 5.38396 2.85872 4
    endloop
  endfacet
  facet normal -0.289042 0.957316 0
    outer loop
      vertex 5.38396 2.85872 4
      vertex 5.26996 2.8243 4.8
      vertex 5.38396 2.85872 4.8
    endloop
  endfacet
  facet normal -0.289042 0.957316 0
    outer loop
      vertex 5.26996 2.8243 4.8
      vertex 5.38396 2.85872 4
      vertex 5.26996 2.8243 4
    endloop
  endfacet
  facet normal -0.160175 0.987089 0
    outer loop
      vertex 5.26996 2.8243 4
      vertex 5.14258 2.80363 4.8
      vertex 5.26996 2.8243 4.8
    endloop
  endfacet
  facet normal -0.160175 0.987089 0
    outer loop
      vertex 5.14258 2.80363 4.8
      vertex 5.26996 2.8243 4
      vertex 5.14258 2.80363 4
    endloop
  endfacet
  facet normal -0.0488192 0.998808 0
    outer loop
      vertex 5.14258 2.80363 4
      vertex 5.00182 2.79675 4.8
      vertex 5.14258 2.80363 4.8
    endloop
  endfacet
  facet normal -0.0488192 0.998808 0
    outer loop
      vertex 5.00182 2.79675 4.8
      vertex 5.14258 2.80363 4
      vertex 5.00182 2.79675 4
    endloop
  endfacet
  facet normal 0 1 -0
    outer loop
      vertex 5.00182 2.79675 4
      vertex 3.87642 2.79675 4.8
      vertex 5.00182 2.79675 4.8
    endloop
  endfacet
  facet normal 0 1 0
    outer loop
      vertex 3.87642 2.79675 4.8
      vertex 5.00182 2.79675 4
      vertex 3.87642 2.79675 4
    endloop
  endfacet
  facet normal 0 1 -0
    outer loop
      vertex 9.6461 1.38083 4
      vertex 7.40262 1.38083 4.8
      vertex 9.6461 1.38083 4.8
    endloop
  endfacet
  facet normal 0 1 0
    outer loop
      vertex 7.40262 1.38083 4.8
      vertex 9.6461 1.38083 4
      vertex 7.40262 1.38083 4
    endloop
  endfacet
  facet normal 1 -0 0
    outer loop
      vertex 7.40262 1.38083 4.8
      vertex 7.40262 2.5795 4
      vertex 7.40262 2.5795 4.8
    endloop
  endfacet
  facet normal 1 0 0
    outer loop
      vertex 7.40262 2.5795 4
      vertex 7.40262 1.38083 4.8
      vertex 7.40262 1.38083 4
    endloop
  endfacet
  facet normal 0 -1 0
    outer loop
      vertex 7.40262 2.5795 4
      vertex 9.39954 2.5795 4.8
      vertex 7.40262 2.5795 4.8
    endloop
  endfacet
  facet normal 0 -1 -0
    outer loop
      vertex 9.39954 2.5795 4.8
      vertex 7.40262 2.5795 4
      vertex 9.39954 2.5795 4
    endloop
  endfacet
  facet normal 1 -0 0
    outer loop
      vertex 9.39954 2.5795 4.8
      vertex 9.39954 2.95544 4
      vertex 9.39954 2.95544 4.8
    endloop
  endfacet
  facet normal 1 0 0
    outer loop
      vertex 9.39954 2.95544 4
      vertex 9.39954 2.5795 4.8
      vertex 9.39954 2.5795 4
    endloop
  endfacet
  facet normal 0 1 -0
    outer loop
      vertex 9.39954 2.95544 4
      vertex 7.40262 2.95544 4.8
      vertex 9.39954 2.95544 4.8
    endloop
  endfacet
  facet normal 0 1 0
    outer loop
      vertex 7.40262 2.95544 4.8
      vertex 9.39954 2.95544 4
      vertex 7.40262 2.95544 4
    endloop
  endfacet
  facet normal 1 -0 0
    outer loop
      vertex 7.40262 2.95544 4.8
      vertex 7.40262 4.05888 4
      vertex 7.40262 4.05888 4.8
    endloop
  endfacet
  facet normal 1 0 0
    outer loop
      vertex 7.40262 4.05888 4
      vertex 7.40262 2.95544 4.8
      vertex 7.40262 2.95544 4
    endloop
  endfacet
  facet normal 0 -1 0
    outer loop
      vertex 7.40262 4.05888 4
      vertex 9.54602 4.05888 4.8
      vertex 7.40262 4.05888 4.8
    endloop
  endfacet
  facet normal 0 -1 -0
    outer loop
      vertex 9.54602 4.05888 4.8
      vertex 7.40262 4.05888 4
      vertex 9.54602 4.05888 4
    endloop
  endfacet
  facet normal 1 -0 0
    outer loop
      vertex 9.54602 4.05888 4.8
      vertex 9.54602 4.43973 4
      vertex 9.54602 4.43973 4.8
    endloop
  endfacet
  facet normal 1 0 0
    outer loop
      vertex 9.54602 4.43973 4
      vertex 9.54602 4.05888 4.8
      vertex 9.54602 4.05888 4
    endloop
  endfacet
  facet normal 0 1 -0
    outer loop
      vertex 9.54602 4.43973 4
      vertex 6.93634 4.43973 4.8
      vertex 9.54602 4.43973 4.8
    endloop
  endfacet
  facet normal 0 1 0
    outer loop
      vertex 6.93634 4.43973 4.8
      vertex 9.54602 4.43973 4
      vertex 6.93634 4.43973 4
    endloop
  endfacet
  facet normal -1 0 0
    outer loop
      vertex 6.93634 1 4
      vertex 6.93634 4.43973 4.8
      vertex 6.93634 4.43973 4
    endloop
  endfacet
  facet normal -1 -0 0
    outer loop
      vertex 6.93634 4.43973 4.8
      vertex 6.93634 1 4
      vertex 6.93634 1 4.8
    endloop
  endfacet
  facet normal 0 -1 0
    outer loop
      vertex 6.93634 1 4
      vertex 9.6461 1 4.8
      vertex 6.93634 1 4.8
    endloop
  endfacet
  facet normal 0 -1 -0
    outer loop
      vertex 9.6461 1 4.8
      vertex 6.93634 1 4
      vertex 9.6461 1 4
    endloop
  endfacet
  facet normal 1 -0 0
    outer loop
      vertex 9.6461 1 4.8
      vertex 9.6461 1.38083 4
      vertex 9.6461 1.38083 4.8
    endloop
  endfacet
  facet normal 1 0 0
    outer loop
      vertex 9.6461 1.38083 4
      vertex 9.6461 1 4.8
      vertex 9.6461 1 4
    endloop
  endfacet
  facet normal 0.999553 0.0299128 0
    outer loop
      vertex 12.2342 3.28502 4.8
      vertex 12.222 3.69269 4
      vertex 12.222 3.69269 4.8
    endloop
  endfacet
  facet normal 0.999553 0.0299128 0
    outer loop
      vertex 12.222 3.69269 4
      vertex 12.2342 3.28502 4.8
      vertex 12.2342 3.28502 4
    endloop
  endfacet
  facet normal 0.998675 0.051452 0
    outer loop
      vertex 12.222 3.69269 4.8
      vertex 12.2098 3.92949 4
      vertex 12.2098 3.92949 4.8
    endloop
  endfacet
  facet normal 0.998675 0.051452 0
    outer loop
      vertex 12.2098 3.92949 4
      vertex 12.222 3.69269 4.8
      vertex 12.222 3.69269 4
    endloop
  endfacet
  facet normal -0.84674 -0.532007 0
    outer loop
      vertex 14.0504 1 4
      vertex 12.2098 3.92949 4.8
      vertex 12.2098 3.92949 4
    endloop
  endfacet
  facet normal -0.84674 -0.532007 0
    outer loop
      vertex 12.2098 3.92949 4.8
      vertex 14.0504 1 4
      vertex 14.0504 1 4.8
    endloop
  endfacet
  facet normal 0 -1 0
    outer loop
      vertex 14.0504 1 4
      vertex 14.6119 1 4.8
      vertex 14.0504 1 4.8
    endloop
  endfacet
  facet normal 0 -1 -0
    outer loop
      vertex 14.6119 1 4.8
      vertex 14.0504 1 4
      vertex 14.6119 1 4
    endloop
  endfacet
  facet normal 1 -0 0
    outer loop
      vertex 14.6119 1 4.8
      vertex 14.6119 4.43973 4
      vertex 14.6119 4.43973 4.8
    endloop
  endfacet
  facet normal 1 0 0
    outer loop
      vertex 14.6119 4.43973 4
      vertex 14.6119 1 4.8
      vertex 14.6119 1 4
    endloop
  endfacet
  facet normal 0 1 -0
    outer loop
      vertex 14.6119 4.43973 4
      vertex 14.192 4.43973 4.8
      vertex 14.6119 4.43973 4.8
    endloop
  endfacet
  facet normal 0 1 0
    outer loop
      vertex 14.192 4.43973 4.8
      vertex 14.6119 4.43973 4
      vertex 14.192 4.43973 4
    endloop
  endfacet
  facet normal -1 0 0
    outer loop
      vertex 14.192 2.18399 4
      vertex 14.192 4.43973 4.8
      vertex 14.192 4.43973 4
    endloop
  endfacet
  facet normal -1 -0 0
    outer loop
      vertex 14.192 4.43973 4.8
      vertex 14.192 2.18399 4
      vertex 14.192 2.18399 4.8
    endloop
  endfacet
  facet normal -0.999923 -0.0124381 0
    outer loop
      vertex 14.1932 2.08752 4
      vertex 14.192 2.18399 4.8
      vertex 14.192 2.18399 4
    endloop
  endfacet
  facet normal -0.999923 -0.0124381 0
    outer loop
      vertex 14.192 2.18399 4.8
      vertex 14.1932 2.08752 4
      vertex 14.1932 2.08752 4.8
    endloop
  endfacet
  facet normal -0.999557 -0.0297588 0
    outer loop
      vertex 14.1967 1.96996 4
      vertex 14.1932 2.08752 4.8
      vertex 14.1932 2.08752 4
    endloop
  endfacet
  facet normal -0.999557 -0.0297588 0
    outer loop
      vertex 14.1932 2.08752 4.8
      vertex 14.1967 1.96996 4
      vertex 14.1967 1.96996 4.8
    endloop
  endfacet
  facet normal -0.999096 -0.0425055 0
    outer loop
      vertex 14.2026 1.83128 4
      vertex 14.1967 1.96996 4.8
      vertex 14.1967 1.96996 4
    endloop
  endfacet
  facet normal -0.999096 -0.0425055 0
    outer loop
      vertex 14.1967 1.96996 4.8
      vertex 14.2026 1.83128 4
      vertex 14.2026 1.83128 4.8
    endloop
  endfacet
  facet normal -0.998685 -0.0512595 0
    outer loop
      vertex 14.2108 1.67152 4
      vertex 14.2026 1.83128 4.8
      vertex 14.2026 1.83128 4
    endloop
  endfacet
  facet normal -0.998685 -0.0512595 0
    outer loop
      vertex 14.2026 1.83128 4.8
      vertex 14.2108 1.67152 4
      vertex 14.2108 1.67152 4.8
    endloop
  endfacet
  facet normal -0.998319 -0.0579648 0
    outer loop
      vertex 14.2213 1.49068 4
      vertex 14.2108 1.67152 4.8
      vertex 14.2108 1.67152 4
    endloop
  endfacet
  facet normal -0.998319 -0.0579648 0
    outer loop
      vertex 14.2108 1.67152 4.8
      vertex 14.2213 1.49068 4
      vertex 14.2213 1.49068 4.8
    endloop
  endfacet
  facet normal 0.845794 0.533509 0
    outer loop
      vertex 14.2213 1.49068 4.8
      vertex 12.3611 4.43973 4
      vertex 12.3611 4.43973 4.8
    endloop
  endfacet
  facet normal 0.845794 0.533509 0
    outer loop
      vertex 12.3611 4.43973 4
      vertex 14.2213 1.49068 4.8
      vertex 14.2213 1.49068 4
    endloop
  endfacet
  facet normal 0 1 -0
    outer loop
      vertex 12.3611 4.43973 4
      vertex 11.8192 4.43973 4.8
      vertex 12.3611 4.43973 4.8
    endloop
  endfacet
  facet normal 0 1 0
    outer loop
      vertex 11.8192 4.43973 4.8
      vertex 12.3611 4.43973 4
      vertex 11.8192 4.43973 4
    endloop
  endfacet
  facet normal -1 0 0
    outer loop
      vertex 11.8192 1 4
      vertex 11.8192 4.43973 4.8
      vertex 11.8192 4.43973 4
    endloop
  endfacet
  facet normal -1 -0 0
    outer loop
      vertex 11.8192 4.43973 4.8
      vertex 11.8192 1 4
      vertex 11.8192 1 4.8
    endloop
  endfacet
  facet normal 0 -1 0
    outer loop
      vertex 11.8192 1 4
      vertex 12.2342 1 4.8
      vertex 11.8192 1 4.8
    endloop
  endfacet
  facet normal 0 -1 -0
    outer loop
      vertex 12.2342 1 4.8
      vertex 11.8192 1 4
      vertex 12.2342 1 4
    endloop
  endfacet
  facet normal 1 -0 0
    outer loop
      vertex 12.2342 1 4.8
      vertex 12.2342 3.28502 4
      vertex 12.2342 3.28502 4.8
    endloop
  endfacet
  facet normal 1 0 0
    outer loop
      vertex 12.2342 3.28502 4
      vertex 12.2342 1 4.8
      vertex 12.2342 1 4
    endloop
  endfacet
  facet normal 0 -1 0
    outer loop
      vertex 17.1683 2.34024 4
      vertex 18.1789 2.34024 4.8
      vertex 17.1683 2.34024 4.8
    endloop
  endfacet
  facet normal 0 -1 -0
    outer loop
      vertex 18.1789 2.34024 4.8
      vertex 17.1683 2.34024 4
      vertex 18.1789 2.34024 4
    endloop
  endfacet
  facet normal 0.054879 -0.998493 0
    outer loop
      vertex 18.1789 2.34024 4
      vertex 18.3885 2.35176 4.8
      vertex 18.1789 2.34024 4.8
    endloop
  endfacet
  facet normal 0.054879 -0.998493 0
    outer loop
      vertex 18.3885 2.35176 4.8
      vertex 18.1789 2.34024 4
      vertex 18.3885 2.35176 4
    endloop
  endfacet
  facet normal 0.177691 -0.984086 0
    outer loop
      vertex 18.3885 2.35176 4
      vertex 18.5799 2.38632 4.8
      vertex 18.3885 2.35176 4.8
    endloop
  endfacet
  facet normal 0.177691 -0.984086 0
    outer loop
      vertex 18.5799 2.38632 4.8
      vertex 18.3885 2.35176 4
      vertex 18.5799 2.38632 4
    endloop
  endfacet
  facet normal 0.315997 -0.94876 0
    outer loop
      vertex 18.5799 2.38632 4
      vertex 18.7529 2.44394 4.8
      vertex 18.5799 2.38632 4.8
    endloop
  endfacet
  facet normal 0.315997 -0.94876 0
    outer loop
      vertex 18.7529 2.44394 4.8
      vertex 18.5799 2.38632 4
      vertex 18.7529 2.44394 4
    endloop
  endfacet
  facet normal 0.461857 -0.886954 0
    outer loop
      vertex 18.7529 2.44394 4
      vertex 18.9078 2.5246 4.8
      vertex 18.7529 2.44394 4.8
    endloop
  endfacet
  facet normal 0.461857 -0.886954 0
    outer loop
      vertex 18.9078 2.5246 4.8
      vertex 18.7529 2.44394 4
      vertex 18.9078 2.5246 4
    endloop
  endfacet
  facet normal 0.604972 -0.796246 0
    outer loop
      vertex 18.9078 2.5246 4
      vertex 19.0443 2.62831 4.8
      vertex 18.9078 2.5246 4.8
    endloop
  endfacet
  facet normal 0.604972 -0.796246 0
    outer loop
      vertex 19.0443 2.62831 4.8
      vertex 18.9078 2.5246 4
      vertex 19.0443 2.62831 4
    endloop
  endfacet
  facet normal 0.731987 -0.681319 0
    outer loop
      vertex 19.0443 2.62831 4.8
      vertex 19.159 2.75154 4
      vertex 19.159 2.75154 4.8
    endloop
  endfacet
  facet normal 0.731987 -0.681319 0
    outer loop
      vertex 19.159 2.75154 4
      vertex 19.0443 2.62831 4.8
      vertex 19.0443 2.62831 4
    endloop
  endfacet
  facet normal 0.842052 -0.539397 0
    outer loop
      vertex 19.159 2.75154 4.8
      vertex 19.2482 2.89079 4
      vertex 19.2482 2.89079 4.8
    endloop
  endfacet
  facet normal 0.842052 -0.539397 0
    outer loop
      vertex 19.2482 2.89079 4
      vertex 19.159 2.75154 4.8
      vertex 19.159 2.75154 4
    endloop
  endfacet
  facet normal 0.924952 -0.380085 0
    outer loop
      vertex 19.2482 2.89079 4.8
      vertex 19.312 3.04605 4
      vertex 19.312 3.04605 4.8
    endloop
  endfacet
  facet normal 0.924952 -0.380085 0
    outer loop
      vertex 19.312 3.04605 4
      vertex 19.2482 2.89079 4.8
      vertex 19.2482 2.89079 4
    endloop
  endfacet
  facet normal 0.976021 -0.217679 0
    outer loop
      vertex 19.312 3.04605 4.8
      vertex 19.3502 3.21733 4
      vertex 19.3502 3.21733 4.8
    endloop
  endfacet
  facet normal 0.976021 -0.217679 0
    outer loop
      vertex 19.3502 3.21733 4
      vertex 19.312 3.04605 4.8
      vertex 19.312 3.04605 4
    endloop
  endfacet
  facet normal 0.997709 -0.0676539 0
    outer loop
      vertex 19.3502 3.21733 4.8
      vertex 19.3629 3.40462 4
      vertex 19.3629 3.40462 4.8
    endloop
  endfacet
  facet normal 0.997709 -0.0676539 0
    outer loop
      vertex 19.3629 3.40462 4
      vertex 19.3502 3.21733 4.8
      vertex 19.3502 3.21733 4
    endloop
  endfacet
  facet normal 0.997734 0.0672749 0
    outer loop
      vertex 19.3629 3.40462 4.8
      vertex 19.3502 3.59297 4
      vertex 19.3502 3.59297 4.8
    endloop
  endfacet
  facet normal 0.997734 0.0672749 0
    outer loop
      vertex 19.3502 3.59297 4
      vertex 19.3629 3.40462 4.8
      vertex 19.3629 3.40462 4
    endloop
  endfacet
  facet normal 0.975958 0.21796 0
    outer loop
      vertex 19.3502 3.59297 4.8
      vertex 19.3121 3.76357 4
      vertex 19.3121 3.76357 4.8
    endloop
  endfacet
  facet normal 0.975958 0.21796 0
    outer loop
      vertex 19.3121 3.76357 4
      vertex 19.3502 3.59297 4.8
      vertex 19.3502 3.59297 4
    endloop
  endfacet
  facet normal 0.923675 0.383177 0
    outer loop
      vertex 19.3121 3.76357 4.8
      vertex 19.2487 3.9164 4
      vertex 19.2487 3.9164 4.8
    endloop
  endfacet
  facet normal 0.923675 0.383177 0
    outer loop
      vertex 19.2487 3.9164 4
      vertex 19.3121 3.76357 4.8
      vertex 19.3121 3.76357 4
    endloop
  endfacet
  facet normal 0.835253 0.549866 0
    outer loop
      vertex 19.2487 3.9164 4.8
      vertex 19.1598 4.05144 4
      vertex 19.1598 4.05144 4.8
    endloop
  endfacet
  facet normal 0.835253 0.549866 0
    outer loop
      vertex 19.1598 4.05144 4
      vertex 19.2487 3.9164 4.8
      vertex 19.2487 3.9164 4
    endloop
  endfacet
  facet normal 0.716147 0.69795 0
    outer loop
      vertex 19.1598 4.05144 4.8
      vertex 19.0455 4.16872 4
      vertex 19.0455 4.16872 4.8
    endloop
  endfacet
  facet normal 0.716147 0.69795 0
    outer loop
      vertex 19.0455 4.16872 4
      vertex 19.1598 4.05144 4.8
      vertex 19.1598 4.05144 4
    endloop
  endfacet
  facet normal 0.579226 0.815167 -0
    outer loop
      vertex 19.0455 4.16872 4
      vertex 18.9082 4.26628 4.8
      vertex 19.0455 4.16872 4.8
    endloop
  endfacet
  facet normal 0.579226 0.815167 0
    outer loop
      vertex 18.9082 4.26628 4.8
      vertex 19.0455 4.16872 4
      vertex 18.9082 4.26628 4
    endloop
  endfacet
  facet normal 0.43225 0.901754 -0
    outer loop
      vertex 18.9082 4.26628 4
      vertex 18.7499 4.34216 4.8
      vertex 18.9082 4.26628 4.8
    endloop
  endfacet
  facet normal 0.43225 0.901754 0
    outer loop
      vertex 18.7499 4.34216 4.8
      vertex 18.9082 4.26628 4
      vertex 18.7499 4.34216 4
    endloop
  endfacet
  facet normal 0.289503 0.957177 -0
    outer loop
      vertex 18.7499 4.34216 4
      vertex 18.5707 4.39636 4.8
      vertex 18.7499 4.34216 4.8
    endloop
  endfacet
  facet normal 0.289503 0.957177 0
    outer loop
      vertex 18.5707 4.39636 4.8
      vertex 18.7499 4.34216 4
      vertex 18.5707 4.39636 4
    endloop
  endfacet
  facet normal 0.160414 0.98705 -0
    outer loop
      vertex 18.5707 4.39636 4
      vertex 18.3706 4.42888 4.8
      vertex 18.5707 4.39636 4.8
    endloop
  endfacet
  facet normal 0.160414 0.98705 0
    outer loop
      vertex 18.3706 4.42888 4.8
      vertex 18.5707 4.39636 4
      vertex 18.3706 4.42888 4
    endloop
  endfacet
  facet normal 0.049036 0.998797 -0
    outer loop
      vertex 18.3706 4.42888 4
      vertex 18.1496 4.43973 4.8
      vertex 18.3706 4.42888 4.8
    endloop
  endfacet
  facet normal 0.049036 0.998797 0
    outer loop
      vertex 18.1496 4.43973 4.8
      vertex 18.3706 4.42888 4
      vertex 18.1496 4.43973 4
    endloop
  endfacet
  facet normal 0 1 -0
    outer loop
      vertex 18.1496 4.43973 4
      vertex 16.702 4.43973 4.8
      vertex 18.1496 4.43973 4.8
    endloop
  endfacet
  facet normal 0 1 0
    outer loop
      vertex 16.702 4.43973 4.8
      vertex 18.1496 4.43973 4
      vertex 16.702 4.43973 4
    endloop
  endfacet
  facet normal -1 0 0
    outer loop
      vertex 16.702 1 4
      vertex 16.702 4.43973 4.8
      vertex 16.702 4.43973 4
    endloop
  endfacet
  facet normal -1 -0 0
    outer loop
      vertex 16.702 4.43973 4.8
      vertex 16.702 1 4
      vertex 16.702 1 4.8
    endloop
  endfacet
  facet normal 0 -1 0
    outer loop
      vertex 16.702 1 4
      vertex 17.1683 1 4.8
      vertex 16.702 1 4.8
    endloop
  endfacet
  facet normal 0 -1 -0
    outer loop
      vertex 17.1683 1 4.8
      vertex 16.702 1 4
      vertex 17.1683 1 4
    endloop
  endfacet
  facet normal 1 -0 0
    outer loop
      vertex 17.1683 1 4.8
      vertex 17.1683 2.34024 4
      vertex 17.1683 2.34024 4.8
    endloop
  endfacet
  facet normal 1 0 0
    outer loop
      vertex 17.1683 2.34024 4
      vertex 17.1683 1 4.8
      vertex 17.1683 1 4
    endloop
  endfacet
  facet normal 1 -0 0
    outer loop
      vertex 17.1683 2.70888 4.8
      vertex 17.1683 4.06622 4
      vertex 17.1683 4.06622 4.8
    endloop
  endfacet
  facet normal 1 0 0
    outer loop
      vertex 17.1683 4.06622 4
      vertex 17.1683 2.70888 4.8
      vertex 17.1683 2.70888 4
    endloop
  endfacet
  facet normal 0 -1 0
    outer loop
      vertex 17.1683 4.06622 4
      vertex 18.0935 4.06622 4.8
      vertex 17.1683 4.06622 4.8
    endloop
  endfacet
  facet normal 0 -1 -0
    outer loop
      vertex 18.0935 4.06622 4.8
      vertex 17.1683 4.06622 4
      vertex 18.0935 4.06622 4
    endloop
  endfacet
  facet normal -0.0920777 -0.995752 0
    outer loop
      vertex 18.0935 4.06622 4
      vertex 18.3817 4.03957 4.8
      vertex 18.0935 4.06622 4.8
    endloop
  endfacet
  facet normal -0.0920777 -0.995752 -0
    outer loop
      vertex 18.3817 4.03957 4.8
      vertex 18.0935 4.06622 4
      vertex 18.3817 4.03957 4
    endloop
  endfacet
  facet normal -0.336033 -0.94185 0
    outer loop
      vertex 18.3817 4.03957 4
      vertex 18.6059 3.95958 4.8
      vertex 18.3817 4.03957 4.8
    endloop
  endfacet
  facet normal -0.336033 -0.94185 -0
    outer loop
      vertex 18.6059 3.95958 4.8
      vertex 18.3817 4.03957 4
      vertex 18.6059 3.95958 4
    endloop
  endfacet
  facet normal -0.63959 -0.768717 0
    outer loop
      vertex 18.6059 3.95958 4
      vertex 18.7661 3.82629 4.8
      vertex 18.6059 3.95958 4.8
    endloop
  endfacet
  facet normal -0.63959 -0.768717 -0
    outer loop
      vertex 18.7661 3.82629 4.8
      vertex 18.6059 3.95958 4
      vertex 18.7661 3.82629 4
    endloop
  endfacet
  facet normal -0.889037 -0.457835 0
    outer loop
      vertex 18.8622 3.63968 4
      vertex 18.7661 3.82629 4.8
      vertex 18.7661 3.82629 4
    endloop
  endfacet
  facet normal -0.889037 -0.457835 0
    outer loop
      vertex 18.7661 3.82629 4.8
      vertex 18.8622 3.63968 4
      vertex 18.8622 3.63968 4.8
    endloop
  endfacet
  facet normal -0.991223 -0.132202 0
    outer loop
      vertex 18.8942 3.39975 4
      vertex 18.8622 3.63968 4.8
      vertex 18.8622 3.63968 4
    endloop
  endfacet
  facet normal -0.991223 -0.132202 0
    outer loop
      vertex 18.8622 3.63968 4.8
      vertex 18.8942 3.39975 4
      vertex 18.8942 3.39975 4.8
    endloop
  endfacet
  facet normal -0.992174 0.12486 0
    outer loop
      vertex 18.8629 3.15103 4
      vertex 18.8942 3.39975 4.8
      vertex 18.8942 3.39975 4
    endloop
  endfacet
  facet normal -0.992174 0.12486 0
    outer loop
      vertex 18.8942 3.39975 4.8
      vertex 18.8629 3.15103 4
      vertex 18.8629 3.15103 4.8
    endloop
  endfacet
  facet normal -0.899968 0.435956 0
    outer loop
      vertex 18.7692 2.9576 4
      vertex 18.8629 3.15103 4.8
      vertex 18.8629 3.15103 4
    endloop
  endfacet
  facet normal -0.899968 0.435956 0
    outer loop
      vertex 18.8629 3.15103 4.8
      vertex 18.7692 2.9576 4
      vertex 18.7692 2.9576 4.8
    endloop
  endfacet
  facet normal -0.662609 0.748965 0
    outer loop
      vertex 18.7692 2.9576 4
      vertex 18.613 2.81941 4.8
      vertex 18.7692 2.9576 4.8
    endloop
  endfacet
  facet normal -0.662609 0.748965 0
    outer loop
      vertex 18.613 2.81941 4.8
      vertex 18.7692 2.9576 4
      vertex 18.613 2.81941 4
    endloop
  endfacet
  facet normal -0.354306 0.935129 0
    outer loop
      vertex 18.613 2.81941 4
      vertex 18.3942 2.73651 4.8
      vertex 18.613 2.81941 4.8
    endloop
  endfacet
  facet normal -0.354306 0.935129 0
    outer loop
      vertex 18.3942 2.73651 4.8
      vertex 18.613 2.81941 4
      vertex 18.3942 2.73651 4
    endloop
  endfacet
  facet normal -0.0977866 0.995207 0
    outer loop
      vertex 18.3942 2.73651 4
      vertex 18.113 2.70888 4.8
      vertex 18.3942 2.73651 4.8
    endloop
  endfacet
  facet normal -0.0977866 0.995207 0
    outer loop
      vertex 18.113 2.70888 4.8
      vertex 18.3942 2.73651 4
      vertex 18.113 2.70888 4
    endloop
  endfacet
  facet normal 0 1 -0
    outer loop
      vertex 18.113 2.70888 4
      vertex 17.1683 2.70888 4.8
      vertex 18.113 2.70888 4.8
    endloop
  endfacet
  facet normal 0 1 0
    outer loop
      vertex 17.1683 2.70888 4.8
      vertex 18.113 2.70888 4
      vertex 17.1683 2.70888 4
    endloop
  endfacet
  facet normal 0 -1 0
    outer loop
      vertex 20.4251 2.59415 4
      vertex 22.2853 2.59415 4.8
      vertex 20.4251 2.59415 4.8
    endloop
  endfacet
  facet normal 0 -1 -0
    outer loop
      vertex 22.2853 2.59415 4.8
      vertex 20.4251 2.59415 4
      vertex 22.2853 2.59415 4
    endloop
  endfacet
  facet normal -1 0 0
    outer loop
      vertex 22.2853 1 4
      vertex 22.2853 2.59415 4.8
      vertex 22.2853 2.59415 4
    endloop
  endfacet
  facet normal -1 -0 0
    outer loop
      vertex 22.2853 2.59415 4.8
      vertex 22.2853 1 4
      vertex 22.2853 1 4.8
    endloop
  endfacet
  facet normal 0 -1 0
    outer loop
      vertex 22.2853 1 4
      vertex 22.7516 1 4.8
      vertex 22.2853 1 4.8
    endloop
  endfacet
  facet normal 0 -1 -0
    outer loop
      vertex 22.7516 1 4.8
      vertex 22.2853 1 4
      vertex 22.7516 1 4
    endloop
  endfacet
  facet normal 1 -0 0
    outer loop
      vertex 22.7516 1 4.8
      vertex 22.7516 4.43973 4
      vertex 22.7516 4.43973 4.8
    endloop
  endfacet
  facet normal 1 0 0
    outer loop
      vertex 22.7516 4.43973 4
      vertex 22.7516 1 4.8
      vertex 22.7516 1 4
    endloop
  endfacet
  facet normal 0 1 -0
    outer loop
      vertex 22.7516 4.43973 4
      vertex 22.2853 4.43973 4.8
      vertex 22.7516 4.43973 4.8
    endloop
  endfacet
  facet normal 0 1 0
    outer loop
      vertex 22.2853 4.43973 4.8
      vertex 22.7516 4.43973 4
      vertex 22.2853 4.43973 4
    endloop
  endfacet
  facet normal -1 0 0
    outer loop
      vertex 22.2853 2.98474 4
      vertex 22.2853 4.43973 4.8
      vertex 22.2853 4.43973 4
    endloop
  endfacet
  facet normal -1 -0 0
    outer loop
      vertex 22.2853 4.43973 4.8
      vertex 22.2853 2.98474 4
      vertex 22.2853 2.98474 4.8
    endloop
  endfacet
  facet normal 0 1 -0
    outer loop
      vertex 22.2853 2.98474 4
      vertex 20.4251 2.98474 4.8
      vertex 22.2853 2.98474 4.8
    endloop
  endfacet
  facet normal 0 1 0
    outer loop
      vertex 20.4251 2.98474 4.8
      vertex 22.2853 2.98474 4
      vertex 20.4251 2.98474 4
    endloop
  endfacet
  facet normal 1 -0 0
    outer loop
      vertex 20.4251 2.98474 4.8
      vertex 20.4251 4.43973 4
      vertex 20.4251 4.43973 4.8
    endloop
  endfacet
  facet normal 1 0 0
    outer loop
      vertex 20.4251 4.43973 4
      vertex 20.4251 2.98474 4.8
      vertex 20.4251 2.98474 4
    endloop
  endfacet
  facet normal 0 1 -0
    outer loop
      vertex 20.4251 4.43973 4
      vertex 19.9588 4.43973 4.8
      vertex 20.4251 4.43973 4.8
    endloop
  endfacet
  facet normal 0 1 0
    outer loop
      vertex 19.9588 4.43973 4.8
      vertex 20.4251 4.43973 4
      vertex 19.9588 4.43973 4
    endloop
  endfacet
  facet normal -1 0 0
    outer loop
      vertex 19.9588 1 4
      vertex 19.9588 4.43973 4.8
      vertex 19.9588 4.43973 4
    endloop
  endfacet
  facet normal -1 -0 0
    outer loop
      vertex 19.9588 4.43973 4.8
      vertex 19.9588 1 4
      vertex 19.9588 1 4.8
    endloop
  endfacet
  facet normal 0 -1 0
    outer loop
      vertex 19.9588 1 4
      vertex 20.4251 1 4.8
      vertex 19.9588 1 4.8
    endloop
  endfacet
  facet normal 0 -1 -0
    outer loop
      vertex 20.4251 1 4.8
      vertex 19.9588 1 4
      vertex 20.4251 1 4
    endloop
  endfacet
  facet normal 1 -0 0
    outer loop
      vertex 20.4251 1 4.8
      vertex 20.4251 2.59415 4
      vertex 20.4251 2.59415 4.8
    endloop
  endfacet
  facet normal 1 0 0
    outer loop
      vertex 20.4251 2.59415 4
      vertex 20.4251 1 4.8
      vertex 20.4251 1 4
    endloop
  endfacet
  facet normal 0 1 -0
    outer loop
      vertex 11.2258 2.52333 4
      vertex 10.0052 2.52333 4.8
      vertex 11.2258 2.52333 4.8
    endloop
  endfacet
  facet normal 0 1 0
    outer loop
      vertex 10.0052 2.52333 4.8
      vertex 11.2258 2.52333 4
      vertex 10.0052 2.52333 4
    endloop
  endfacet
  facet normal -1 0 0
    outer loop
      vertex 10.0052 2.13274 4
      vertex 10.0052 2.52333 4.8
      vertex 10.0052 2.52333 4
    endloop
  endfacet
  facet normal -1 -0 0
    outer loop
      vertex 10.0052 2.52333 4.8
      vertex 10.0052 2.13274 4
      vertex 10.0052 2.13274 4.8
    endloop
  endfacet
  facet normal 0 -1 0
    outer loop
      vertex 10.0052 2.13274 4
      vertex 11.2258 2.13274 4.8
      vertex 10.0052 2.13274 4.8
    endloop
  endfacet
  facet normal 0 -1 -0
    outer loop
      vertex 11.2258 2.13274 4.8
      vertex 10.0052 2.13274 4
      vertex 11.2258 2.13274 4
    endloop
  endfacet
  facet normal 1 -0 0
    outer loop
      vertex 11.2258 2.13274 4.8
      vertex 11.2258 2.52333 4
      vertex 11.2258 2.52333 4.8
    endloop
  endfacet
  facet normal 1 0 0
    outer loop
      vertex 11.2258 2.52333 4
      vertex 11.2258 2.13274 4.8
      vertex 11.2258 2.13274 4
    endloop
  endfacet
endsolid OpenSCAD_Model
