solid OpenSCAD_Model
  facet normal 1 -0 0
    outer loop
      vertex 70 0 20
      vertex 70 45 0
      vertex 70 45 20
    endloop
  endfacet
  facet normal 1 0 0
    outer loop
      vertex 70 45 0
      vertex 70 0 20
      vertex 70 0 0
    endloop
  endfacet
  facet normal -0 0 1
    outer loop
      vertex 0 20 4
      vertex 50 0 4
      vertex 50 20 4
    endloop
  endfacet
  facet normal 0 0 1
    outer loop
      vertex 50 0 4
      vertex 0 20 4
      vertex 0 0 4
    endloop
  endfacet
  facet normal 0 0 -1
    outer loop
      vertex 70 0 0
      vertex 50 20 0
      vertex 70 45 0
    endloop
  endfacet
  facet normal 0 0 -1
    outer loop
      vertex 0 0 0
      vertex 50 20 0
      vertex 70 0 0
    endloop
  endfacet
  facet normal -0 0 -1
    outer loop
      vertex 50 20 0
      vertex 0 0 0
      vertex 0 20 0
    endloop
  endfacet
  facet normal -0 0 -1
    outer loop
      vertex 70 45 0
      vertex 50 20 0
      vertex 50 45 0
    endloop
  endfacet
  facet normal -1 0 0
    outer loop
      vertex 0 0 0
      vertex 0 20 4
      vertex 0 20 0
    endloop
  endfacet
  facet normal -1 -0 0
    outer loop
      vertex 0 20 4
      vertex 0 0 0
      vertex 0 0 4
    endloop
  endfacet
  facet normal 0 1 -0
    outer loop
      vertex 50 20 0
      vertex 0 20 4
      vertex 50 20 4
    endloop
  endfacet
  facet normal 0 1 0
    outer loop
      vertex 0 20 4
      vertex 50 20 0
      vertex 0 20 0
    endloop
  endfacet
  facet normal 0 -1 0
    outer loop
      vertex 0 0 4
      vertex 0 0 0
      vertex 50 0 4
    endloop
  endfacet
  facet normal 0 -1 0
    outer loop
      vertex 50 0 4
      vertex 70 0 20
      vertex 50 0 20
    endloop
  endfacet
  facet normal 0 -1 0
    outer loop
      vertex 50 0 4
      vertex 70 0 0
      vertex 70 0 20
    endloop
  endfacet
  facet normal 0 -1 0
    outer loop
      vertex 70 0 0
      vertex 50 0 4
      vertex 0 0 0
    endloop
  endfacet
  facet normal -0 0 1
    outer loop
      vertex 50 45 20
      vertex 70 0 20
      vertex 70 45 20
    endloop
  endfacet
  facet normal 0 0 1
    outer loop
      vertex 70 0 20
      vertex 50 45 20
      vertex 50 0 20
    endloop
  endfacet
  facet normal -1 0 0
    outer loop
      vertex 50 20 4
      vertex 50 45 0
      vertex 50 20 0
    endloop
  endfacet
  facet normal -1 0 0
    outer loop
      vertex 50 45 0
      vertex 50 20 4
      vertex 50 45 20
    endloop
  endfacet
  facet normal -1 0 0
    outer loop
      vertex 50 0 20
      vertex 50 20 4
      vertex 50 0 4
    endloop
  endfacet
  facet normal -1 0 0
    outer loop
      vertex 50 20 4
      vertex 50 0 20
      vertex 50 45 20
    endloop
  endfacet
  facet normal 0 1 -0
    outer loop
      vertex 70 45 0
      vertex 50 45 20
      vertex 70 45 20
    endloop
  endfacet
  facet normal 0 1 0
    outer loop
      vertex 50 45 20
      vertex 70 45 0
      vertex 50 45 0
    endloop
  endfacet
  facet normal -1 0 0
    outer loop
      vertex 66 4 4
      vertex 66 22 16
      vertex 66 22 4
    endloop
  endfacet
  facet normal -1 -0 0
    outer loop
      vertex 66 22 16
      vertex 66 4 4
      vertex 66 4 16
    endloop
  endfacet
  facet normal 0 0 -1
    outer loop
      vertex 54 4 16
      vertex 66 22 16
      vertex 66 4 16
    endloop
  endfacet
  facet normal -0 0 -1
    outer loop
      vertex 66 22 16
      vertex 54 4 16
      vertex 54 22 16
    endloop
  endfacet
  facet normal -0 0 1
    outer loop
      vertex 54 22 4
      vertex 66 4 4
      vertex 66 22 4
    endloop
  endfacet
  facet normal 0 0 1
    outer loop
      vertex 66 4 4
      vertex 54 22 4
      vertex 54 4 4
    endloop
  endfacet
  facet normal 1 -0 0
    outer loop
      vertex 54 4 16
      vertex 54 22 4
      vertex 54 22 16
    endloop
  endfacet
  facet normal 1 0 0
    outer loop
      vertex 54 22 4
      vertex 54 4 16
      vertex 54 4 4
    endloop
  endfacet
  facet normal 0 -1 0
    outer loop
      vertex 54 22 4
      vertex 66 22 16
      vertex 54 22 16
    endloop
  endfacet
  facet normal 0 -1 -0
    outer loop
      vertex 66 22 16
      vertex 54 22 4
      vertex 66 22 4
    endloop
  endfacet
  facet normal 0 1 -0
    outer loop
      vertex 66 4 4
      vertex 54 4 16
      vertex 66 4 16
    endloop
  endfacet
  facet normal 0 1 0
    outer loop
      vertex 54 4 16
      vertex 66 4 4
      vertex 54 4 4
    endloop
  endfacet
endsolid OpenSCAD_Model
