<?xml version="1.0" encoding="UTF-8" standalone="no"?>
<!DOCTYPE svg PUBLIC "-//W3C//DTD SVG 1.1//EN"
 "http://www.w3.org/Graphics/SVG/1.1/DTD/svg11.dtd">
<!-- Generated by graphviz version 12.2.1 (0)
 -->
<!-- Title: bow2_module_architecture Pages: 1 -->
<svg width="762pt" height="226pt"
 viewBox="0.00 0.00 761.75 226.00" xmlns="http://www.w3.org/2000/svg" xmlns:xlink="http://www.w3.org/1999/xlink">
<g id="graph0" class="graph" transform="scale(1 1) rotate(0) translate(4 222)">
<title>bow2_module_architecture</title>
<polygon fill="white" stroke="none" points="-4,4 -4,-222 757.75,-222 757.75,4 -4,4"/>
<text text-anchor="middle" x="376.88" y="-200.7" font-family="Helvetica,sans-Serif" font-size="14.00">BoW&#45;2 Chapel Host&#45;Characterization Module Architecture</text>
<!-- host_probe -->
<g id="node1" class="node">
<title>host_probe</title>
<path fill="#ddf3e4" stroke="#2b2b2b" d="M438.5,-124C438.5,-124 310,-124 310,-124 304,-124 298,-118 298,-112 298,-112 298,-83 298,-83 298,-77 304,-71 310,-71 310,-71 438.5,-71 438.5,-71 444.5,-71 450.5,-77 450.5,-83 450.5,-83 450.5,-112 450.5,-112 450.5,-118 444.5,-124 438.5,-124"/>
<text text-anchor="middle" x="374.25" y="-106.7" font-family="Helvetica,sans-Serif" font-size="14.00">HostNumaProbe.chpl</text>
<text text-anchor="middle" x="374.25" y="-91.7" font-family="Helvetica,sans-Serif" font-size="14.00">94 lines</text>
<text text-anchor="middle" x="374.25" y="-76.7" font-family="Helvetica,sans-Serif" font-size="14.00">live generic&#45;lane probe</text>
</g>
<!-- host_timing -->
<g id="node2" class="node">
<title>host_timing</title>
<path fill="#eaf2ff" stroke="#2b2b2b" d="M741.75,-171C741.75,-171 551.75,-171 551.75,-171 545.75,-171 539.75,-165 539.75,-159 539.75,-159 539.75,-130 539.75,-130 539.75,-124 545.75,-118 551.75,-118 551.75,-118 741.75,-118 741.75,-118 747.75,-118 753.75,-124 753.75,-130 753.75,-130 753.75,-159 753.75,-159 753.75,-165 747.75,-171 741.75,-171"/>
<text text-anchor="middle" x="646.75" y="-153.7" font-family="Helvetica,sans-Serif" font-size="14.00">HostNumaTiming.chpl</text>
<text text-anchor="middle" x="646.75" y="-138.7" font-family="Helvetica,sans-Serif" font-size="14.00">85 lines</text>
<text text-anchor="middle" x="646.75" y="-123.7" font-family="Helvetica,sans-Serif" font-size="14.00">partitions + synthetic data + stats</text>
</g>
<!-- host_probe&#45;&gt;host_timing -->
<g id="edge1" class="edge">
<title>host_probe&#45;&gt;host_timing</title>
<path fill="none" stroke="#4a4a4a" d="M450.96,-110.65C474.96,-114.82 502.09,-119.54 528.31,-124.09"/>
<polygon fill="#4a4a4a" stroke="#4a4a4a" points="527.53,-127.51 537.98,-125.78 528.73,-120.61 527.53,-127.51"/>
<text text-anchor="middle" x="500.75" y="-124.11" font-family="Helvetica,sans-Serif" font-size="14.00">uses</text>
</g>
<!-- timing_proofs -->
<g id="node3" class="node">
<title>timing_proofs</title>
<path fill="#fff0d6" stroke="#2b2b2b" d="M732.75,-93C732.75,-93 560.75,-93 560.75,-93 554.75,-93 548.75,-87 548.75,-81 548.75,-81 548.75,-52 548.75,-52 548.75,-46 554.75,-40 560.75,-40 560.75,-40 732.75,-40 732.75,-40 738.75,-40 744.75,-46 744.75,-52 744.75,-52 744.75,-81 744.75,-81 744.75,-87 738.75,-93 732.75,-93"/>
<text text-anchor="middle" x="646.75" y="-75.7" font-family="Helvetica,sans-Serif" font-size="14.00">TimingProofs.chpl</text>
<text text-anchor="middle" x="646.75" y="-60.7" font-family="Helvetica,sans-Serif" font-size="14.00">112 lines</text>
<text text-anchor="middle" x="646.75" y="-45.7" font-family="Helvetica,sans-Serif" font-size="14.00">periods + jitter + conformance</text>
</g>
<!-- host_probe&#45;&gt;timing_proofs -->
<g id="edge2" class="edge">
<title>host_probe&#45;&gt;timing_proofs</title>
<path fill="none" stroke="#4a4a4a" d="M450.96,-88.82C477.59,-85.77 508.07,-82.28 536.88,-78.98"/>
<polygon fill="#4a4a4a" stroke="#4a4a4a" points="537.22,-82.46 546.75,-77.85 536.42,-75.51 537.22,-82.46"/>
<text text-anchor="middle" x="500.75" y="-86.48" font-family="Helvetica,sans-Serif" font-size="14.00">uses</text>
</g>
<!-- test_host -->
<g id="node4" class="node">
<title>test_host</title>
<path fill="#f4e8ff" stroke="#2b2b2b" d="M449.75,-195C449.75,-195 298.75,-195 298.75,-195 292.75,-195 286.75,-189 286.75,-183 286.75,-183 286.75,-154 286.75,-154 286.75,-148 292.75,-142 298.75,-142 298.75,-142 449.75,-142 449.75,-142 455.75,-142 461.75,-148 461.75,-154 461.75,-154 461.75,-183 461.75,-183 461.75,-189 455.75,-195 449.75,-195"/>
<text text-anchor="middle" x="374.25" y="-177.7" font-family="Helvetica,sans-Serif" font-size="14.00">TestHostNumaTiming.chpl</text>
<text text-anchor="middle" x="374.25" y="-162.7" font-family="Helvetica,sans-Serif" font-size="14.00">5 properties</text>
<text text-anchor="middle" x="374.25" y="-147.7" font-family="Helvetica,sans-Serif" font-size="14.00">900 configured cases</text>
</g>
<!-- test_host&#45;&gt;host_timing -->
<g id="edge3" class="edge">
<title>test_host&#45;&gt;host_timing</title>
<path fill="none" stroke="#4a4a4a" d="M461.95,-160.81C483.11,-158.93 506.08,-156.89 528.4,-154.91"/>
<polygon fill="#4a4a4a" stroke="#4a4a4a" points="528.48,-158.42 538.13,-154.05 527.86,-151.45 528.48,-158.42"/>
<text text-anchor="middle" x="500.75" y="-160.35" font-family="Helvetica,sans-Serif" font-size="14.00">checks</text>
</g>
<!-- test_timing -->
<g id="node5" class="node">
<title>test_timing</title>
<path fill="#f4e8ff" stroke="#2b2b2b" d="M437,-53C437,-53 311.5,-53 311.5,-53 305.5,-53 299.5,-47 299.5,-41 299.5,-41 299.5,-12 299.5,-12 299.5,-6 305.5,0 311.5,0 311.5,0 437,0 437,0 443,0 449,-6 449,-12 449,-12 449,-41 449,-41 449,-47 443,-53 437,-53"/>
<text text-anchor="middle" x="374.25" y="-35.7" font-family="Helvetica,sans-Serif" font-size="14.00">TestTimingProofs.chpl</text>
<text text-anchor="middle" x="374.25" y="-20.7" font-family="Helvetica,sans-Serif" font-size="14.00">4 properties</text>
<text text-anchor="middle" x="374.25" y="-5.7" font-family="Helvetica,sans-Serif" font-size="14.00">800 configured cases</text>
</g>
<!-- test_timing&#45;&gt;timing_proofs -->
<g id="edge4" class="edge">
<title>test_timing&#45;&gt;timing_proofs</title>
<path fill="none" stroke="#4a4a4a" d="M449.17,-37.43C476.28,-41.44 507.57,-46.07 537.1,-50.43"/>
<polygon fill="#4a4a4a" stroke="#4a4a4a" points="536.42,-53.87 546.82,-51.87 537.44,-46.95 536.42,-53.87"/>
<text text-anchor="middle" x="500.75" y="-49.4" font-family="Helvetica,sans-Serif" font-size="14.00">checks</text>
</g>
<!-- quickchpl -->
<g id="node6" class="node">
<title>quickchpl</title>
<polygon fill="#fdedee" stroke="#2b2b2b" points="190.75,-116.5 0,-116.5 0,-112.5 -4,-112.5 -4,-108.5 0,-108.5 0,-86.5 -4,-86.5 -4,-82.5 0,-82.5 0,-78.5 190.75,-78.5 190.75,-116.5"/>
<polyline fill="none" stroke="#2b2b2b" points="0,-112.5 4,-112.5 4,-108.5 0,-108.5"/>
<polyline fill="none" stroke="#2b2b2b" points="0,-86.5 4,-86.5 4,-82.5 0,-82.5"/>
<text text-anchor="middle" x="95.38" y="-99.2" font-family="Helvetica,sans-Serif" font-size="14.00">quickchpl 1.0.2</text>
<text text-anchor="middle" x="95.38" y="-84.2" font-family="Helvetica,sans-Serif" font-size="14.00">PBT generator/check surface</text>
</g>
<!-- quickchpl&#45;&gt;test_host -->
<g id="edge5" class="edge">
<title>quickchpl&#45;&gt;test_host</title>
<path fill="none" stroke="#4a4a4a" d="M172.4,-116.99C204.32,-125.18 241.85,-134.8 275.77,-143.5"/>
<polygon fill="#4a4a4a" stroke="#4a4a4a" points="274.62,-146.82 285.18,-145.92 276.36,-140.04 274.62,-146.82"/>
<text text-anchor="middle" x="238.75" y="-143.15" font-family="Helvetica,sans-Serif" font-size="14.00">generates</text>
</g>
<!-- quickchpl&#45;&gt;test_timing -->
<g id="edge6" class="edge">
<title>quickchpl&#45;&gt;test_timing</title>
<path fill="none" stroke="#4a4a4a" d="M172.4,-78.01C208.39,-68.78 251.5,-57.72 288.53,-48.22"/>
<polygon fill="#4a4a4a" stroke="#4a4a4a" points="289.03,-51.71 297.84,-45.84 287.29,-44.93 289.03,-51.71"/>
<text text-anchor="middle" x="238.75" y="-70.06" font-family="Helvetica,sans-Serif" font-size="14.00">generates</text>
</g>
</g>
</svg>
